M48
METRIC,LZ,000.000
;FILE_FORMAT=3:3
;TYPE=PLATED
;Layer: PTH_Through
;EasyEDA v6.5.14, 2022-08-24 14:40:41
;9da48f2711ed4ad3adc4a7d986b87d78,bf633cf64d8a430dba0ab8f24d4e683d,10
;Gerber Generator version 0.2
;Holesize 1 = 0.305 mm
T01C0.305
;Holesize 2 = 0.306 mm
T02C0.306
;Holesize 3 = 0.600 mm
T03C0.600
;Holesize 4 = 0.850 mm
T04C0.850
;Holesize 5 = 0.914 mm
T05C0.914
;Holesize 6 = 0.915 mm
T06C0.915
;Holesize 7 = 1.000 mm
T07C1.000
;Holesize 8 = 1.016 mm
T08C1.016
;Holesize 9 = 1.101 mm
T09C1.101
;Holesize 10 = 1.200 mm
T10C1.200
%
G05
G90
T01
X053340Y-024765
X052705Y-033655
X015240Y-015240
X013335Y-009525
X010795Y-005080
X010160Y-009525
X010160Y-062230
X011811Y-059944
X086995Y-082432
X075400Y-095885
X036195Y-047625
X030480Y-053975
X026035Y-048895
X030789Y-037835
X059690Y-038735
X049663Y-036963
T02
X029444Y-034051
X054607Y-039025
X015941Y-053274
X055238Y-043515
X034129Y-043515
X066992Y-032385
X052543Y-035560
X019029Y-037465
X013970Y-062962
X043697Y-057921
X062413Y-056900
X043697Y-053162
X064910Y-053331
X081646Y-045406
X068477Y-040873
X062838Y-091247
X043229Y-093516
X049325Y-092777
X040283Y-081487
X027919Y-085710
X002185Y-080723
X040505Y-091427
X025209Y-085202
X003875Y-004085
X078137Y-089187
X064815Y-095291
X027870Y-045771
X044429Y-048227
X050090Y-048227
X032846Y-035592
X055014Y-036877
X027140Y-072619
X009406Y-057210
X034329Y-039451
X015118Y-033255
X003538Y-006258
X060960Y-075366
X024132Y-066050
X024132Y-031727
X016360Y-025703
X050845Y-030993
X017780Y-025243
X048473Y-055157
X041498Y-056382
X013299Y-056382
X040718Y-053803
X029210Y-023129
X032678Y-029587
X032678Y-034285
X035196Y-037430
X035116Y-036103
X018829Y-033395
X037919Y-037408
X033586Y-033167
X012710Y-079744
X014036Y-052516
X045203Y-045714
X052225Y-045714
X011672Y-086878
X040463Y-090234
X013718Y-085844
X009991Y-022914
X009991Y-054986
X002138Y-057600
T03
X005530Y-086440G85X004630Y-086440
X005530Y-094940G85X004630Y-094940
X005430Y-097940G85X004730Y-097940
X020770Y-086440G85X019870Y-086440
X020770Y-094940G85X019870Y-094940
X020670Y-097940G85X019970Y-097940
X036010Y-086440G85X035110Y-086440
X036010Y-094940G85X035110Y-094940
X035910Y-097940G85X035210Y-097940
X053790Y-086440G85X052890Y-086440
X053790Y-094940G85X052890Y-094940
X053690Y-097940G85X052990Y-097940
X005530Y-066120G85X004630Y-066120
X005530Y-074620G85X004630Y-074620
X005430Y-077620G85X004730Y-077620
X084270Y-066120G85X083370Y-066120
X084270Y-074620G85X083370Y-074620
X084170Y-077620G85X083470Y-077620
X020770Y-066120G85X019870Y-066120
X019870Y-074620G85X020770Y-074620
X019970Y-077620G85X020670Y-077620
X036010Y-066120G85X035110Y-066120
X035110Y-074620G85X036010Y-074620
X035210Y-077620G85X035910Y-077620
X053790Y-066120G85X052890Y-066120
X052890Y-074620G85X053790Y-074620
X052990Y-077620G85X053690Y-077620
X069030Y-066120G85X068130Y-066120
X068130Y-074620G85X069030Y-074620
X068230Y-077620G85X068930Y-077620
X084270Y-086440G85X083370Y-086440
X084270Y-094940G85X083370Y-094940
X084170Y-097940G85X083470Y-097940
X069030Y-086440G85X068130Y-086440
X069030Y-094940G85X068130Y-094940
X068930Y-097940G85X068230Y-097940
T04
X055880Y-002540
X053340Y-002540
X050800Y-002540
X012700Y-002540
X010160Y-002540
X007620Y-002540
X007620Y-020320
X010160Y-020320
X012700Y-020320
X015240Y-020320
X017780Y-020320
X020320Y-020320
X022860Y-020320
X025400Y-020320
X027940Y-020320
X030480Y-020320
X033020Y-020320
X035560Y-020320
X038100Y-020320
X040640Y-020320
X043180Y-020320
X045720Y-020320
X048260Y-020320
X050800Y-020320
X053340Y-020320
X055880Y-020320
X007850Y-008890
X007850Y-011430
X007850Y-013970
T05
X015240Y-058420
X035560Y-058420
X058420Y-058420
X078740Y-058420
X020320Y-035560
X073660Y-035560
T06
X006350Y-081280
X003810Y-081280
X021590Y-081280
X019050Y-081280
X036830Y-081280
X034290Y-081280
X054610Y-081280
X052070Y-081280
X069850Y-081280
X067310Y-081280
X085090Y-081280
X082550Y-081280
X012700Y-058420
X010160Y-058420
X033020Y-058420
X030480Y-058420
X055880Y-058420
X053340Y-058420
X076200Y-058420
X073660Y-058420
X017780Y-035560
X015240Y-035560
X071120Y-035560
X068580Y-035560
X048260Y-007620
X045720Y-007620
X043180Y-007620
X040640Y-007620
X048260Y-002540
X045720Y-002540
X043180Y-002540
X040640Y-002540
X038100Y-002540
X035560Y-002540
X033020Y-002540
X030480Y-002540
X027940Y-002540
X025400Y-002540
X022860Y-002540
X020320Y-002540
X017780Y-002540
X015240Y-002540
T07
X083186Y-034288
X080644Y-034291
X083185Y-031749
X080644Y-031751
X083185Y-029209
X080644Y-029211
X083185Y-026669
X080644Y-026671
X083185Y-024129
X080644Y-024131
T08
X007620Y-051562G85X007620Y-050038
X017780Y-051562G85X017780Y-050038
X027940Y-051562G85X027940Y-050038
X038100Y-051562G85X038100Y-050038
X050800Y-051562G85X050800Y-050038
X060960Y-051562G85X060960Y-050038
X071120Y-051562G85X071120Y-050038
X081280Y-051562G85X081280Y-050038
X012700Y-028702G85X012700Y-027178
X022860Y-028702G85X022860Y-027178
X066040Y-028702G85X066040Y-027178
X076200Y-028702G85X076200Y-027178
T09
X006350Y-024765
X003810Y-024765
X006350Y-027305
X003810Y-027305
X006350Y-029845
X003810Y-029845
X006350Y-032385
X003810Y-032385
X006350Y-034925
X003810Y-034925
X006350Y-037465
X003810Y-037465
X006350Y-040005
X003810Y-040005
X006350Y-042545
X003810Y-042545
X066040Y-062230
X068580Y-062230
X071120Y-062230
X017780Y-062230
X020320Y-062230
X022860Y-062230
X038100Y-062230
X035560Y-062230
X033020Y-062230
X050800Y-062230
X053340Y-062230
X055880Y-062230
T10
X021030Y-012410
X014530Y-012410
X014530Y-007910
X021030Y-007910
X074370Y-012410
X067870Y-012410
X067870Y-007910
X074370Y-007910
M30
