G04 Layer: BottomSilkscreenLayer*
G04 EasyEDA v6.5.14, 2022-08-24 14:40:41*
G04 9da48f2711ed4ad3adc4a7d986b87d78,bf633cf64d8a430dba0ab8f24d4e683d,10*
G04 Gerber Generator version 0.2*
G04 Scale: 100 percent, Rotated: No, Reflected: No *
G04 Dimensions in millimeters *
G04 leading zeros omitted , absolute positions ,4 integer and 5 decimal *
%FSLAX45Y45*%
%MOMM*%

%ADD10C,0.1800*%
%ADD11C,0.1524*%
%ADD12C,0.2032*%
%ADD13C,0.2540*%

%LPD*%
D10*
X4920228Y-2477157D02*
G01*
X4920228Y-2549801D01*
X4924800Y-2563517D01*
X4929372Y-2568089D01*
X4938516Y-2572661D01*
X4947406Y-2572661D01*
X4956550Y-2568089D01*
X4961122Y-2563517D01*
X4965694Y-2549801D01*
X4965694Y-2540911D01*
X4890256Y-2477157D02*
G01*
X4890256Y-2572661D01*
X4890256Y-2572661D02*
G01*
X4835646Y-2572661D01*
X4737602Y-2500017D02*
G01*
X4742174Y-2490873D01*
X4751064Y-2481729D01*
X4760208Y-2477157D01*
X4778496Y-2477157D01*
X4787640Y-2481729D01*
X4796530Y-2490873D01*
X4801102Y-2500017D01*
X4805674Y-2513479D01*
X4805674Y-2536339D01*
X4801102Y-2549801D01*
X4796530Y-2558945D01*
X4787640Y-2568089D01*
X4778496Y-2572661D01*
X4760208Y-2572661D01*
X4751064Y-2568089D01*
X4742174Y-2558945D01*
X4737602Y-2549801D01*
X4662164Y-2477157D02*
G01*
X4662164Y-2549801D01*
X4666736Y-2563517D01*
X4671054Y-2568089D01*
X4680198Y-2572661D01*
X4689342Y-2572661D01*
X4698486Y-2568089D01*
X4703058Y-2563517D01*
X4707630Y-2549801D01*
X4707630Y-2540911D01*
X4632192Y-2477157D02*
G01*
X4632192Y-2572661D01*
X4632192Y-2572661D02*
G01*
X4577582Y-2572661D01*
X4479284Y-2500017D02*
G01*
X4483856Y-2490873D01*
X4493000Y-2481729D01*
X4502144Y-2477157D01*
X4520178Y-2477157D01*
X4529322Y-2481729D01*
X4538466Y-2490873D01*
X4543038Y-2500017D01*
X4547610Y-2513479D01*
X4547610Y-2536339D01*
X4543038Y-2549801D01*
X4538466Y-2558945D01*
X4529322Y-2568089D01*
X4520178Y-2572661D01*
X4502144Y-2572661D01*
X4493000Y-2568089D01*
X4483856Y-2558945D01*
X4479284Y-2549801D01*
X4403846Y-2477157D02*
G01*
X4403846Y-2549801D01*
X4408418Y-2563517D01*
X4412990Y-2568089D01*
X4422134Y-2572661D01*
X4431278Y-2572661D01*
X4440168Y-2568089D01*
X4444740Y-2563517D01*
X4449312Y-2549801D01*
X4449312Y-2540911D01*
X4373874Y-2477157D02*
G01*
X4373874Y-2572661D01*
X4373874Y-2572661D02*
G01*
X4319264Y-2572661D01*
X4221220Y-2500017D02*
G01*
X4225792Y-2490873D01*
X4234682Y-2481729D01*
X4243826Y-2477157D01*
X4262114Y-2477157D01*
X4271258Y-2481729D01*
X4280148Y-2490873D01*
X4284720Y-2500017D01*
X4289292Y-2513479D01*
X4289292Y-2536339D01*
X4284720Y-2549801D01*
X4280148Y-2558945D01*
X4271258Y-2568089D01*
X4262114Y-2572661D01*
X4243826Y-2572661D01*
X4234682Y-2568089D01*
X4225792Y-2558945D01*
X4221220Y-2549801D01*
X4145782Y-2477157D02*
G01*
X4145782Y-2549801D01*
X4150354Y-2563517D01*
X4154672Y-2568089D01*
X4163816Y-2572661D01*
X4172960Y-2572661D01*
X4182104Y-2568089D01*
X4186676Y-2563517D01*
X4191248Y-2549801D01*
X4191248Y-2540911D01*
X4115810Y-2477157D02*
G01*
X4115810Y-2572661D01*
X4115810Y-2572661D02*
G01*
X4061200Y-2572661D01*
X3962902Y-2500017D02*
G01*
X3967474Y-2490873D01*
X3976618Y-2481729D01*
X3985762Y-2477157D01*
X4003796Y-2477157D01*
X4012940Y-2481729D01*
X4022084Y-2490873D01*
X4026656Y-2500017D01*
X4031228Y-2513479D01*
X4031228Y-2536339D01*
X4026656Y-2549801D01*
X4022084Y-2558945D01*
X4012940Y-2568089D01*
X4003796Y-2572661D01*
X3985762Y-2572661D01*
X3976618Y-2568089D01*
X3967474Y-2558945D01*
X3962902Y-2549801D01*
D11*
X730757Y-8393684D02*
G01*
X741171Y-8398763D01*
X751586Y-8409178D01*
X756920Y-8419592D01*
X762000Y-8435339D01*
X762000Y-8461247D01*
X756920Y-8476742D01*
X751586Y-8487155D01*
X741171Y-8497570D01*
X730757Y-8502650D01*
X709929Y-8502650D01*
X699770Y-8497570D01*
X689355Y-8487155D01*
X684021Y-8476742D01*
X678942Y-8461247D01*
X678942Y-8435339D01*
X684021Y-8419592D01*
X689355Y-8409178D01*
X699770Y-8398763D01*
X709929Y-8393684D01*
X730757Y-8393684D01*
X644652Y-8393684D02*
G01*
X644652Y-8471662D01*
X639318Y-8487155D01*
X628904Y-8497570D01*
X613410Y-8502650D01*
X602995Y-8502650D01*
X587502Y-8497570D01*
X577087Y-8487155D01*
X571754Y-8471662D01*
X571754Y-8393684D01*
X501142Y-8393684D02*
G01*
X501142Y-8502650D01*
X537463Y-8393684D02*
G01*
X464820Y-8393684D01*
X430529Y-8539226D02*
G01*
X337057Y-8539226D01*
X302768Y-8414512D02*
G01*
X292354Y-8409178D01*
X276860Y-8393684D01*
X276860Y-8502650D01*
X2318258Y-8393684D02*
G01*
X2328672Y-8398763D01*
X2339086Y-8409178D01*
X2344420Y-8419592D01*
X2349500Y-8435339D01*
X2349500Y-8461247D01*
X2344420Y-8476742D01*
X2339086Y-8487155D01*
X2328672Y-8497570D01*
X2318258Y-8502650D01*
X2297429Y-8502650D01*
X2287270Y-8497570D01*
X2276856Y-8487155D01*
X2271522Y-8476742D01*
X2266441Y-8461247D01*
X2266441Y-8435339D01*
X2271522Y-8419592D01*
X2276856Y-8409178D01*
X2287270Y-8398763D01*
X2297429Y-8393684D01*
X2318258Y-8393684D01*
X2232152Y-8393684D02*
G01*
X2232152Y-8471662D01*
X2226818Y-8487155D01*
X2216404Y-8497570D01*
X2200909Y-8502650D01*
X2190495Y-8502650D01*
X2175002Y-8497570D01*
X2164588Y-8487155D01*
X2159254Y-8471662D01*
X2159254Y-8393684D01*
X2088641Y-8393684D02*
G01*
X2088641Y-8502650D01*
X2124963Y-8393684D02*
G01*
X2052320Y-8393684D01*
X2018029Y-8539226D02*
G01*
X1924557Y-8539226D01*
X1884934Y-8419592D02*
G01*
X1884934Y-8414512D01*
X1879854Y-8404097D01*
X1874520Y-8398763D01*
X1864360Y-8393684D01*
X1843531Y-8393684D01*
X1833118Y-8398763D01*
X1827784Y-8404097D01*
X1822704Y-8414512D01*
X1822704Y-8424926D01*
X1827784Y-8435339D01*
X1838197Y-8450834D01*
X1890268Y-8502650D01*
X1817370Y-8502650D01*
X3842258Y-8393684D02*
G01*
X3852672Y-8398763D01*
X3863086Y-8409178D01*
X3868420Y-8419592D01*
X3873500Y-8435339D01*
X3873500Y-8461247D01*
X3868420Y-8476742D01*
X3863086Y-8487155D01*
X3852672Y-8497570D01*
X3842258Y-8502650D01*
X3821429Y-8502650D01*
X3811270Y-8497570D01*
X3800856Y-8487155D01*
X3795522Y-8476742D01*
X3790441Y-8461247D01*
X3790441Y-8435339D01*
X3795522Y-8419592D01*
X3800856Y-8409178D01*
X3811270Y-8398763D01*
X3821429Y-8393684D01*
X3842258Y-8393684D01*
X3756152Y-8393684D02*
G01*
X3756152Y-8471662D01*
X3750818Y-8487155D01*
X3740404Y-8497570D01*
X3724909Y-8502650D01*
X3714495Y-8502650D01*
X3699002Y-8497570D01*
X3688588Y-8487155D01*
X3683254Y-8471662D01*
X3683254Y-8393684D01*
X3612641Y-8393684D02*
G01*
X3612641Y-8502650D01*
X3648963Y-8393684D02*
G01*
X3576320Y-8393684D01*
X3542029Y-8539226D02*
G01*
X3448558Y-8539226D01*
X3403854Y-8393684D02*
G01*
X3346704Y-8393684D01*
X3377945Y-8435339D01*
X3362197Y-8435339D01*
X3351784Y-8440420D01*
X3346704Y-8445500D01*
X3341370Y-8461247D01*
X3341370Y-8471662D01*
X3346704Y-8487155D01*
X3357118Y-8497570D01*
X3372611Y-8502650D01*
X3388359Y-8502650D01*
X3403854Y-8497570D01*
X3408934Y-8492489D01*
X3414268Y-8482076D01*
X5569458Y-8393684D02*
G01*
X5579872Y-8398763D01*
X5590286Y-8409178D01*
X5595620Y-8419592D01*
X5600700Y-8435339D01*
X5600700Y-8461247D01*
X5595620Y-8476742D01*
X5590286Y-8487155D01*
X5579872Y-8497570D01*
X5569458Y-8502650D01*
X5548629Y-8502650D01*
X5538470Y-8497570D01*
X5528056Y-8487155D01*
X5522722Y-8476742D01*
X5517641Y-8461247D01*
X5517641Y-8435339D01*
X5522722Y-8419592D01*
X5528056Y-8409178D01*
X5538470Y-8398763D01*
X5548629Y-8393684D01*
X5569458Y-8393684D01*
X5483352Y-8393684D02*
G01*
X5483352Y-8471662D01*
X5478018Y-8487155D01*
X5467604Y-8497570D01*
X5452109Y-8502650D01*
X5441695Y-8502650D01*
X5426202Y-8497570D01*
X5415788Y-8487155D01*
X5410454Y-8471662D01*
X5410454Y-8393684D01*
X5339841Y-8393684D02*
G01*
X5339841Y-8502650D01*
X5376163Y-8393684D02*
G01*
X5303520Y-8393684D01*
X5269229Y-8539226D02*
G01*
X5175758Y-8539226D01*
X5089397Y-8393684D02*
G01*
X5141468Y-8466328D01*
X5063490Y-8466328D01*
X5089397Y-8393684D02*
G01*
X5089397Y-8502650D01*
X1016000Y-7822184D02*
G01*
X1016000Y-7931150D01*
X1016000Y-7931150D02*
G01*
X953770Y-7931150D01*
X919479Y-7822184D02*
G01*
X919479Y-7931150D01*
X919479Y-7822184D02*
G01*
X851915Y-7822184D01*
X919479Y-7874000D02*
G01*
X877823Y-7874000D01*
X919479Y-7931150D02*
G01*
X851915Y-7931150D01*
X817626Y-7822184D02*
G01*
X817626Y-7931150D01*
X817626Y-7822184D02*
G01*
X781050Y-7822184D01*
X765555Y-7827263D01*
X755142Y-7837678D01*
X750062Y-7848092D01*
X744728Y-7863839D01*
X744728Y-7889747D01*
X750062Y-7905242D01*
X755142Y-7915655D01*
X765555Y-7926070D01*
X781050Y-7931150D01*
X817626Y-7931150D01*
X710437Y-7843012D02*
G01*
X700023Y-7837678D01*
X684529Y-7822184D01*
X684529Y-7931150D01*
X2540000Y-7822184D02*
G01*
X2540000Y-7931150D01*
X2540000Y-7931150D02*
G01*
X2477770Y-7931150D01*
X2443479Y-7822184D02*
G01*
X2443479Y-7931150D01*
X2443479Y-7822184D02*
G01*
X2375915Y-7822184D01*
X2443479Y-7874000D02*
G01*
X2401824Y-7874000D01*
X2443479Y-7931150D02*
G01*
X2375915Y-7931150D01*
X2341625Y-7822184D02*
G01*
X2341625Y-7931150D01*
X2341625Y-7822184D02*
G01*
X2305050Y-7822184D01*
X2289556Y-7827263D01*
X2279141Y-7837678D01*
X2274061Y-7848092D01*
X2268727Y-7863839D01*
X2268727Y-7889747D01*
X2274061Y-7905242D01*
X2279141Y-7915655D01*
X2289556Y-7926070D01*
X2305050Y-7931150D01*
X2341625Y-7931150D01*
X2229358Y-7848092D02*
G01*
X2229358Y-7843012D01*
X2224024Y-7832597D01*
X2218943Y-7827263D01*
X2208529Y-7822184D01*
X2187702Y-7822184D01*
X2177288Y-7827263D01*
X2172208Y-7832597D01*
X2166874Y-7843012D01*
X2166874Y-7853426D01*
X2172208Y-7863839D01*
X2182622Y-7879334D01*
X2234438Y-7931150D01*
X2161793Y-7931150D01*
X4064000Y-7822184D02*
G01*
X4064000Y-7931150D01*
X4064000Y-7931150D02*
G01*
X4001770Y-7931150D01*
X3967479Y-7822184D02*
G01*
X3967479Y-7931150D01*
X3967479Y-7822184D02*
G01*
X3899915Y-7822184D01*
X3967479Y-7874000D02*
G01*
X3925824Y-7874000D01*
X3967479Y-7931150D02*
G01*
X3899915Y-7931150D01*
X3865625Y-7822184D02*
G01*
X3865625Y-7931150D01*
X3865625Y-7822184D02*
G01*
X3829050Y-7822184D01*
X3813556Y-7827263D01*
X3803141Y-7837678D01*
X3798061Y-7848092D01*
X3792727Y-7863839D01*
X3792727Y-7889747D01*
X3798061Y-7905242D01*
X3803141Y-7915655D01*
X3813556Y-7926070D01*
X3829050Y-7931150D01*
X3865625Y-7931150D01*
X3748024Y-7822184D02*
G01*
X3690874Y-7822184D01*
X3722115Y-7863839D01*
X3706622Y-7863839D01*
X3696208Y-7868920D01*
X3690874Y-7874000D01*
X3685793Y-7889747D01*
X3685793Y-7900162D01*
X3690874Y-7915655D01*
X3701288Y-7926070D01*
X3717036Y-7931150D01*
X3732529Y-7931150D01*
X3748024Y-7926070D01*
X3753358Y-7920989D01*
X3758438Y-7910576D01*
X5880100Y-7796784D02*
G01*
X5880100Y-7905750D01*
X5880100Y-7905750D02*
G01*
X5817870Y-7905750D01*
X5783579Y-7796784D02*
G01*
X5783579Y-7905750D01*
X5783579Y-7796784D02*
G01*
X5716015Y-7796784D01*
X5783579Y-7848600D02*
G01*
X5741924Y-7848600D01*
X5783579Y-7905750D02*
G01*
X5716015Y-7905750D01*
X5681725Y-7796784D02*
G01*
X5681725Y-7905750D01*
X5681725Y-7796784D02*
G01*
X5645150Y-7796784D01*
X5629656Y-7801863D01*
X5619241Y-7812278D01*
X5614161Y-7822692D01*
X5608827Y-7838439D01*
X5608827Y-7864347D01*
X5614161Y-7879842D01*
X5619241Y-7890255D01*
X5629656Y-7900670D01*
X5645150Y-7905750D01*
X5681725Y-7905750D01*
X5522722Y-7796784D02*
G01*
X5574538Y-7869428D01*
X5496559Y-7869428D01*
X5522722Y-7796784D02*
G01*
X5522722Y-7905750D01*
X7404100Y-7809484D02*
G01*
X7404100Y-7918450D01*
X7404100Y-7918450D02*
G01*
X7341870Y-7918450D01*
X7307579Y-7809484D02*
G01*
X7307579Y-7918450D01*
X7307579Y-7809484D02*
G01*
X7240015Y-7809484D01*
X7307579Y-7861300D02*
G01*
X7265924Y-7861300D01*
X7307579Y-7918450D02*
G01*
X7240015Y-7918450D01*
X7205725Y-7809484D02*
G01*
X7205725Y-7918450D01*
X7205725Y-7809484D02*
G01*
X7169150Y-7809484D01*
X7153656Y-7814563D01*
X7143241Y-7824978D01*
X7138161Y-7835392D01*
X7132827Y-7851139D01*
X7132827Y-7877047D01*
X7138161Y-7892542D01*
X7143241Y-7902955D01*
X7153656Y-7913370D01*
X7169150Y-7918450D01*
X7205725Y-7918450D01*
X7036308Y-7809484D02*
G01*
X7088124Y-7809484D01*
X7093458Y-7856220D01*
X7088124Y-7851139D01*
X7072629Y-7845805D01*
X7057136Y-7845805D01*
X7041388Y-7851139D01*
X7030974Y-7861300D01*
X7025893Y-7877047D01*
X7025893Y-7887462D01*
X7030974Y-7902955D01*
X7041388Y-7913370D01*
X7057136Y-7918450D01*
X7072629Y-7918450D01*
X7088124Y-7913370D01*
X7093458Y-7908289D01*
X7098538Y-7897876D01*
X8839200Y-7784084D02*
G01*
X8839200Y-7893050D01*
X8839200Y-7893050D02*
G01*
X8776970Y-7893050D01*
X8742679Y-7784084D02*
G01*
X8742679Y-7893050D01*
X8742679Y-7784084D02*
G01*
X8675115Y-7784084D01*
X8742679Y-7835900D02*
G01*
X8701024Y-7835900D01*
X8742679Y-7893050D02*
G01*
X8675115Y-7893050D01*
X8640825Y-7784084D02*
G01*
X8640825Y-7893050D01*
X8640825Y-7784084D02*
G01*
X8604250Y-7784084D01*
X8588756Y-7789163D01*
X8578341Y-7799578D01*
X8573261Y-7809992D01*
X8567927Y-7825739D01*
X8567927Y-7851647D01*
X8573261Y-7867142D01*
X8578341Y-7877555D01*
X8588756Y-7887970D01*
X8604250Y-7893050D01*
X8640825Y-7893050D01*
X8471408Y-7799578D02*
G01*
X8476488Y-7789163D01*
X8492236Y-7784084D01*
X8502650Y-7784084D01*
X8518143Y-7789163D01*
X8528558Y-7804912D01*
X8533638Y-7830820D01*
X8533638Y-7856728D01*
X8528558Y-7877555D01*
X8518143Y-7887970D01*
X8502650Y-7893050D01*
X8497315Y-7893050D01*
X8481822Y-7887970D01*
X8471408Y-7877555D01*
X8466074Y-7862062D01*
X8466074Y-7856728D01*
X8471408Y-7841234D01*
X8481822Y-7830820D01*
X8497315Y-7825739D01*
X8502650Y-7825739D01*
X8518143Y-7830820D01*
X8528558Y-7841234D01*
X8533638Y-7856728D01*
X1778000Y-4393184D02*
G01*
X1778000Y-4502150D01*
X1778000Y-4393184D02*
G01*
X1731263Y-4393184D01*
X1715770Y-4398263D01*
X1710436Y-4403597D01*
X1705355Y-4414012D01*
X1705355Y-4429505D01*
X1710436Y-4439920D01*
X1715770Y-4445000D01*
X1731263Y-4450334D01*
X1778000Y-4450334D01*
X1634489Y-4393184D02*
G01*
X1634489Y-4502150D01*
X1671065Y-4393184D02*
G01*
X1598168Y-4393184D01*
X1563878Y-4455413D02*
G01*
X1470405Y-4455413D01*
X1436115Y-4393184D02*
G01*
X1436115Y-4502150D01*
X1436115Y-4393184D02*
G01*
X1389379Y-4393184D01*
X1373886Y-4398263D01*
X1368552Y-4403597D01*
X1363471Y-4414012D01*
X1363471Y-4429505D01*
X1368552Y-4439920D01*
X1373886Y-4445000D01*
X1389379Y-4450334D01*
X1436115Y-4450334D01*
X1287526Y-4393184D02*
G01*
X1329181Y-4502150D01*
X1287526Y-4393184D02*
G01*
X1245870Y-4502150D01*
X1313434Y-4465828D02*
G01*
X1261618Y-4465828D01*
X1211579Y-4393184D02*
G01*
X1211579Y-4502150D01*
X1211579Y-4393184D02*
G01*
X1164844Y-4393184D01*
X1149350Y-4398263D01*
X1144270Y-4403597D01*
X1138936Y-4414012D01*
X1138936Y-4424426D01*
X1144270Y-4434839D01*
X1149350Y-4439920D01*
X1164844Y-4445000D01*
X1211579Y-4445000D01*
X1175257Y-4445000D02*
G01*
X1138936Y-4502150D01*
X1104645Y-4414012D02*
G01*
X1094231Y-4408678D01*
X1078737Y-4393184D01*
X1078737Y-4502150D01*
X3644900Y-4380484D02*
G01*
X3644900Y-4489450D01*
X3644900Y-4380484D02*
G01*
X3598163Y-4380484D01*
X3582670Y-4385563D01*
X3577336Y-4390897D01*
X3572256Y-4401312D01*
X3572256Y-4416805D01*
X3577336Y-4427220D01*
X3582670Y-4432300D01*
X3598163Y-4437634D01*
X3644900Y-4437634D01*
X3501390Y-4380484D02*
G01*
X3501390Y-4489450D01*
X3537965Y-4380484D02*
G01*
X3465068Y-4380484D01*
X3430777Y-4442713D02*
G01*
X3337306Y-4442713D01*
X3303015Y-4380484D02*
G01*
X3303015Y-4489450D01*
X3303015Y-4380484D02*
G01*
X3256279Y-4380484D01*
X3240786Y-4385563D01*
X3235452Y-4390897D01*
X3230372Y-4401312D01*
X3230372Y-4416805D01*
X3235452Y-4427220D01*
X3240786Y-4432300D01*
X3256279Y-4437634D01*
X3303015Y-4437634D01*
X3154425Y-4380484D02*
G01*
X3196081Y-4489450D01*
X3154425Y-4380484D02*
G01*
X3112770Y-4489450D01*
X3180334Y-4453128D02*
G01*
X3128518Y-4453128D01*
X3078479Y-4380484D02*
G01*
X3078479Y-4489450D01*
X3078479Y-4380484D02*
G01*
X3031743Y-4380484D01*
X3016250Y-4385563D01*
X3011170Y-4390897D01*
X3005836Y-4401312D01*
X3005836Y-4411726D01*
X3011170Y-4422139D01*
X3016250Y-4427220D01*
X3031743Y-4432300D01*
X3078479Y-4432300D01*
X3042158Y-4432300D02*
G01*
X3005836Y-4489450D01*
X2966465Y-4406392D02*
G01*
X2966465Y-4401312D01*
X2961131Y-4390897D01*
X2956052Y-4385563D01*
X2945638Y-4380484D01*
X2924809Y-4380484D01*
X2914395Y-4385563D01*
X2909315Y-4390897D01*
X2903981Y-4401312D01*
X2903981Y-4411726D01*
X2909315Y-4422139D01*
X2919729Y-4437634D01*
X2971545Y-4489450D01*
X2898902Y-4489450D01*
X5854700Y-4393184D02*
G01*
X5854700Y-4502150D01*
X5854700Y-4393184D02*
G01*
X5807963Y-4393184D01*
X5792470Y-4398263D01*
X5787136Y-4403597D01*
X5782056Y-4414012D01*
X5782056Y-4429505D01*
X5787136Y-4439920D01*
X5792470Y-4445000D01*
X5807963Y-4450334D01*
X5854700Y-4450334D01*
X5711190Y-4393184D02*
G01*
X5711190Y-4502150D01*
X5747765Y-4393184D02*
G01*
X5674868Y-4393184D01*
X5640577Y-4455413D02*
G01*
X5547106Y-4455413D01*
X5512815Y-4393184D02*
G01*
X5512815Y-4502150D01*
X5512815Y-4393184D02*
G01*
X5466079Y-4393184D01*
X5450586Y-4398263D01*
X5445252Y-4403597D01*
X5440172Y-4414012D01*
X5440172Y-4429505D01*
X5445252Y-4439920D01*
X5450586Y-4445000D01*
X5466079Y-4450334D01*
X5512815Y-4450334D01*
X5364225Y-4393184D02*
G01*
X5405881Y-4502150D01*
X5364225Y-4393184D02*
G01*
X5322570Y-4502150D01*
X5390134Y-4465828D02*
G01*
X5338318Y-4465828D01*
X5288279Y-4393184D02*
G01*
X5288279Y-4502150D01*
X5288279Y-4393184D02*
G01*
X5241543Y-4393184D01*
X5226050Y-4398263D01*
X5220970Y-4403597D01*
X5215636Y-4414012D01*
X5215636Y-4424426D01*
X5220970Y-4434839D01*
X5226050Y-4439920D01*
X5241543Y-4445000D01*
X5288279Y-4445000D01*
X5251958Y-4445000D02*
G01*
X5215636Y-4502150D01*
X5170931Y-4393184D02*
G01*
X5113781Y-4393184D01*
X5145024Y-4434839D01*
X5129529Y-4434839D01*
X5119115Y-4439920D01*
X5113781Y-4445000D01*
X5108702Y-4460747D01*
X5108702Y-4471162D01*
X5113781Y-4486655D01*
X5124195Y-4497070D01*
X5139690Y-4502150D01*
X5155438Y-4502150D01*
X5170931Y-4497070D01*
X5176265Y-4491989D01*
X5181345Y-4481576D01*
X8013700Y-4418584D02*
G01*
X8013700Y-4527550D01*
X8013700Y-4418584D02*
G01*
X7966963Y-4418584D01*
X7951470Y-4423663D01*
X7946136Y-4428997D01*
X7941056Y-4439412D01*
X7941056Y-4454905D01*
X7946136Y-4465320D01*
X7951470Y-4470400D01*
X7966963Y-4475734D01*
X8013700Y-4475734D01*
X7870190Y-4418584D02*
G01*
X7870190Y-4527550D01*
X7906765Y-4418584D02*
G01*
X7833868Y-4418584D01*
X7799577Y-4480813D02*
G01*
X7706106Y-4480813D01*
X7671815Y-4418584D02*
G01*
X7671815Y-4527550D01*
X7671815Y-4418584D02*
G01*
X7625079Y-4418584D01*
X7609586Y-4423663D01*
X7604252Y-4428997D01*
X7599172Y-4439412D01*
X7599172Y-4454905D01*
X7604252Y-4465320D01*
X7609586Y-4470400D01*
X7625079Y-4475734D01*
X7671815Y-4475734D01*
X7523225Y-4418584D02*
G01*
X7564881Y-4527550D01*
X7523225Y-4418584D02*
G01*
X7481570Y-4527550D01*
X7549134Y-4491228D02*
G01*
X7497318Y-4491228D01*
X7447279Y-4418584D02*
G01*
X7447279Y-4527550D01*
X7447279Y-4418584D02*
G01*
X7400543Y-4418584D01*
X7385050Y-4423663D01*
X7379970Y-4428997D01*
X7374636Y-4439412D01*
X7374636Y-4449826D01*
X7379970Y-4460239D01*
X7385050Y-4465320D01*
X7400543Y-4470400D01*
X7447279Y-4470400D01*
X7410958Y-4470400D02*
G01*
X7374636Y-4527550D01*
X7288529Y-4418584D02*
G01*
X7340345Y-4491228D01*
X7262368Y-4491228D01*
X7288529Y-4418584D02*
G01*
X7288529Y-4527550D01*
X1845055Y-573278D02*
G01*
X1855470Y-562863D01*
X1870963Y-557784D01*
X1891792Y-557784D01*
X1907286Y-562863D01*
X1917700Y-573278D01*
X1917700Y-583692D01*
X1912620Y-594105D01*
X1907286Y-599439D01*
X1896871Y-604520D01*
X1865629Y-614934D01*
X1855470Y-620013D01*
X1850136Y-625347D01*
X1845055Y-635762D01*
X1845055Y-651255D01*
X1855470Y-661670D01*
X1870963Y-666750D01*
X1891792Y-666750D01*
X1907286Y-661670D01*
X1917700Y-651255D01*
X1810765Y-557784D02*
G01*
X1784604Y-666750D01*
X1758695Y-557784D02*
G01*
X1784604Y-666750D01*
X1758695Y-557784D02*
G01*
X1732787Y-666750D01*
X1706879Y-557784D02*
G01*
X1732787Y-666750D01*
X1672589Y-578612D02*
G01*
X1662176Y-573278D01*
X1646428Y-557784D01*
X1646428Y-666750D01*
X7039356Y-560578D02*
G01*
X7049770Y-550163D01*
X7065263Y-545084D01*
X7086091Y-545084D01*
X7101586Y-550163D01*
X7112000Y-560578D01*
X7112000Y-570992D01*
X7106920Y-581405D01*
X7101586Y-586739D01*
X7091172Y-591820D01*
X7059929Y-602234D01*
X7049770Y-607313D01*
X7044436Y-612647D01*
X7039356Y-623062D01*
X7039356Y-638555D01*
X7049770Y-648970D01*
X7065263Y-654050D01*
X7086091Y-654050D01*
X7101586Y-648970D01*
X7112000Y-638555D01*
X7005065Y-545084D02*
G01*
X6978904Y-654050D01*
X6952995Y-545084D02*
G01*
X6978904Y-654050D01*
X6952995Y-545084D02*
G01*
X6927088Y-654050D01*
X6901179Y-545084D02*
G01*
X6927088Y-654050D01*
X6861556Y-570992D02*
G01*
X6861556Y-565912D01*
X6856475Y-555497D01*
X6851141Y-550163D01*
X6840727Y-545084D01*
X6819900Y-545084D01*
X6809740Y-550163D01*
X6804406Y-555497D01*
X6799325Y-565912D01*
X6799325Y-576326D01*
X6804406Y-586739D01*
X6814820Y-602234D01*
X6866890Y-654050D01*
X6793991Y-654050D01*
X430021Y-6362192D02*
G01*
X435355Y-6351778D01*
X445770Y-6341363D01*
X455929Y-6336284D01*
X476757Y-6336284D01*
X487171Y-6341363D01*
X497586Y-6351778D01*
X502920Y-6362192D01*
X508000Y-6377939D01*
X508000Y-6403847D01*
X502920Y-6419342D01*
X497586Y-6429755D01*
X487171Y-6440170D01*
X476757Y-6445250D01*
X455929Y-6445250D01*
X445770Y-6440170D01*
X435355Y-6429755D01*
X430021Y-6419342D01*
X395731Y-6336284D02*
G01*
X354329Y-6445250D01*
X312673Y-6336284D02*
G01*
X354329Y-6445250D01*
X278384Y-6357112D02*
G01*
X267970Y-6351778D01*
X252476Y-6336284D01*
X252476Y-6445250D01*
X8304022Y-6362192D02*
G01*
X8309356Y-6351778D01*
X8319770Y-6341363D01*
X8329929Y-6336284D01*
X8350758Y-6336284D01*
X8361172Y-6341363D01*
X8371586Y-6351778D01*
X8376920Y-6362192D01*
X8382000Y-6377939D01*
X8382000Y-6403847D01*
X8376920Y-6419342D01*
X8371586Y-6429755D01*
X8361172Y-6440170D01*
X8350758Y-6445250D01*
X8329929Y-6445250D01*
X8319770Y-6440170D01*
X8309356Y-6429755D01*
X8304022Y-6419342D01*
X8269731Y-6336284D02*
G01*
X8228329Y-6445250D01*
X8186674Y-6336284D02*
G01*
X8228329Y-6445250D01*
X8147050Y-6362192D02*
G01*
X8147050Y-6357112D01*
X8141970Y-6346697D01*
X8136890Y-6341363D01*
X8126475Y-6336284D01*
X8105647Y-6336284D01*
X8095234Y-6341363D01*
X8089900Y-6346697D01*
X8084820Y-6357112D01*
X8084820Y-6367526D01*
X8089900Y-6377939D01*
X8100313Y-6393434D01*
X8152384Y-6445250D01*
X8079740Y-6445250D01*
X2032000Y-6336284D02*
G01*
X2032000Y-6445250D01*
X1997709Y-6336284D02*
G01*
X1997709Y-6445250D01*
X1997709Y-6336284D02*
G01*
X1925065Y-6445250D01*
X1925065Y-6336284D02*
G01*
X1925065Y-6445250D01*
X1890776Y-6357112D02*
G01*
X1880362Y-6351778D01*
X1864613Y-6336284D01*
X1864613Y-6445250D01*
X3556000Y-6336284D02*
G01*
X3556000Y-6445250D01*
X3521709Y-6336284D02*
G01*
X3521709Y-6445250D01*
X3521709Y-6336284D02*
G01*
X3449065Y-6445250D01*
X3449065Y-6336284D02*
G01*
X3449065Y-6445250D01*
X3409441Y-6362192D02*
G01*
X3409441Y-6357112D01*
X3404361Y-6346697D01*
X3399027Y-6341363D01*
X3388613Y-6336284D01*
X3368040Y-6336284D01*
X3357625Y-6341363D01*
X3352291Y-6346697D01*
X3347211Y-6357112D01*
X3347211Y-6367526D01*
X3352291Y-6377939D01*
X3362706Y-6393434D01*
X3414775Y-6445250D01*
X3341877Y-6445250D01*
X5334000Y-6336284D02*
G01*
X5334000Y-6445250D01*
X5299709Y-6336284D02*
G01*
X5299709Y-6445250D01*
X5299709Y-6336284D02*
G01*
X5227065Y-6445250D01*
X5227065Y-6336284D02*
G01*
X5227065Y-6445250D01*
X5182361Y-6336284D02*
G01*
X5125211Y-6336284D01*
X5156200Y-6377939D01*
X5140706Y-6377939D01*
X5130291Y-6383020D01*
X5125211Y-6388100D01*
X5119877Y-6403847D01*
X5119877Y-6414262D01*
X5125211Y-6429755D01*
X5135625Y-6440170D01*
X5151120Y-6445250D01*
X5166613Y-6445250D01*
X5182361Y-6440170D01*
X5187441Y-6435089D01*
X5192775Y-6424676D01*
X6858000Y-6336284D02*
G01*
X6858000Y-6445250D01*
X6823709Y-6336284D02*
G01*
X6823709Y-6445250D01*
X6823709Y-6336284D02*
G01*
X6751065Y-6445250D01*
X6751065Y-6336284D02*
G01*
X6751065Y-6445250D01*
X6664706Y-6336284D02*
G01*
X6716775Y-6408928D01*
X6638797Y-6408928D01*
X6664706Y-6336284D02*
G01*
X6664706Y-6445250D01*
X8528558Y-8380984D02*
G01*
X8538972Y-8386063D01*
X8549386Y-8396478D01*
X8554720Y-8406892D01*
X8559800Y-8422639D01*
X8559800Y-8448547D01*
X8554720Y-8464042D01*
X8549386Y-8474455D01*
X8538972Y-8484870D01*
X8528558Y-8489950D01*
X8507729Y-8489950D01*
X8497570Y-8484870D01*
X8487156Y-8474455D01*
X8481822Y-8464042D01*
X8476741Y-8448547D01*
X8476741Y-8422639D01*
X8481822Y-8406892D01*
X8487156Y-8396478D01*
X8497570Y-8386063D01*
X8507729Y-8380984D01*
X8528558Y-8380984D01*
X8442452Y-8380984D02*
G01*
X8442452Y-8458962D01*
X8437118Y-8474455D01*
X8426704Y-8484870D01*
X8411209Y-8489950D01*
X8400795Y-8489950D01*
X8385302Y-8484870D01*
X8374888Y-8474455D01*
X8369554Y-8458962D01*
X8369554Y-8380984D01*
X8298941Y-8380984D02*
G01*
X8298941Y-8489950D01*
X8335263Y-8380984D02*
G01*
X8262620Y-8380984D01*
X8228329Y-8526526D02*
G01*
X8134858Y-8526526D01*
X8038084Y-8380984D02*
G01*
X8090154Y-8380984D01*
X8095234Y-8427720D01*
X8090154Y-8422639D01*
X8074659Y-8417305D01*
X8058911Y-8417305D01*
X8043418Y-8422639D01*
X8033004Y-8432800D01*
X8027670Y-8448547D01*
X8027670Y-8458962D01*
X8033004Y-8474455D01*
X8043418Y-8484870D01*
X8058911Y-8489950D01*
X8074659Y-8489950D01*
X8090154Y-8484870D01*
X8095234Y-8479789D01*
X8100568Y-8469376D01*
X7017258Y-8380984D02*
G01*
X7027672Y-8386063D01*
X7038086Y-8396478D01*
X7043420Y-8406892D01*
X7048500Y-8422639D01*
X7048500Y-8448547D01*
X7043420Y-8464042D01*
X7038086Y-8474455D01*
X7027672Y-8484870D01*
X7017258Y-8489950D01*
X6996429Y-8489950D01*
X6986270Y-8484870D01*
X6975856Y-8474455D01*
X6970522Y-8464042D01*
X6965441Y-8448547D01*
X6965441Y-8422639D01*
X6970522Y-8406892D01*
X6975856Y-8396478D01*
X6986270Y-8386063D01*
X6996429Y-8380984D01*
X7017258Y-8380984D01*
X6931152Y-8380984D02*
G01*
X6931152Y-8458962D01*
X6925818Y-8474455D01*
X6915404Y-8484870D01*
X6899909Y-8489950D01*
X6889495Y-8489950D01*
X6874002Y-8484870D01*
X6863588Y-8474455D01*
X6858254Y-8458962D01*
X6858254Y-8380984D01*
X6787641Y-8380984D02*
G01*
X6787641Y-8489950D01*
X6823963Y-8380984D02*
G01*
X6751320Y-8380984D01*
X6717029Y-8526526D02*
G01*
X6623558Y-8526526D01*
X6526784Y-8396478D02*
G01*
X6532118Y-8386063D01*
X6547611Y-8380984D01*
X6558025Y-8380984D01*
X6573520Y-8386063D01*
X6583934Y-8401812D01*
X6589268Y-8427720D01*
X6589268Y-8453628D01*
X6583934Y-8474455D01*
X6573520Y-8484870D01*
X6558025Y-8489950D01*
X6552945Y-8489950D01*
X6537197Y-8484870D01*
X6526784Y-8474455D01*
X6521704Y-8458962D01*
X6521704Y-8453628D01*
X6526784Y-8438134D01*
X6537197Y-8427720D01*
X6552945Y-8422639D01*
X6558025Y-8422639D01*
X6573520Y-8427720D01*
X6583934Y-8438134D01*
X6589268Y-8453628D01*
X2095500Y-3694684D02*
G01*
X2095500Y-3803650D01*
X2095500Y-3694684D02*
G01*
X2048763Y-3694684D01*
X2033270Y-3699763D01*
X2027936Y-3705097D01*
X2022856Y-3715512D01*
X2022856Y-3731005D01*
X2027936Y-3741420D01*
X2033270Y-3746500D01*
X2048763Y-3751834D01*
X2095500Y-3751834D01*
X1951990Y-3694684D02*
G01*
X1951990Y-3803650D01*
X1988565Y-3694684D02*
G01*
X1915668Y-3694684D01*
X1881378Y-3756913D02*
G01*
X1787905Y-3756913D01*
X1675637Y-3720592D02*
G01*
X1680971Y-3710178D01*
X1691386Y-3699763D01*
X1701800Y-3694684D01*
X1722373Y-3694684D01*
X1732787Y-3699763D01*
X1743202Y-3710178D01*
X1748536Y-3720592D01*
X1753615Y-3736339D01*
X1753615Y-3762247D01*
X1748536Y-3777742D01*
X1743202Y-3788155D01*
X1732787Y-3798570D01*
X1722373Y-3803650D01*
X1701800Y-3803650D01*
X1691386Y-3798570D01*
X1680971Y-3788155D01*
X1675637Y-3777742D01*
X1641347Y-3694684D02*
G01*
X1599945Y-3803650D01*
X1558289Y-3694684D02*
G01*
X1599945Y-3803650D01*
X1524000Y-3715512D02*
G01*
X1513586Y-3710178D01*
X1498092Y-3694684D01*
X1498092Y-3803650D01*
X7493000Y-3694684D02*
G01*
X7493000Y-3803650D01*
X7493000Y-3694684D02*
G01*
X7446263Y-3694684D01*
X7430770Y-3699763D01*
X7425436Y-3705097D01*
X7420356Y-3715512D01*
X7420356Y-3731005D01*
X7425436Y-3741420D01*
X7430770Y-3746500D01*
X7446263Y-3751834D01*
X7493000Y-3751834D01*
X7349490Y-3694684D02*
G01*
X7349490Y-3803650D01*
X7386065Y-3694684D02*
G01*
X7313168Y-3694684D01*
X7278877Y-3756913D02*
G01*
X7185406Y-3756913D01*
X7073138Y-3720592D02*
G01*
X7078472Y-3710178D01*
X7088886Y-3699763D01*
X7099300Y-3694684D01*
X7119874Y-3694684D01*
X7130288Y-3699763D01*
X7140702Y-3710178D01*
X7146036Y-3720592D01*
X7151115Y-3736339D01*
X7151115Y-3762247D01*
X7146036Y-3777742D01*
X7140702Y-3788155D01*
X7130288Y-3798570D01*
X7119874Y-3803650D01*
X7099300Y-3803650D01*
X7088886Y-3798570D01*
X7078472Y-3788155D01*
X7073138Y-3777742D01*
X7038847Y-3694684D02*
G01*
X6997445Y-3803650D01*
X6955790Y-3694684D02*
G01*
X6997445Y-3803650D01*
X6916420Y-3720592D02*
G01*
X6916420Y-3715512D01*
X6911086Y-3705097D01*
X6906006Y-3699763D01*
X6895591Y-3694684D01*
X6874763Y-3694684D01*
X6864350Y-3699763D01*
X6859270Y-3705097D01*
X6853936Y-3715512D01*
X6853936Y-3725926D01*
X6859270Y-3736339D01*
X6869429Y-3751834D01*
X6921500Y-3803650D01*
X6848856Y-3803650D01*
X4445000Y-468884D02*
G01*
X4445000Y-546862D01*
X4439920Y-562355D01*
X4429506Y-572770D01*
X4413758Y-577850D01*
X4403343Y-577850D01*
X4387850Y-572770D01*
X4377436Y-562355D01*
X4372356Y-546862D01*
X4372356Y-468884D01*
X4327652Y-468884D02*
G01*
X4270502Y-468884D01*
X4301490Y-510539D01*
X4285995Y-510539D01*
X4275581Y-515620D01*
X4270502Y-520700D01*
X4265168Y-536447D01*
X4265168Y-546862D01*
X4270502Y-562355D01*
X4280915Y-572770D01*
X4296409Y-577850D01*
X4311904Y-577850D01*
X4327652Y-572770D01*
X4332731Y-567689D01*
X4338065Y-557276D01*
D12*
X4999227Y-911857D02*
G01*
X5003545Y-902713D01*
X5012690Y-893569D01*
X5021834Y-888997D01*
X5040122Y-888997D01*
X5049011Y-893569D01*
X5058156Y-902713D01*
X5062727Y-911857D01*
X5067300Y-925319D01*
X5067300Y-948179D01*
X5062727Y-961895D01*
X5058156Y-970785D01*
X5049011Y-979929D01*
X5040122Y-984501D01*
X5021834Y-984501D01*
X5012690Y-979929D01*
X5003545Y-970785D01*
X4999227Y-961895D01*
X4999227Y-948179D01*
X5021834Y-948179D02*
G01*
X4999227Y-948179D01*
X4969002Y-888997D02*
G01*
X4969002Y-984501D01*
X4969002Y-888997D02*
G01*
X4905502Y-984501D01*
X4905502Y-888997D02*
G01*
X4905502Y-984501D01*
X4875529Y-888997D02*
G01*
X4875529Y-984501D01*
X4875529Y-888997D02*
G01*
X4843779Y-888997D01*
X4830063Y-893569D01*
X4820920Y-902713D01*
X4816347Y-911857D01*
X4811775Y-925319D01*
X4811775Y-948179D01*
X4816347Y-961895D01*
X4820920Y-970785D01*
X4830063Y-979929D01*
X4843779Y-984501D01*
X4875529Y-984501D01*
X4711954Y-888997D02*
G01*
X4675377Y-984501D01*
X4639056Y-888997D02*
G01*
X4675377Y-984501D01*
X4554474Y-934463D02*
G01*
X4563618Y-925319D01*
X4572761Y-921001D01*
X4586477Y-921001D01*
X4595368Y-925319D01*
X4604511Y-934463D01*
X4609084Y-948179D01*
X4609084Y-957323D01*
X4604511Y-970785D01*
X4595368Y-979929D01*
X4586477Y-984501D01*
X4572761Y-984501D01*
X4563618Y-979929D01*
X4554474Y-970785D01*
X4470145Y-934463D02*
G01*
X4479036Y-925319D01*
X4488179Y-921001D01*
X4501895Y-921001D01*
X4511040Y-925319D01*
X4519929Y-934463D01*
X4524502Y-948179D01*
X4524502Y-957323D01*
X4519929Y-970785D01*
X4511040Y-979929D01*
X4501895Y-984501D01*
X4488179Y-984501D01*
X4479036Y-979929D01*
X4470145Y-970785D01*
X4306315Y-902713D02*
G01*
X4315459Y-893569D01*
X4329175Y-888997D01*
X4347209Y-888997D01*
X4360925Y-893569D01*
X4370070Y-902713D01*
X4370070Y-911857D01*
X4365497Y-921001D01*
X4360925Y-925319D01*
X4351781Y-929891D01*
X4324604Y-939035D01*
X4315459Y-943607D01*
X4310888Y-948179D01*
X4306315Y-957323D01*
X4306315Y-970785D01*
X4315459Y-979929D01*
X4329175Y-984501D01*
X4347209Y-984501D01*
X4360925Y-979929D01*
X4370070Y-970785D01*
X4208272Y-911857D02*
G01*
X4212843Y-902713D01*
X4221734Y-893569D01*
X4230877Y-888997D01*
X4249165Y-888997D01*
X4258309Y-893569D01*
X4267200Y-902713D01*
X4271772Y-911857D01*
X4276343Y-925319D01*
X4276343Y-948179D01*
X4271772Y-961895D01*
X4267200Y-970785D01*
X4258309Y-979929D01*
X4249165Y-984501D01*
X4230877Y-984501D01*
X4221734Y-979929D01*
X4212843Y-970785D01*
X4208272Y-961895D01*
X4178300Y-888997D02*
G01*
X4178300Y-984501D01*
X4178300Y-984501D02*
G01*
X4123690Y-984501D01*
X3960113Y-902713D02*
G01*
X3969004Y-893569D01*
X3982720Y-888997D01*
X4001008Y-888997D01*
X4014470Y-893569D01*
X4023613Y-902713D01*
X4023613Y-911857D01*
X4019041Y-921001D01*
X4014470Y-925319D01*
X4005579Y-929891D01*
X3978147Y-939035D01*
X3969004Y-943607D01*
X3964686Y-948179D01*
X3960113Y-957323D01*
X3960113Y-970785D01*
X3969004Y-979929D01*
X3982720Y-984501D01*
X4001008Y-984501D01*
X4014470Y-979929D01*
X4023613Y-970785D01*
X3930141Y-888997D02*
G01*
X3930141Y-984501D01*
X3930141Y-888997D02*
G01*
X3898138Y-888997D01*
X3884675Y-893569D01*
X3875531Y-902713D01*
X3870959Y-911857D01*
X3866388Y-925319D01*
X3866388Y-948179D01*
X3870959Y-961895D01*
X3875531Y-970785D01*
X3884675Y-979929D01*
X3898138Y-984501D01*
X3930141Y-984501D01*
X3800093Y-888997D02*
G01*
X3836415Y-984501D01*
X3800093Y-888997D02*
G01*
X3763772Y-984501D01*
X3822700Y-952751D02*
G01*
X3777234Y-952751D01*
D13*
X488007Y-9593999D02*
G01*
X488007Y-9813998D01*
X527992Y-9813998D01*
X527992Y-9593988D01*
X357987Y-8543998D02*
G01*
X357987Y-8744000D01*
X658012Y-8744000D01*
X658012Y-8543998D01*
X957988Y-8543998D02*
G01*
X957988Y-9593988D01*
X527992Y-9593988D01*
X58011Y-9593988D01*
X58011Y-8543998D01*
X357987Y-8543998D01*
X658012Y-8543998D01*
X957988Y-8543998D01*
X2012007Y-9593999D02*
G01*
X2012007Y-9813998D01*
X2051992Y-9813998D01*
X2051992Y-9593988D01*
X1881987Y-8543998D02*
G01*
X1881987Y-8744000D01*
X2182012Y-8744000D01*
X2182012Y-8543998D01*
X2481988Y-8543998D02*
G01*
X2481988Y-9593988D01*
X2051992Y-9593988D01*
X1582011Y-9593988D01*
X1582011Y-8543998D01*
X1881987Y-8543998D01*
X2182012Y-8543998D01*
X2481988Y-8543998D01*
X3536007Y-9593999D02*
G01*
X3536007Y-9813998D01*
X3575992Y-9813998D01*
X3575992Y-9593988D01*
X3405987Y-8543998D02*
G01*
X3405987Y-8744000D01*
X3706012Y-8744000D01*
X3706012Y-8543998D01*
X4005988Y-8543998D02*
G01*
X4005988Y-9593988D01*
X3575992Y-9593988D01*
X3106011Y-9593988D01*
X3106011Y-8543998D01*
X3405987Y-8543998D01*
X3706012Y-8543998D01*
X4005988Y-8543998D01*
X5314007Y-9593999D02*
G01*
X5314007Y-9813998D01*
X5353992Y-9813998D01*
X5353992Y-9593988D01*
X5183987Y-8543998D02*
G01*
X5183987Y-8744000D01*
X5484012Y-8744000D01*
X5484012Y-8543998D01*
X5783988Y-8543998D02*
G01*
X5783988Y-9593988D01*
X5353992Y-9593988D01*
X4884011Y-9593988D01*
X4884011Y-8543998D01*
X5183987Y-8543998D01*
X5484012Y-8543998D01*
X5783988Y-8543998D01*
X327080Y-8211352D02*
G01*
X327459Y-8240816D01*
X324954Y-8013512D02*
G01*
X324954Y-8046064D01*
X1851080Y-8211352D02*
G01*
X1851459Y-8240816D01*
X1848954Y-8013512D02*
G01*
X1848954Y-8046064D01*
X3375080Y-8211352D02*
G01*
X3375459Y-8240816D01*
X3372954Y-8013512D02*
G01*
X3372954Y-8046064D01*
X5153080Y-8211352D02*
G01*
X5153459Y-8240816D01*
X5150954Y-8013512D02*
G01*
X5150954Y-8046064D01*
X6677080Y-8211352D02*
G01*
X6677459Y-8240816D01*
X6674954Y-8013512D02*
G01*
X6674954Y-8046064D01*
X8201080Y-8211352D02*
G01*
X8201459Y-8240816D01*
X8198954Y-8013512D02*
G01*
X8198954Y-8046064D01*
X1778000Y-4572000D02*
G01*
X762000Y-4572000D01*
X762000Y-5765800D01*
X1778000Y-5765800D01*
X1778000Y-4572000D01*
X3810000Y-4572000D02*
G01*
X2794000Y-4572000D01*
X2794000Y-5765800D01*
X3810000Y-5765800D01*
X3810000Y-4572000D01*
X6096000Y-4572000D02*
G01*
X5080000Y-4572000D01*
X5080000Y-5765800D01*
X6096000Y-5765800D01*
X6096000Y-4572000D01*
X8128000Y-4572000D02*
G01*
X7112000Y-4572000D01*
X7112000Y-5765800D01*
X8128000Y-5765800D01*
X8128000Y-4572000D01*
X2005431Y-716000D02*
G01*
X1558000Y-716000D01*
X1478000Y-911552D02*
G01*
X1478000Y-1120447D01*
X2077999Y-911552D02*
G01*
X2077999Y-1120447D01*
X2005431Y-1315999D02*
G01*
X1550568Y-1315999D01*
X7339431Y-716000D02*
G01*
X6892000Y-716000D01*
X6812000Y-911552D02*
G01*
X6812000Y-1120447D01*
X7411999Y-911552D02*
G01*
X7411999Y-1120447D01*
X7339431Y-1315999D02*
G01*
X6884568Y-1315999D01*
X488007Y-7561999D02*
G01*
X488007Y-7781998D01*
X527992Y-7781998D01*
X527992Y-7561988D01*
X357987Y-6511998D02*
G01*
X357987Y-6712000D01*
X658012Y-6712000D01*
X658012Y-6511998D01*
X957988Y-6511998D02*
G01*
X957988Y-7561988D01*
X527992Y-7561988D01*
X58011Y-7561988D01*
X58011Y-6511998D01*
X357987Y-6511998D01*
X658012Y-6511998D01*
X957988Y-6511998D01*
X8362007Y-7561999D02*
G01*
X8362007Y-7781998D01*
X8401992Y-7781998D01*
X8401992Y-7561988D01*
X8231987Y-6511998D02*
G01*
X8231987Y-6712000D01*
X8532012Y-6712000D01*
X8532012Y-6511998D01*
X8831988Y-6511998D02*
G01*
X8831988Y-7561988D01*
X8401992Y-7561988D01*
X7932011Y-7561988D01*
X7932011Y-6511998D01*
X8231987Y-6511998D01*
X8532012Y-6511998D01*
X8831988Y-6511998D01*
X2012007Y-7561999D02*
G01*
X2012007Y-7781998D01*
X2051992Y-7781998D01*
X2051992Y-7561988D01*
X1881987Y-6511998D02*
G01*
X1881987Y-6712000D01*
X2182012Y-6712000D01*
X2182012Y-6511998D01*
X2481988Y-6511998D02*
G01*
X2481988Y-7561988D01*
X2051992Y-7561988D01*
X1582011Y-7561988D01*
X1582011Y-6511998D01*
X1881987Y-6511998D01*
X2182012Y-6511998D01*
X2481988Y-6511998D01*
X3536007Y-7561999D02*
G01*
X3536007Y-7781998D01*
X3575992Y-7781998D01*
X3575992Y-7561988D01*
X3405987Y-6511998D02*
G01*
X3405987Y-6712000D01*
X3706012Y-6712000D01*
X3706012Y-6511998D01*
X4005988Y-6511998D02*
G01*
X4005988Y-7561988D01*
X3575992Y-7561988D01*
X3106011Y-7561988D01*
X3106011Y-6511998D01*
X3405987Y-6511998D01*
X3706012Y-6511998D01*
X4005988Y-6511998D01*
X5314007Y-7561999D02*
G01*
X5314007Y-7781998D01*
X5353992Y-7781998D01*
X5353992Y-7561988D01*
X5183987Y-6511998D02*
G01*
X5183987Y-6712000D01*
X5484012Y-6712000D01*
X5484012Y-6511998D01*
X5783988Y-6511998D02*
G01*
X5783988Y-7561988D01*
X5353992Y-7561988D01*
X4884011Y-7561988D01*
X4884011Y-6511998D01*
X5183987Y-6511998D01*
X5484012Y-6511998D01*
X5783988Y-6511998D01*
X6838007Y-7561999D02*
G01*
X6838007Y-7781998D01*
X6877992Y-7781998D01*
X6877992Y-7561988D01*
X6707987Y-6511998D02*
G01*
X6707987Y-6712000D01*
X7008012Y-6712000D01*
X7008012Y-6511998D01*
X7307988Y-6511998D02*
G01*
X7307988Y-7561988D01*
X6877992Y-7561988D01*
X6408011Y-7561988D01*
X6408011Y-6511998D01*
X6707987Y-6511998D01*
X7008012Y-6511998D01*
X7307988Y-6511998D01*
X8362007Y-9593999D02*
G01*
X8362007Y-9813998D01*
X8401992Y-9813998D01*
X8401992Y-9593988D01*
X8231987Y-8543998D02*
G01*
X8231987Y-8744000D01*
X8532012Y-8744000D01*
X8532012Y-8543998D01*
X8831988Y-8543998D02*
G01*
X8831988Y-9593988D01*
X8401992Y-9593988D01*
X7932011Y-9593988D01*
X7932011Y-8543998D01*
X8231987Y-8543998D01*
X8532012Y-8543998D01*
X8831988Y-8543998D01*
X6838007Y-9593999D02*
G01*
X6838007Y-9813998D01*
X6877992Y-9813998D01*
X6877992Y-9593988D01*
X6707987Y-8543998D02*
G01*
X6707987Y-8744000D01*
X7008012Y-8744000D01*
X7008012Y-8543998D01*
X7307988Y-8543998D02*
G01*
X7307988Y-9593988D01*
X6877992Y-9593988D01*
X6408011Y-9593988D01*
X6408011Y-8543998D01*
X6707987Y-8543998D01*
X7008012Y-8543998D01*
X7307988Y-8543998D01*
X2286000Y-2286000D02*
G01*
X1270000Y-2286000D01*
X1270000Y-3479800D01*
X2286000Y-3479800D01*
X2286000Y-2286000D01*
X7620000Y-2286000D02*
G01*
X6604000Y-2286000D01*
X6604000Y-3479800D01*
X7620000Y-3479800D01*
X7620000Y-2286000D01*
X5803900Y-622300D02*
G01*
X3073908Y-622300D01*
X3073908Y-3692296D01*
X5803900Y-3692296D01*
X5803900Y-622300D01*
X5803900Y-1257300D02*
G01*
X3073400Y-1257300D01*
X3073400Y-2806700D01*
X5803900Y-2806700D01*
X5803900Y-1257300D01*
X5143500Y-3390900D02*
G01*
X3746500Y-3390900D01*
X3746500Y-3695700D01*
X5143500Y-3695700D01*
X5143500Y-3390900D01*
G75*
G01*
X824230Y-9144000D02*
G03*
X824230Y-9144762I-316230J-381D01*
G75*
G01*
X777062Y-9144000D02*
G03*
X777062Y-9144660I-269062J-330D01*
G75*
G01*
X2348230Y-9144000D02*
G03*
X2348230Y-9144762I-316230J-381D01*
G75*
G01*
X2301062Y-9144000D02*
G03*
X2301062Y-9144660I-269062J-330D01*
G75*
G01*
X3872230Y-9144000D02*
G03*
X3872230Y-9144762I-316230J-381D01*
G75*
G01*
X3825062Y-9144000D02*
G03*
X3825062Y-9144660I-269062J-330D01*
G75*
G01*
X5650230Y-9144000D02*
G03*
X5650230Y-9144762I-316230J-381D01*
G75*
G01*
X5603062Y-9144000D02*
G03*
X5603062Y-9144660I-269062J-330D01*
G75*
G01*
X387708Y-8038495D02*
G02*
X622595Y-8031310I120291J-89504D01*
G75*
G01*
X625325Y-8221607D02*
G02*
X393136Y-8224609I-117324J93608D01*
G75*
G01*
X324955Y-8013512D02*
G02*
X714411Y-8064698I183044J-114488D01*
G75*
G01*
X711200Y-8191500D02*
G02*
X327459Y-8240817I-203200J63498D01*
G75*
G01*
X1911708Y-8038495D02*
G02*
X2146595Y-8031310I120291J-89504D01*
G75*
G01*
X2149325Y-8221607D02*
G02*
X1917136Y-8224609I-117324J93608D01*
G75*
G01*
X1848955Y-8013512D02*
G02*
X2238411Y-8064698I183044J-114488D01*
G75*
G01*
X2235200Y-8191500D02*
G02*
X1851459Y-8240817I-203200J63498D01*
G75*
G01*
X3435708Y-8038495D02*
G02*
X3670595Y-8031310I120291J-89504D01*
G75*
G01*
X3673325Y-8221607D02*
G02*
X3441136Y-8224609I-117324J93608D01*
G75*
G01*
X3372955Y-8013512D02*
G02*
X3762411Y-8064698I183044J-114488D01*
G75*
G01*
X3759200Y-8191500D02*
G02*
X3375459Y-8240817I-203200J63498D01*
G75*
G01*
X5213708Y-8038495D02*
G02*
X5448595Y-8031310I120291J-89504D01*
G75*
G01*
X5451325Y-8221607D02*
G02*
X5219136Y-8224609I-117324J93608D01*
G75*
G01*
X5150955Y-8013512D02*
G02*
X5540411Y-8064698I183044J-114488D01*
G75*
G01*
X5537200Y-8191500D02*
G02*
X5153459Y-8240817I-203200J63498D01*
G75*
G01*
X6737708Y-8038495D02*
G02*
X6972595Y-8031310I120291J-89504D01*
G75*
G01*
X6975325Y-8221607D02*
G02*
X6743136Y-8224609I-117324J93608D01*
G75*
G01*
X6674955Y-8013512D02*
G02*
X7064411Y-8064698I183044J-114488D01*
G75*
G01*
X7061200Y-8191500D02*
G02*
X6677459Y-8240817I-203200J63498D01*
G75*
G01*
X8261708Y-8038495D02*
G02*
X8496595Y-8031310I120291J-89504D01*
G75*
G01*
X8499325Y-8221607D02*
G02*
X8267136Y-8224609I-117324J93608D01*
G75*
G01*
X8198955Y-8013512D02*
G02*
X8588411Y-8064698I183044J-114488D01*
G75*
G01*
X8585200Y-8191500D02*
G02*
X8201459Y-8240817I-203200J63498D01*
G75*
G01*
X824230Y-7112000D02*
G03*
X824230Y-7112762I-316230J-381D01*
G75*
G01*
X777062Y-7112000D02*
G03*
X777062Y-7112660I-269062J-330D01*
G75*
G01*
X8698230Y-7112000D02*
G03*
X8698230Y-7112762I-316230J-381D01*
G75*
G01*
X8651062Y-7112000D02*
G03*
X8651062Y-7112660I-269062J-330D01*
G75*
G01*
X2348230Y-7112000D02*
G03*
X2348230Y-7112762I-316230J-381D01*
G75*
G01*
X2301062Y-7112000D02*
G03*
X2301062Y-7112660I-269062J-330D01*
G75*
G01*
X3872230Y-7112000D02*
G03*
X3872230Y-7112762I-316230J-381D01*
G75*
G01*
X3825062Y-7112000D02*
G03*
X3825062Y-7112660I-269062J-330D01*
G75*
G01*
X5650230Y-7112000D02*
G03*
X5650230Y-7112762I-316230J-381D01*
G75*
G01*
X5603062Y-7112000D02*
G03*
X5603062Y-7112660I-269062J-330D01*
G75*
G01*
X7174230Y-7112000D02*
G03*
X7174230Y-7112762I-316230J-381D01*
G75*
G01*
X7127062Y-7112000D02*
G03*
X7127062Y-7112660I-269062J-330D01*
G75*
G01*
X8698230Y-9144000D02*
G03*
X8698230Y-9144762I-316230J-381D01*
G75*
G01*
X8651062Y-9144000D02*
G03*
X8651062Y-9144660I-269062J-330D01*
G75*
G01*
X7174230Y-9144000D02*
G03*
X7174230Y-9144762I-316230J-381D01*
G75*
G01*
X7127062Y-9144000D02*
G03*
X7127062Y-9144660I-269062J-330D01*
G75*
G01
X1524000Y-5080000D02*
G03X1524000Y-5080000I-254000J0D01*
G75*
G01
X3556000Y-5080000D02*
G03X3556000Y-5080000I-254000J0D01*
G75*
G01
X5842000Y-5080000D02*
G03X5842000Y-5080000I-254000J0D01*
G75*
G01
X7874000Y-5080000D02*
G03X7874000Y-5080000I-254000J0D01*
G75*
G01
X1857502Y-1011174D02*
G03X1857502Y-1011174I-74930J0D01*
G75*
G01
X1957578Y-1011174D02*
G03X1957578Y-1011174I-175006J0D01*
G75*
G01
X7191502Y-1011174D02*
G03X7191502Y-1011174I-74930J0D01*
G75*
G01
X7291578Y-1011174D02*
G03X7291578Y-1011174I-175006J0D01*
G75*
G01
X2032000Y-2794000D02*
G03X2032000Y-2794000I-254000J0D01*
G75*
G01
X7366000Y-2794000D02*
G03X7366000Y-2794000I-254000J0D01*
M02*
