G04 Layer: TopSolderMaskLayer*
G04 EasyEDA v6.5.14, 2022-08-24 14:40:41*
G04 9da48f2711ed4ad3adc4a7d986b87d78,bf633cf64d8a430dba0ab8f24d4e683d,10*
G04 Gerber Generator version 0.2*
G04 Scale: 100 percent, Rotated: No, Reflected: No *
G04 Dimensions in millimeters *
G04 leading zeros omitted , absolute positions ,4 integer and 5 decimal *
%FSLAX45Y45*%
%MOMM*%

%AMMACRO1*1,1,$1,$2,$3*1,1,$1,$4,$5*1,1,$1,0-$2,0-$3*1,1,$1,0-$4,0-$5*20,1,$1,$2,$3,$4,$5,0*20,1,$1,$4,$5,0-$2,0-$3,0*20,1,$1,0-$2,0-$3,0-$4,0-$5,0*20,1,$1,0-$4,0-$5,$2,$3,0*4,1,4,$2,$3,$4,$5,0-$2,0-$3,0-$4,0-$5,$2,$3,0*%
%ADD10O,1.7999964X0.8999982*%
%ADD11O,1.5999968X0.8999982*%
%ADD12C,1.6256*%
%ADD13C,1.7272*%
%ADD14O,1.651X3.175*%
%ADD15C,2.1016*%
%ADD16MACRO1,0.1016X0.4X-0.45X-0.4X-0.45*%
%ADD17MACRO1,0.1016X-1X-1X-1X1*%
%ADD18MACRO1,0.1016X-0.5X0.375X0.5X0.375*%
%ADD19MACRO1,0.1016X-0.5663X0.6885X-0.5663X-0.6885*%
%ADD20MACRO1,0.1016X0.5663X0.6885X0.5663X-0.6885*%
%ADD21MACRO1,0.1016X-0.6885X-0.5663X0.6885X-0.5663*%
%ADD22MACRO1,0.1016X-0.6885X0.5663X0.6885X0.5663*%
%ADD23MACRO1,0.1016X-0.625X0.35X0.625X0.35*%
%ADD24MACRO1,0.1016X0.35X0.625X0.35X-0.625*%
%ADD25MACRO1,0.1016X0.4032X0.432X0.4032X-0.432*%
%ADD26MACRO1,0.1016X-0.4032X0.432X-0.4032X-0.432*%
%ADD27MACRO1,0.1016X-0.5X0.55X0.5X0.55*%
%ADD28MACRO1,0.1016X-0.432X0.4032X0.432X0.4032*%
%ADD29MACRO1,0.1016X-0.432X-0.4032X0.432X-0.4032*%
%ADD30MACRO1,0.1X-0.85X0.85X0.85X0.85*%
%ADD31C,1.8000*%
%ADD32O,2.0379944X0.5739892*%
%ADD33MACRO1,0.1016X0.55X1.4X0.55X-1.4*%
%ADD34MACRO1,0.1016X-1.4X0.55X1.4X0.55*%
%ADD35MACRO1,0.1016X-0.4X0.45X0.4X0.45*%
%ADD36MACRO1,0.1016X-0.45X-0.4X-0.45X0.4*%
%ADD37MACRO1,0.2032X-0.5X-1.2X-0.5X1.2*%
%ADD38MACRO1,0.1016X0.45X0.4X0.45X-0.4*%
%ADD39MACRO1,0.2032X1.2X-0.5X-1.2X-0.5*%
%ADD40MACRO1,0.2032X-1.2X0.5X1.2X0.5*%
%ADD41MACRO1,0.1016X-0.55X0.5X0.55X0.5*%
%ADD42MACRO1,0.1016X0.375X0.5X0.375X-0.5*%
%ADD43MACRO1,0.1016X0.55X0.5X0.55X-0.5*%
%ADD44MACRO1,0.1016X0.432X-0.4032X-0.432X-0.4032*%
%ADD45MACRO1,0.1016X0.432X0.4032X-0.432X0.4032*%
%ADD46MACRO1,0.1016X-0.55X-0.5X-0.55X0.5*%
%ADD47MACRO1,0.1016X-0.4032X-0.432X-0.4032X0.432*%
%ADD48MACRO1,0.1016X0.4032X-0.432X0.4032X0.432*%
%ADD49MACRO1,0.1016X0.5X-0.55X-0.5X-0.55*%
%ADD50O,1.950212X0.5684012*%
%ADD51O,1.7314926000000002X0.3430016*%
%ADD52MACRO1,0.1016X-0.762X-0.762X-0.762X0.762*%
%ADD53MACRO1,0.1016X0.55X1.25X0.55X-1.25*%
%ADD54MACRO1,0.1016X1.8X-1.17X-1.8X-1.17*%
%ADD55MACRO1,0.1016X0.266X0.5188X-0.266X0.5188*%
%ADD56MACRO1,0.1X0.85X-0.85X-0.85X-0.85*%
%ADD57MACRO1,0.1016X0.85X0.2X0.85X-0.2*%
%ADD58MACRO1,0.1016X0.762X0.762X0.762X-0.762*%
%ADD59C,0.0177*%

%LPD*%
D10*
G01*
X508000Y-8644001D03*
G01*
X508000Y-9493986D03*
D11*
G01*
X508000Y-9794011D03*
D10*
G01*
X2032000Y-8644001D03*
G01*
X2032000Y-9493986D03*
D11*
G01*
X2032000Y-9794011D03*
D10*
G01*
X3556000Y-8644001D03*
G01*
X3556000Y-9493986D03*
D11*
G01*
X3556000Y-9794011D03*
D10*
G01*
X5334000Y-8644001D03*
G01*
X5334000Y-9493986D03*
D11*
G01*
X5334000Y-9794011D03*
D12*
G01*
X635000Y-8128000D03*
G01*
X381000Y-8128000D03*
G01*
X2159000Y-8128000D03*
G01*
X1905000Y-8128000D03*
G01*
X3683000Y-8128000D03*
G01*
X3429000Y-8128000D03*
G01*
X5461000Y-8128000D03*
G01*
X5207000Y-8128000D03*
G01*
X6985000Y-8128000D03*
G01*
X6731000Y-8128000D03*
G01*
X8509000Y-8128000D03*
G01*
X8255000Y-8128000D03*
D13*
G01*
X1524000Y-5842000D03*
D12*
G01*
X1270000Y-5842000D03*
G01*
X1016000Y-5842000D03*
D14*
G01*
X762000Y-5080000D03*
G01*
X1778000Y-5080000D03*
D13*
G01*
X3556000Y-5842000D03*
D12*
G01*
X3302000Y-5842000D03*
G01*
X3048000Y-5842000D03*
D14*
G01*
X2794000Y-5080000D03*
G01*
X3810000Y-5080000D03*
D13*
G01*
X5842000Y-5842000D03*
D12*
G01*
X5588000Y-5842000D03*
G01*
X5334000Y-5842000D03*
D14*
G01*
X5080000Y-5080000D03*
G01*
X6096000Y-5080000D03*
D13*
G01*
X7874000Y-5842000D03*
D12*
G01*
X7620000Y-5842000D03*
G01*
X7366000Y-5842000D03*
D14*
G01*
X7112000Y-5080000D03*
G01*
X8128000Y-5080000D03*
D15*
G01*
X2102993Y-1240993D03*
G01*
X1453006Y-1240993D03*
G01*
X1453006Y-791006D03*
G01*
X2102993Y-791006D03*
G01*
X7436993Y-1240993D03*
G01*
X6787006Y-1240993D03*
G01*
X6787006Y-791006D03*
G01*
X7436993Y-791006D03*
D10*
G01*
X508000Y-6612001D03*
G01*
X508000Y-7461986D03*
D11*
G01*
X508000Y-7762011D03*
D10*
G01*
X8382000Y-6612001D03*
G01*
X8382000Y-7461986D03*
D11*
G01*
X8382000Y-7762011D03*
D10*
G01*
X2032000Y-6612001D03*
G01*
X2032000Y-7461986D03*
D11*
G01*
X2032000Y-7762011D03*
D10*
G01*
X3556000Y-6612001D03*
G01*
X3556000Y-7461986D03*
D11*
G01*
X3556000Y-7762011D03*
D10*
G01*
X5334000Y-6612001D03*
G01*
X5334000Y-7461986D03*
D11*
G01*
X5334000Y-7762011D03*
D10*
G01*
X6858000Y-6612001D03*
G01*
X6858000Y-7461986D03*
D11*
G01*
X6858000Y-7762011D03*
D10*
G01*
X8382000Y-8644001D03*
G01*
X8382000Y-9493986D03*
D11*
G01*
X8382000Y-9794011D03*
D10*
G01*
X6858000Y-8644001D03*
G01*
X6858000Y-9493986D03*
D11*
G01*
X6858000Y-9794011D03*
D13*
G01*
X2032000Y-3556000D03*
D12*
G01*
X1778000Y-3556000D03*
G01*
X1524000Y-3556000D03*
D14*
G01*
X1270000Y-2794000D03*
G01*
X2286000Y-2794000D03*
D13*
G01*
X7366000Y-3556000D03*
D12*
G01*
X7112000Y-3556000D03*
G01*
X6858000Y-3556000D03*
D14*
G01*
X6604000Y-2794000D03*
G01*
X7620000Y-2794000D03*
D12*
G01*
X4826000Y-762000D03*
G01*
X4572000Y-762000D03*
G01*
X4318000Y-762000D03*
G01*
X4064000Y-762000D03*
D16*
G01*
X2724000Y-6731000D03*
G01*
X2863999Y-6731000D03*
G01*
X6026000Y-6540500D03*
G01*
X6165999Y-6540500D03*
D15*
G01*
X635000Y-2476500D03*
G01*
X381000Y-2476500D03*
G01*
X635000Y-2730500D03*
G01*
X381000Y-2730500D03*
G01*
X635000Y-2984500D03*
G01*
X381000Y-2984500D03*
G01*
X635000Y-3238500D03*
G01*
X381000Y-3238500D03*
G01*
X635000Y-3492500D03*
G01*
X381000Y-3492500D03*
G01*
X635000Y-3746500D03*
G01*
X381000Y-3746500D03*
G01*
X635000Y-4000500D03*
G01*
X381000Y-4000500D03*
G01*
X635000Y-4254500D03*
D17*
G01*
X381000Y-4254500D03*
D18*
G01*
X7610255Y-2095500D03*
G01*
X7375749Y-2095500D03*
D19*
G01*
X7081626Y-2095503D03*
D20*
G01*
X6888373Y-2095503D03*
D21*
G01*
X8699503Y-4538873D03*
D22*
G01*
X8699503Y-4732126D03*
D23*
G01*
X417499Y-5936996D03*
G01*
X417499Y-5747005D03*
G01*
X217500Y-5842001D03*
D24*
G01*
X7525003Y-6767499D03*
G01*
X7714994Y-6767499D03*
G01*
X7619998Y-6567500D03*
D25*
G01*
X4369675Y-8191500D03*
D26*
G01*
X4520324Y-8191500D03*
D27*
G01*
X2874007Y-8699500D03*
G01*
X2714007Y-8699500D03*
D28*
G01*
X889000Y-8203324D03*
D29*
G01*
X889000Y-8052675D03*
D30*
G01*
X6604000Y-6223000D03*
D31*
G01*
X6858000Y-6223000D03*
G01*
X7112000Y-6223000D03*
D32*
G01*
X4168089Y-8826500D03*
G01*
X4168089Y-8953500D03*
G01*
X4168089Y-9080500D03*
G01*
X4168089Y-9207500D03*
G01*
X4168089Y-9334500D03*
G01*
X4168089Y-9461500D03*
G01*
X4168089Y-9588500D03*
G01*
X4721910Y-8826500D03*
G01*
X4721910Y-8953500D03*
G01*
X4721910Y-9080500D03*
G01*
X4721910Y-9207500D03*
G01*
X4721910Y-9334500D03*
G01*
X4721910Y-9461500D03*
G01*
X4721910Y-9588500D03*
D33*
G01*
X1270001Y-8533447D03*
G01*
X1270001Y-8865552D03*
G01*
X1270001Y-7453947D03*
G01*
X1270001Y-7786052D03*
D34*
G01*
X2627947Y-7810498D03*
G01*
X2960052Y-7810498D03*
G01*
X4278947Y-7810498D03*
G01*
X4611052Y-7810498D03*
D35*
G01*
X387499Y-508000D03*
G01*
X247500Y-508000D03*
D33*
G01*
X6096001Y-8152447D03*
G01*
X6096001Y-8484552D03*
G01*
X7620001Y-8279447D03*
G01*
X7620001Y-8611552D03*
D36*
G01*
X6540500Y-1200000D03*
G01*
X6540500Y-1339999D03*
D37*
G01*
X7937500Y-1260500D03*
G01*
X7937500Y-1660499D03*
D16*
G01*
X5010000Y-3238500D03*
G01*
X5149999Y-3238500D03*
D38*
G01*
X3683000Y-3181499D03*
G01*
X3683000Y-3041500D03*
D39*
G01*
X7928000Y-4254500D03*
G01*
X8327999Y-4254500D03*
D33*
G01*
X8509001Y-1250500D03*
G01*
X8509001Y-1670499D03*
D40*
G01*
X7311999Y-1651000D03*
G01*
X6912000Y-1651000D03*
D35*
G01*
X8642499Y-5334000D03*
G01*
X8502500Y-5334000D03*
D16*
G01*
X4375000Y-6286500D03*
G01*
X4514999Y-6286500D03*
G01*
X6597500Y-5651500D03*
G01*
X6737499Y-5651500D03*
D41*
G01*
X6523494Y-1778000D03*
G01*
X6176505Y-1778000D03*
D42*
G01*
X8699500Y-4308255D03*
G01*
X8699500Y-4073749D03*
D27*
G01*
X1350007Y-8191500D03*
G01*
X1190007Y-8191500D03*
G01*
X1350007Y-7112000D03*
G01*
X1190007Y-7112000D03*
D43*
G01*
X127000Y-8652507D03*
G01*
X127000Y-8492507D03*
D27*
G01*
X1350007Y-9144000D03*
G01*
X1190007Y-9144000D03*
D25*
G01*
X2718675Y-8318500D03*
D26*
G01*
X2869324Y-8318500D03*
D43*
G01*
X190500Y-6366507D03*
G01*
X190500Y-6206507D03*
D28*
G01*
X127000Y-8266824D03*
D29*
G01*
X127000Y-8116175D03*
D25*
G01*
X1194675Y-9461500D03*
D26*
G01*
X1345324Y-9461500D03*
D44*
G01*
X444500Y-6211175D03*
D45*
G01*
X444500Y-6361824D03*
D46*
G01*
X698500Y-6206492D03*
G01*
X698500Y-6366492D03*
D28*
G01*
X127000Y-7885824D03*
D29*
G01*
X127000Y-7735175D03*
D47*
G01*
X1345324Y-9779000D03*
D48*
G01*
X1194675Y-9779000D03*
D27*
G01*
X7700007Y-7556500D03*
G01*
X7540007Y-7556500D03*
G01*
X2874007Y-7366000D03*
G01*
X2714007Y-7366000D03*
D49*
G01*
X4364992Y-7366000D03*
G01*
X4524992Y-7366000D03*
D27*
G01*
X4969507Y-8382000D03*
G01*
X4809507Y-8382000D03*
D28*
G01*
X3937000Y-8266824D03*
D29*
G01*
X3937000Y-8116175D03*
D44*
G01*
X5715000Y-8116175D03*
D45*
G01*
X5715000Y-8266824D03*
D25*
G01*
X7544675Y-7302500D03*
D26*
G01*
X7695324Y-7302500D03*
D49*
G01*
X7539992Y-7048500D03*
G01*
X7699992Y-7048500D03*
D25*
G01*
X2718675Y-9017000D03*
D26*
G01*
X2869324Y-9017000D03*
D47*
G01*
X4520324Y-8509000D03*
D48*
G01*
X4369675Y-8509000D03*
D47*
G01*
X2869324Y-9334500D03*
D48*
G01*
X2718675Y-9334500D03*
D49*
G01*
X237492Y-1079500D03*
G01*
X397492Y-1079500D03*
D27*
G01*
X397507Y-762000D03*
G01*
X237507Y-762000D03*
D47*
G01*
X7695324Y-9080500D03*
D48*
G01*
X7544675Y-9080500D03*
D27*
G01*
X7700007Y-9334500D03*
G01*
X7540007Y-9334500D03*
D28*
G01*
X8699500Y-8012824D03*
D29*
G01*
X8699500Y-7862175D03*
D49*
G01*
X7539992Y-9588500D03*
G01*
X7699992Y-9588500D03*
D44*
G01*
X6096000Y-8814675D03*
D45*
G01*
X6096000Y-8965324D03*
D44*
G01*
X5715000Y-8497175D03*
D45*
G01*
X5715000Y-8647824D03*
D44*
G01*
X8699500Y-8243175D03*
D45*
G01*
X8699500Y-8393824D03*
D47*
G01*
X7695324Y-8890000D03*
D48*
G01*
X7544675Y-8890000D03*
D46*
G01*
X6286500Y-808992D03*
G01*
X6286500Y-968992D03*
D43*
G01*
X6540500Y-969007D03*
G01*
X6540500Y-809007D03*
G01*
X6096000Y-7827007D03*
G01*
X6096000Y-7667007D03*
D27*
G01*
X7700007Y-7874000D03*
G01*
X7540007Y-7874000D03*
D47*
G01*
X8647824Y-5016500D03*
D48*
G01*
X8497175Y-5016500D03*
D25*
G01*
X1194675Y-6540500D03*
D26*
G01*
X1345324Y-6540500D03*
D25*
G01*
X2718675Y-6477000D03*
D26*
G01*
X2869324Y-6477000D03*
D47*
G01*
X4520324Y-6032500D03*
D48*
G01*
X4369675Y-6032500D03*
D25*
G01*
X4369675Y-6540500D03*
D26*
G01*
X4520324Y-6540500D03*
D47*
G01*
X2869324Y-7048500D03*
D48*
G01*
X2718675Y-7048500D03*
D47*
G01*
X4520324Y-7048500D03*
D48*
G01*
X4369675Y-7048500D03*
D47*
G01*
X1345324Y-6794500D03*
D48*
G01*
X1194675Y-6794500D03*
D25*
G01*
X4369675Y-6794500D03*
D26*
G01*
X4520324Y-6794500D03*
D47*
G01*
X6171324Y-7302500D03*
D48*
G01*
X6020675Y-7302500D03*
D47*
G01*
X6171324Y-6286500D03*
D48*
G01*
X6020675Y-6286500D03*
D47*
G01*
X6742824Y-5080000D03*
D48*
G01*
X6592175Y-5080000D03*
D47*
G01*
X6742824Y-5397500D03*
D48*
G01*
X6592175Y-5397500D03*
D47*
G01*
X6171324Y-6794500D03*
D48*
G01*
X6020675Y-6794500D03*
D25*
G01*
X6973175Y-5969000D03*
D26*
G01*
X7123824Y-5969000D03*
D47*
G01*
X6171324Y-7048500D03*
D48*
G01*
X6020675Y-7048500D03*
D47*
G01*
X6742824Y-5969000D03*
D48*
G01*
X6592175Y-5969000D03*
D50*
G01*
X5825490Y-9207500D03*
G01*
X5825490Y-9334500D03*
G01*
X5825490Y-9461500D03*
G01*
X5825490Y-9588500D03*
G01*
X6366509Y-9207500D03*
G01*
X6366509Y-9334500D03*
G01*
X6366509Y-9461500D03*
G01*
X6366509Y-9588500D03*
D51*
G01*
X3078911Y-3328492D03*
G01*
X3078911Y-3393490D03*
G01*
X3078911Y-3458489D03*
G01*
X3078911Y-3523513D03*
G01*
X3078911Y-3588512D03*
G01*
X3078911Y-3653510D03*
G01*
X3078911Y-3718509D03*
G01*
X3078911Y-3783507D03*
G01*
X3652062Y-3328492D03*
G01*
X3652062Y-3393490D03*
G01*
X3652062Y-3458489D03*
G01*
X3652062Y-3523513D03*
G01*
X3652062Y-3588512D03*
G01*
X3652062Y-3653510D03*
G01*
X3652062Y-3718509D03*
G01*
X3652062Y-3783507D03*
D52*
G01*
X8318627Y-3428847D03*
D12*
G01*
X8064372Y-3429101D03*
G01*
X8318525Y-3174898D03*
G01*
X8064372Y-3175101D03*
G01*
X8318525Y-2920898D03*
G01*
X8064372Y-2921101D03*
G01*
X8318525Y-2666898D03*
G01*
X8064372Y-2667101D03*
G01*
X8318525Y-2412898D03*
G01*
X8064372Y-2413101D03*
D53*
G01*
X7707502Y-868493D03*
G01*
X7937500Y-868493D03*
G01*
X8167497Y-868493D03*
D54*
G01*
X7937500Y-274497D03*
D55*
G01*
X8667499Y-5604874D03*
G01*
X8477500Y-5604874D03*
G01*
X8572500Y-5825125D03*
D30*
G01*
X1778000Y-6223000D03*
D31*
G01*
X2032000Y-6223000D03*
G01*
X2286000Y-6223000D03*
D56*
G01*
X3810000Y-6223000D03*
D31*
G01*
X3556000Y-6223000D03*
G01*
X3302000Y-6223000D03*
D57*
G01*
X5117490Y-3488004D03*
G01*
X5117490Y-3553002D03*
G01*
X5117490Y-3618001D03*
G01*
X5117490Y-3683000D03*
G01*
X5117490Y-3747998D03*
G01*
X5117490Y-3812997D03*
G01*
X5117490Y-3877995D03*
G01*
X5677509Y-3877995D03*
G01*
X5677509Y-3812997D03*
G01*
X5677509Y-3747998D03*
G01*
X5677509Y-3683000D03*
G01*
X5677509Y-3618001D03*
G01*
X5677509Y-3553002D03*
G01*
X5677509Y-3488004D03*
D30*
G01*
X5080000Y-6223000D03*
D31*
G01*
X5334000Y-6223000D03*
G01*
X5588000Y-6223000D03*
D12*
G01*
X5588000Y-254000D03*
G01*
X5334000Y-254000D03*
D58*
G01*
X5080000Y-254000D03*
G01*
X1270000Y-254000D03*
D12*
G01*
X1016000Y-254000D03*
G01*
X762000Y-254000D03*
G01*
X762000Y-2032000D03*
G01*
X1016000Y-2032000D03*
D58*
G01*
X1270000Y-2032000D03*
D12*
G01*
X1524000Y-2032000D03*
G01*
X1778000Y-2032000D03*
G01*
X2032000Y-2032000D03*
G01*
X2286000Y-2032000D03*
D58*
G01*
X2540000Y-2032000D03*
D12*
G01*
X2794000Y-2032000D03*
G01*
X3048000Y-2032000D03*
G01*
X3302000Y-2032000D03*
G01*
X3556000Y-2032000D03*
D58*
G01*
X3810000Y-2032000D03*
D12*
G01*
X4064000Y-2032000D03*
G01*
X4318000Y-2032000D03*
G01*
X4572000Y-2032000D03*
G01*
X4826000Y-2032000D03*
D58*
G01*
X5080000Y-2032000D03*
D12*
G01*
X5334000Y-2032000D03*
G01*
X5588000Y-2032000D03*
D13*
G01*
X784987Y-889000D03*
D58*
G01*
X784999Y-1143000D03*
D13*
G01*
X784987Y-1397000D03*
D12*
G01*
X4826000Y-254000D03*
G01*
X4572000Y-254000D03*
G01*
X4318000Y-254000D03*
G01*
X4064000Y-254000D03*
D58*
G01*
X3810000Y-254000D03*
D12*
G01*
X3556000Y-254000D03*
G01*
X3302000Y-254000D03*
G01*
X3048000Y-254000D03*
G01*
X2794000Y-254000D03*
D58*
G01*
X2540000Y-254000D03*
D12*
G01*
X2286000Y-254000D03*
G01*
X2032000Y-254000D03*
G01*
X1778000Y-254000D03*
G01*
X1524000Y-254000D03*
M02*
