G04 Layer: TopSilkscreenLayer*
G04 EasyEDA v6.5.14, 2022-08-24 14:40:41*
G04 9da48f2711ed4ad3adc4a7d986b87d78,bf633cf64d8a430dba0ab8f24d4e683d,10*
G04 Gerber Generator version 0.2*
G04 Scale: 100 percent, Rotated: No, Reflected: No *
G04 Dimensions in millimeters *
G04 leading zeros omitted , absolute positions ,4 integer and 5 decimal *
%FSLAX45Y45*%
%MOMM*%

%ADD10C,0.2032*%
%ADD11C,1.0000*%
%ADD12C,0.1524*%
%ADD13C,0.2540*%
%ADD14C,0.1520*%
%ADD15C,0.3000*%
%ADD16C,0.4000*%
%ADD17C,0.0103*%

%LPD*%
G36*
X3076295Y-759917D02*
G01*
X3062122Y-760628D01*
X3052216Y-761492D01*
X3045612Y-762406D01*
X3027476Y-766267D01*
X3003600Y-772109D01*
X2992069Y-775360D01*
X2980690Y-778967D01*
X2969463Y-782929D01*
X2958388Y-787196D01*
X2947466Y-791870D01*
X2936697Y-796798D01*
X2926080Y-802081D01*
X2915615Y-807669D01*
X2905353Y-813562D01*
X2895295Y-819759D01*
X2885440Y-826211D01*
X2875737Y-833018D01*
X2866237Y-840028D01*
X2856992Y-847344D01*
X2847898Y-854913D01*
X2834741Y-866749D01*
X2826258Y-874979D01*
X2818028Y-883412D01*
X2810002Y-892098D01*
X2802229Y-900988D01*
X2794762Y-910082D01*
X2787497Y-919429D01*
X2780538Y-928928D01*
X2773832Y-938631D01*
X2767431Y-948588D01*
X2761284Y-958646D01*
X2755493Y-968908D01*
X2749956Y-979373D01*
X2744724Y-989990D01*
X2739796Y-1000709D01*
X2735224Y-1011631D01*
X2730957Y-1022654D01*
X2727045Y-1033830D01*
X2723438Y-1045159D01*
X2720187Y-1056538D01*
X2717292Y-1068070D01*
X2714752Y-1079703D01*
X2712567Y-1091438D01*
X2710789Y-1103274D01*
X2709773Y-1112570D01*
X2709011Y-1123340D01*
X2708554Y-1135176D01*
X2708351Y-1147927D01*
X2708656Y-1174546D01*
X2709875Y-1200810D01*
X2711958Y-1224178D01*
X2713278Y-1233982D01*
X2714802Y-1242161D01*
X2717800Y-1254658D01*
X2721102Y-1266952D01*
X2724759Y-1279093D01*
X2728722Y-1291031D01*
X2733040Y-1302766D01*
X2737662Y-1314297D01*
X2742641Y-1325676D01*
X2747873Y-1336852D01*
X2753461Y-1347774D01*
X2762402Y-1363827D01*
X2768752Y-1374241D01*
X2775407Y-1384401D01*
X2782316Y-1394358D01*
X2789529Y-1404112D01*
X2797048Y-1413611D01*
X2804769Y-1422857D01*
X2812846Y-1431848D01*
X2821127Y-1440586D01*
X2829712Y-1449120D01*
X2838500Y-1457350D01*
X2847594Y-1465326D01*
X2856890Y-1472996D01*
X2866440Y-1480413D01*
X2876245Y-1487576D01*
X2886303Y-1494434D01*
X2896565Y-1500987D01*
X2907030Y-1507286D01*
X2917748Y-1513230D01*
X2928620Y-1518920D01*
X2939745Y-1524304D01*
X2951073Y-1529334D01*
X2962605Y-1534109D01*
X2974340Y-1538478D01*
X2986278Y-1542592D01*
X2998368Y-1546352D01*
X3010611Y-1549755D01*
X3023108Y-1552854D01*
X3033979Y-1555140D01*
X3044698Y-1556715D01*
X3056991Y-1557985D01*
X3070555Y-1558950D01*
X3084982Y-1559560D01*
X3100019Y-1559864D01*
X3115208Y-1559864D01*
X3130194Y-1559509D01*
X3144672Y-1558848D01*
X3158286Y-1557934D01*
X3170631Y-1556613D01*
X3181400Y-1555038D01*
X3192221Y-1552752D01*
X3204362Y-1549806D01*
X3216249Y-1546606D01*
X3227882Y-1543100D01*
X3239312Y-1539341D01*
X3250438Y-1535277D01*
X3261410Y-1530959D01*
X3272129Y-1526336D01*
X3282696Y-1521409D01*
X3293008Y-1516176D01*
X3303219Y-1510588D01*
X3313176Y-1504746D01*
X3323031Y-1498549D01*
X3332734Y-1492046D01*
X3342284Y-1485188D01*
X3351682Y-1478026D01*
X3360978Y-1470456D01*
X3370173Y-1462582D01*
X3379266Y-1454353D01*
X3388258Y-1445768D01*
X3397453Y-1436522D01*
X3406597Y-1426870D01*
X3415284Y-1417066D01*
X3423564Y-1407160D01*
X3431438Y-1397152D01*
X3438956Y-1387043D01*
X3446018Y-1376730D01*
X3452723Y-1366266D01*
X3459022Y-1355648D01*
X3464966Y-1344828D01*
X3470554Y-1333855D01*
X3475786Y-1322628D01*
X3480663Y-1311148D01*
X3485184Y-1299514D01*
X3489350Y-1287576D01*
X3493211Y-1275384D01*
X3496716Y-1262888D01*
X3499967Y-1250137D01*
X3502812Y-1237335D01*
X3504996Y-1225702D01*
X3506520Y-1214374D01*
X3507536Y-1202080D01*
X3508095Y-1187653D01*
X3508298Y-1169720D01*
X3508248Y-1143254D01*
X3507994Y-1129588D01*
X3507486Y-1117600D01*
X3506724Y-1106779D01*
X3505555Y-1096772D01*
X3503929Y-1086916D01*
X3501796Y-1076858D01*
X3499053Y-1066088D01*
X3491636Y-1040384D01*
X3487978Y-1029004D01*
X3484016Y-1017778D01*
X3479698Y-1006754D01*
X3475075Y-995832D01*
X3470097Y-985113D01*
X3464814Y-974496D01*
X3456279Y-959002D01*
X3450234Y-948842D01*
X3443884Y-938936D01*
X3437229Y-929182D01*
X3430320Y-919683D01*
X3423107Y-910336D01*
X3415639Y-901242D01*
X3407867Y-892352D01*
X3399891Y-883666D01*
X3391611Y-875233D01*
X3383127Y-867054D01*
X3365398Y-851408D01*
X3351479Y-840384D01*
X3341928Y-833374D01*
X3332175Y-826617D01*
X3322167Y-820115D01*
X3312007Y-813917D01*
X3296361Y-805180D01*
X3285744Y-799744D01*
X3274872Y-794613D01*
X3263849Y-789787D01*
X3252673Y-785266D01*
X3241344Y-781100D01*
X3229254Y-777087D01*
X3215843Y-773176D01*
X3201974Y-769620D01*
X3188157Y-766470D01*
X3174847Y-763879D01*
X3162554Y-761949D01*
X3151835Y-760730D01*
X3143148Y-760323D01*
X3129178Y-761390D01*
X2955086Y-1108354D01*
X2885490Y-1248105D01*
X2864561Y-1290675D01*
X2851708Y-1317345D01*
X2848102Y-1325422D01*
X2861868Y-1325829D01*
X2899257Y-1326083D01*
X3027476Y-1326184D01*
X3369513Y-1325270D01*
X3344316Y-1274419D01*
X3219348Y-1026617D01*
X3186379Y-961948D01*
X3176270Y-942848D01*
X3070301Y-1154226D01*
X3045155Y-1205026D01*
X3030829Y-1234643D01*
X3028848Y-1239215D01*
X3030829Y-1240434D01*
X3036620Y-1241348D01*
X3045663Y-1241958D01*
X3057398Y-1242161D01*
X3086150Y-1242161D01*
X3144012Y-1123848D01*
X3162706Y-1086459D01*
X3172815Y-1066850D01*
X3176981Y-1059637D01*
X3177997Y-1061059D01*
X3183890Y-1071778D01*
X3207867Y-1118311D01*
X3287115Y-1276299D01*
X2927705Y-1275994D01*
X3002686Y-1128928D01*
X3135122Y-867664D01*
X3155340Y-828344D01*
X3162147Y-815492D01*
X3163316Y-815035D01*
X3165551Y-814984D01*
X3172815Y-815949D01*
X3182975Y-818083D01*
X3195167Y-821182D01*
X3208477Y-824992D01*
X3221939Y-829259D01*
X3234690Y-833729D01*
X3245866Y-838149D01*
X3256991Y-843229D01*
X3267964Y-848715D01*
X3278784Y-854557D01*
X3289350Y-860856D01*
X3299764Y-867511D01*
X3309924Y-874572D01*
X3319881Y-881938D01*
X3329533Y-889660D01*
X3338982Y-897737D01*
X3348126Y-906119D01*
X3357016Y-914806D01*
X3365550Y-923798D01*
X3373831Y-933043D01*
X3381756Y-942594D01*
X3389325Y-952398D01*
X3396538Y-962406D01*
X3403396Y-972667D01*
X3409899Y-983183D01*
X3415995Y-993851D01*
X3421684Y-1004722D01*
X3427120Y-1016152D01*
X3432149Y-1027734D01*
X3436721Y-1039469D01*
X3440887Y-1051255D01*
X3444595Y-1063193D01*
X3447846Y-1075232D01*
X3450691Y-1087374D01*
X3453079Y-1099566D01*
X3455009Y-1111808D01*
X3456482Y-1124153D01*
X3457549Y-1136548D01*
X3458159Y-1148943D01*
X3458362Y-1161338D01*
X3458057Y-1173784D01*
X3457295Y-1186230D01*
X3456127Y-1198676D01*
X3454501Y-1211072D01*
X3452418Y-1223467D01*
X3449878Y-1235811D01*
X3446881Y-1248105D01*
X3443528Y-1260094D01*
X3439718Y-1271879D01*
X3435553Y-1283462D01*
X3431032Y-1294841D01*
X3426104Y-1306017D01*
X3420821Y-1316939D01*
X3415233Y-1327607D01*
X3409238Y-1338072D01*
X3402939Y-1348282D01*
X3396284Y-1358239D01*
X3389325Y-1367942D01*
X3382010Y-1377391D01*
X3374440Y-1386586D01*
X3366566Y-1395476D01*
X3358387Y-1404061D01*
X3349955Y-1412392D01*
X3341217Y-1420418D01*
X3332226Y-1428140D01*
X3323031Y-1435557D01*
X3313531Y-1442669D01*
X3303828Y-1449425D01*
X3293872Y-1455877D01*
X3283712Y-1461973D01*
X3273298Y-1467713D01*
X3262731Y-1473149D01*
X3251962Y-1478229D01*
X3240989Y-1482902D01*
X3229813Y-1487220D01*
X3218535Y-1491183D01*
X3207054Y-1494790D01*
X3195421Y-1497990D01*
X3183636Y-1500784D01*
X3171698Y-1503172D01*
X3159658Y-1505153D01*
X3147517Y-1506728D01*
X3135223Y-1507896D01*
X3122828Y-1508607D01*
X3110382Y-1508912D01*
X3095752Y-1508760D01*
X3081629Y-1508150D01*
X3067913Y-1507083D01*
X3054553Y-1505508D01*
X3041497Y-1503375D01*
X3028696Y-1500784D01*
X3016046Y-1497634D01*
X3003550Y-1493926D01*
X2991104Y-1489659D01*
X2978607Y-1484782D01*
X2966059Y-1479346D01*
X2953410Y-1473250D01*
X2939745Y-1466240D01*
X2927400Y-1459331D01*
X2916072Y-1452372D01*
X2905404Y-1445107D01*
X2895142Y-1437284D01*
X2884982Y-1428800D01*
X2874619Y-1419301D01*
X2863646Y-1408633D01*
X2854604Y-1399336D01*
X2846273Y-1390345D01*
X2838551Y-1381556D01*
X2831439Y-1372870D01*
X2824835Y-1364132D01*
X2818587Y-1355242D01*
X2812643Y-1346098D01*
X2806954Y-1336598D01*
X2801416Y-1326642D01*
X2795981Y-1316024D01*
X2790698Y-1305102D01*
X2785872Y-1294079D01*
X2781452Y-1282954D01*
X2777439Y-1271778D01*
X2773832Y-1260602D01*
X2770632Y-1249324D01*
X2767787Y-1238046D01*
X2765348Y-1226718D01*
X2763316Y-1215390D01*
X2761691Y-1204061D01*
X2760421Y-1192733D01*
X2759506Y-1181404D01*
X2758998Y-1170076D01*
X2758846Y-1158798D01*
X2759049Y-1147521D01*
X2759608Y-1136345D01*
X2760573Y-1125169D01*
X2761843Y-1114044D01*
X2763520Y-1103020D01*
X2765501Y-1092047D01*
X2767838Y-1081176D01*
X2770530Y-1070406D01*
X2773527Y-1059688D01*
X2776880Y-1049121D01*
X2780538Y-1038656D01*
X2784551Y-1028293D01*
X2788869Y-1018082D01*
X2793542Y-1008024D01*
X2798470Y-998118D01*
X2803753Y-988364D01*
X2809341Y-978763D01*
X2815183Y-969365D01*
X2821381Y-960170D01*
X2827832Y-951128D01*
X2838094Y-937920D01*
X2845308Y-929436D01*
X2852775Y-921105D01*
X2860548Y-913028D01*
X2872740Y-901395D01*
X2881172Y-893927D01*
X2889859Y-886764D01*
X2898851Y-879805D01*
X2908096Y-873150D01*
X2917545Y-866800D01*
X2927299Y-860704D01*
X2937306Y-854964D01*
X2947517Y-849477D01*
X2957982Y-844346D01*
X2968701Y-839520D01*
X2979623Y-834999D01*
X2990799Y-830884D01*
X3002229Y-827074D01*
X3013811Y-823620D01*
X3045663Y-814679D01*
X3048152Y-812139D01*
X3052165Y-806043D01*
X3057245Y-797255D01*
X3062782Y-786739D01*
G37*
G36*
X2150110Y-5814822D02*
G01*
X2150110Y-6037326D01*
X2161794Y-6037326D01*
X2161794Y-5814822D01*
G37*
G36*
X1798828Y-5821680D02*
G01*
X1798828Y-5883656D01*
X1727200Y-5883656D01*
X1727200Y-5892800D01*
X1798828Y-5892800D01*
X1798828Y-5954776D01*
X1807972Y-5954776D01*
X1807972Y-5892800D01*
X1879600Y-5892800D01*
X1879600Y-5883656D01*
X1807972Y-5883656D01*
X1807972Y-5821680D01*
G37*
G36*
X2072639Y-5829808D02*
G01*
X2068169Y-5830062D01*
X2063750Y-5830824D01*
X2059432Y-5832094D01*
X2055215Y-5833872D01*
X2051151Y-5836259D01*
X2047290Y-5839256D01*
X2043633Y-5842812D01*
X2040178Y-5847029D01*
X2037029Y-5851906D01*
X2034235Y-5857443D01*
X2031746Y-5863691D01*
X2029612Y-5870651D01*
X2027936Y-5878322D01*
X2026666Y-5886754D01*
X2025904Y-5896000D01*
X2025650Y-5906008D01*
X2045462Y-5906008D01*
X2045716Y-5893460D01*
X2046478Y-5882487D01*
X2047697Y-5872988D01*
X2049322Y-5864860D01*
X2051354Y-5858002D01*
X2053691Y-5852363D01*
X2056384Y-5847791D01*
X2059279Y-5844286D01*
X2062378Y-5841695D01*
X2065680Y-5839968D01*
X2069134Y-5839002D01*
X2072639Y-5838698D01*
X2076043Y-5839002D01*
X2079345Y-5839968D01*
X2082546Y-5841695D01*
X2085593Y-5844286D01*
X2088388Y-5847791D01*
X2090978Y-5852363D01*
X2093264Y-5858002D01*
X2095246Y-5864860D01*
X2096871Y-5872988D01*
X2098040Y-5882487D01*
X2098802Y-5893460D01*
X2099056Y-5906008D01*
X2098802Y-5919012D01*
X2098040Y-5930442D01*
X2096871Y-5940298D01*
X2095246Y-5948781D01*
X2093264Y-5955944D01*
X2090978Y-5961837D01*
X2088388Y-5966561D01*
X2085593Y-5970219D01*
X2082546Y-5972962D01*
X2079345Y-5974740D01*
X2076043Y-5975807D01*
X2072639Y-5976112D01*
X2069998Y-5975959D01*
X2067407Y-5975400D01*
X2064867Y-5974384D01*
X2062378Y-5972962D01*
X2060041Y-5971032D01*
X2057806Y-5968593D01*
X2055672Y-5965545D01*
X2053742Y-5961938D01*
X2051913Y-5957620D01*
X2050288Y-5952642D01*
X2048916Y-5946902D01*
X2047697Y-5940450D01*
X2046732Y-5933135D01*
X2046071Y-5925007D01*
X2045614Y-5915964D01*
X2045462Y-5906008D01*
X2025650Y-5906008D01*
X2025904Y-5916371D01*
X2026666Y-5925921D01*
X2027936Y-5934659D01*
X2029612Y-5942584D01*
X2031746Y-5949746D01*
X2034235Y-5956198D01*
X2037029Y-5961888D01*
X2040178Y-5966866D01*
X2043633Y-5971184D01*
X2047290Y-5974842D01*
X2051151Y-5977890D01*
X2055215Y-5980328D01*
X2059432Y-5982208D01*
X2063750Y-5983478D01*
X2068169Y-5984240D01*
X2072639Y-5984494D01*
X2077008Y-5984240D01*
X2081326Y-5983478D01*
X2085593Y-5982208D01*
X2089708Y-5980328D01*
X2093722Y-5977890D01*
X2097532Y-5974842D01*
X2101138Y-5971184D01*
X2104542Y-5966866D01*
X2107590Y-5961888D01*
X2110384Y-5956198D01*
X2112873Y-5949746D01*
X2114905Y-5942584D01*
X2116582Y-5934659D01*
X2117852Y-5925921D01*
X2118614Y-5916371D01*
X2118868Y-5906008D01*
X2118614Y-5896000D01*
X2117852Y-5886754D01*
X2116582Y-5878322D01*
X2114905Y-5870651D01*
X2112873Y-5863691D01*
X2110384Y-5857443D01*
X2107590Y-5851906D01*
X2104542Y-5847029D01*
X2101138Y-5842812D01*
X2097532Y-5839256D01*
X2093722Y-5836259D01*
X2089708Y-5833872D01*
X2085593Y-5832094D01*
X2081326Y-5830824D01*
X2077008Y-5830062D01*
G37*
G36*
X2240280Y-5829808D02*
G01*
X2234590Y-5830112D01*
X2229154Y-5830976D01*
X2224024Y-5832398D01*
X2219198Y-5834329D01*
X2214778Y-5836818D01*
X2210765Y-5839764D01*
X2207260Y-5843168D01*
X2204262Y-5847029D01*
X2201875Y-5851347D01*
X2200097Y-5856071D01*
X2198979Y-5861151D01*
X2198887Y-5862574D01*
X2215388Y-5862574D01*
X2215896Y-5857290D01*
X2217369Y-5852566D01*
X2219706Y-5848451D01*
X2222703Y-5844997D01*
X2226360Y-5842203D01*
X2230475Y-5840120D01*
X2234996Y-5838901D01*
X2239772Y-5838444D01*
X2244902Y-5839002D01*
X2249474Y-5840577D01*
X2253386Y-5843016D01*
X2256637Y-5846216D01*
X2259228Y-5850077D01*
X2261108Y-5854395D01*
X2262225Y-5859119D01*
X2262632Y-5864098D01*
X2262428Y-5869381D01*
X2261717Y-5874258D01*
X2260498Y-5878830D01*
X2258669Y-5883097D01*
X2256282Y-5887110D01*
X2253183Y-5891022D01*
X2249424Y-5894832D01*
X2244852Y-5898642D01*
X2236876Y-5894324D01*
X2230374Y-5889955D01*
X2225243Y-5885535D01*
X2221331Y-5881065D01*
X2218537Y-5876544D01*
X2216708Y-5871972D01*
X2215692Y-5867298D01*
X2215388Y-5862574D01*
X2198887Y-5862574D01*
X2198624Y-5866638D01*
X2199030Y-5872937D01*
X2200198Y-5878982D01*
X2202230Y-5884672D01*
X2205126Y-5890056D01*
X2208936Y-5895136D01*
X2213711Y-5899912D01*
X2219502Y-5904382D01*
X2226310Y-5908548D01*
X2218791Y-5912459D01*
X2212289Y-5916574D01*
X2206752Y-5920994D01*
X2202180Y-5925667D01*
X2198624Y-5930646D01*
X2196084Y-5936030D01*
X2194560Y-5941771D01*
X2194219Y-5945886D01*
X2211578Y-5945886D01*
X2211882Y-5940348D01*
X2212898Y-5935370D01*
X2214524Y-5930798D01*
X2216861Y-5926632D01*
X2219858Y-5922721D01*
X2223566Y-5919063D01*
X2227986Y-5915558D01*
X2233168Y-5912104D01*
X2242159Y-5916574D01*
X2249525Y-5920943D01*
X2255418Y-5925261D01*
X2259990Y-5929579D01*
X2263343Y-5933948D01*
X2265578Y-5938469D01*
X2266797Y-5943193D01*
X2267204Y-5948172D01*
X2266696Y-5954166D01*
X2265273Y-5959602D01*
X2262987Y-5964377D01*
X2259838Y-5968441D01*
X2255926Y-5971692D01*
X2251354Y-5974080D01*
X2246122Y-5975604D01*
X2240280Y-5976112D01*
X2234184Y-5975553D01*
X2228596Y-5973927D01*
X2223719Y-5971286D01*
X2219553Y-5967780D01*
X2216150Y-5963361D01*
X2213660Y-5958230D01*
X2212136Y-5952337D01*
X2211578Y-5945886D01*
X2194219Y-5945886D01*
X2194052Y-5947918D01*
X2194407Y-5953607D01*
X2195525Y-5958840D01*
X2197354Y-5963615D01*
X2199792Y-5967882D01*
X2202891Y-5971743D01*
X2206650Y-5975045D01*
X2210917Y-5977890D01*
X2215743Y-5980277D01*
X2221077Y-5982106D01*
X2226868Y-5983427D01*
X2233117Y-5984240D01*
X2239772Y-5984494D01*
X2246172Y-5984189D01*
X2252218Y-5983224D01*
X2257907Y-5981649D01*
X2263190Y-5979464D01*
X2268016Y-5976772D01*
X2272334Y-5973572D01*
X2276094Y-5969863D01*
X2279243Y-5965698D01*
X2281834Y-5961126D01*
X2283663Y-5956147D01*
X2284831Y-5950813D01*
X2285238Y-5945124D01*
X2284730Y-5938062D01*
X2283206Y-5931611D01*
X2280666Y-5925718D01*
X2277059Y-5920282D01*
X2272385Y-5915304D01*
X2266594Y-5910630D01*
X2259736Y-5906211D01*
X2251710Y-5901944D01*
X2258771Y-5897372D01*
X2264562Y-5892698D01*
X2269185Y-5887974D01*
X2272741Y-5883148D01*
X2275382Y-5878322D01*
X2277110Y-5873597D01*
X2278075Y-5868924D01*
X2278380Y-5864352D01*
X2278075Y-5859475D01*
X2277211Y-5854801D01*
X2275738Y-5850483D01*
X2273757Y-5846470D01*
X2271217Y-5842812D01*
X2268169Y-5839561D01*
X2264664Y-5836716D01*
X2260650Y-5834329D01*
X2256180Y-5832398D01*
X2251303Y-5830976D01*
X2245969Y-5830112D01*
G37*
G36*
X1969770Y-5830570D02*
G01*
X1924050Y-5842508D01*
X1924050Y-5850128D01*
X1953768Y-5847334D01*
X1953717Y-5943650D01*
X1953260Y-5970270D01*
X1921764Y-5974842D01*
X1921764Y-5981700D01*
X2003806Y-5981700D01*
X2003806Y-5974842D01*
X1972564Y-5970270D01*
X1972056Y-5934710D01*
X1972056Y-5864860D01*
X1972818Y-5832856D01*
G37*
G36*
X1727200Y-5970778D02*
G01*
X1727200Y-5979922D01*
X1879600Y-5979922D01*
X1879600Y-5970778D01*
G37*
G36*
X3549904Y-5903722D02*
G01*
X3549904Y-6126226D01*
X3561587Y-6126226D01*
X3561587Y-5903722D01*
G37*
G36*
X3310128Y-5910580D02*
G01*
X3310128Y-5972556D01*
X3238500Y-5972556D01*
X3238500Y-5981700D01*
X3310128Y-5981700D01*
X3310128Y-6043676D01*
X3319272Y-6043676D01*
X3319272Y-5981700D01*
X3390900Y-5981700D01*
X3390900Y-5972556D01*
X3319272Y-5972556D01*
X3319272Y-5910580D01*
G37*
G36*
X3472687Y-5918708D02*
G01*
X3466947Y-5919012D01*
X3461512Y-5919876D01*
X3456330Y-5921298D01*
X3451504Y-5923229D01*
X3447084Y-5925718D01*
X3443122Y-5928664D01*
X3439617Y-5932068D01*
X3436670Y-5935980D01*
X3434283Y-5940247D01*
X3432505Y-5944971D01*
X3431387Y-5950102D01*
X3431297Y-5951474D01*
X3447796Y-5951474D01*
X3448304Y-5946241D01*
X3449777Y-5941517D01*
X3452114Y-5937402D01*
X3455162Y-5933897D01*
X3458768Y-5931103D01*
X3462934Y-5929071D01*
X3467404Y-5927801D01*
X3472179Y-5927344D01*
X3477310Y-5927902D01*
X3481882Y-5929477D01*
X3485794Y-5931916D01*
X3489045Y-5935116D01*
X3491636Y-5938977D01*
X3493515Y-5943346D01*
X3494684Y-5948019D01*
X3495040Y-5952998D01*
X3494836Y-5958332D01*
X3494074Y-5963208D01*
X3492804Y-5967730D01*
X3490976Y-5971997D01*
X3488537Y-5976061D01*
X3485387Y-5979922D01*
X3481578Y-5983782D01*
X3477006Y-5987542D01*
X3469030Y-5983224D01*
X3462578Y-5978906D01*
X3457498Y-5974486D01*
X3453637Y-5970016D01*
X3450894Y-5965444D01*
X3449065Y-5960872D01*
X3448100Y-5956198D01*
X3447796Y-5951474D01*
X3431297Y-5951474D01*
X3431032Y-5955538D01*
X3431438Y-5961888D01*
X3432606Y-5967882D01*
X3434638Y-5973572D01*
X3437534Y-5979007D01*
X3441293Y-5984087D01*
X3446018Y-5988862D01*
X3451758Y-5993282D01*
X3458464Y-5997448D01*
X3450945Y-6001359D01*
X3444443Y-6005525D01*
X3438906Y-6009894D01*
X3434334Y-6014567D01*
X3430778Y-6019596D01*
X3428237Y-6024930D01*
X3426714Y-6030671D01*
X3426373Y-6034786D01*
X3443986Y-6034786D01*
X3444341Y-6029248D01*
X3445306Y-6024270D01*
X3446932Y-6019698D01*
X3449269Y-6015532D01*
X3452266Y-6011621D01*
X3455974Y-6007963D01*
X3460445Y-6004458D01*
X3465576Y-6001004D01*
X3474567Y-6005525D01*
X3481933Y-6009843D01*
X3487826Y-6014161D01*
X3492398Y-6018479D01*
X3495751Y-6022848D01*
X3497986Y-6027369D01*
X3499205Y-6032093D01*
X3499612Y-6037072D01*
X3499154Y-6043117D01*
X3497681Y-6048502D01*
X3495395Y-6053277D01*
X3492246Y-6057341D01*
X3488334Y-6060592D01*
X3483762Y-6063030D01*
X3478529Y-6064504D01*
X3472687Y-6065012D01*
X3466490Y-6064453D01*
X3460902Y-6062827D01*
X3456025Y-6060236D01*
X3451860Y-6056680D01*
X3448507Y-6052312D01*
X3446068Y-6047130D01*
X3444494Y-6041288D01*
X3443986Y-6034786D01*
X3426373Y-6034786D01*
X3426206Y-6036818D01*
X3426612Y-6042507D01*
X3427729Y-6047740D01*
X3429558Y-6052515D01*
X3432048Y-6056833D01*
X3435146Y-6060643D01*
X3438906Y-6063996D01*
X3443173Y-6066840D01*
X3447999Y-6069177D01*
X3453333Y-6071006D01*
X3459124Y-6072327D01*
X3465322Y-6073140D01*
X3471926Y-6073394D01*
X3478326Y-6073089D01*
X3484372Y-6072124D01*
X3490061Y-6070549D01*
X3495344Y-6068415D01*
X3500170Y-6065672D01*
X3504488Y-6062472D01*
X3508248Y-6058763D01*
X3511448Y-6054648D01*
X3513988Y-6050026D01*
X3515868Y-6045047D01*
X3516985Y-6039713D01*
X3517392Y-6034024D01*
X3516884Y-6026962D01*
X3515410Y-6020511D01*
X3512870Y-6014618D01*
X3509314Y-6009182D01*
X3504641Y-6004204D01*
X3498850Y-5999530D01*
X3491941Y-5995111D01*
X3483864Y-5990844D01*
X3491026Y-5986322D01*
X3496868Y-5981649D01*
X3501542Y-5976874D01*
X3505149Y-5972048D01*
X3507790Y-5967272D01*
X3509518Y-5962497D01*
X3510483Y-5957824D01*
X3510787Y-5953252D01*
X3510483Y-5948375D01*
X3509619Y-5943752D01*
X3508146Y-5939383D01*
X3506114Y-5935370D01*
X3503574Y-5931712D01*
X3500526Y-5928461D01*
X3496970Y-5925616D01*
X3492957Y-5923229D01*
X3488486Y-5921298D01*
X3483610Y-5919876D01*
X3478377Y-5919012D01*
G37*
G36*
X3751326Y-5918708D02*
G01*
X3746855Y-5918962D01*
X3742436Y-5919724D01*
X3738118Y-5920994D01*
X3733901Y-5922822D01*
X3729837Y-5925210D01*
X3725976Y-5928156D01*
X3722319Y-5931763D01*
X3718864Y-5935980D01*
X3715765Y-5940806D01*
X3712921Y-5946343D01*
X3710432Y-5952591D01*
X3708349Y-5959551D01*
X3706622Y-5967222D01*
X3705402Y-5975654D01*
X3704590Y-5984900D01*
X3704336Y-5994908D01*
X3724148Y-5994908D01*
X3724401Y-5982411D01*
X3725164Y-5971438D01*
X3726383Y-5961888D01*
X3728059Y-5953760D01*
X3730040Y-5946902D01*
X3732428Y-5941263D01*
X3735070Y-5936742D01*
X3737965Y-5933186D01*
X3741064Y-5930646D01*
X3744366Y-5928868D01*
X3747820Y-5927902D01*
X3751326Y-5927598D01*
X3754729Y-5927902D01*
X3758031Y-5928868D01*
X3761232Y-5930646D01*
X3764279Y-5933186D01*
X3767124Y-5936742D01*
X3769664Y-5941263D01*
X3772001Y-5946902D01*
X3773932Y-5953760D01*
X3775557Y-5961888D01*
X3776726Y-5971438D01*
X3777487Y-5982411D01*
X3777742Y-5994908D01*
X3777487Y-6007912D01*
X3776726Y-6019342D01*
X3775557Y-6029248D01*
X3773932Y-6037681D01*
X3772001Y-6044844D01*
X3769664Y-6050737D01*
X3767124Y-6055461D01*
X3764279Y-6059170D01*
X3761232Y-6061862D01*
X3758031Y-6063691D01*
X3754729Y-6064707D01*
X3751326Y-6065012D01*
X3748684Y-6064859D01*
X3746093Y-6064300D01*
X3743553Y-6063335D01*
X3741064Y-6061913D01*
X3738727Y-6059982D01*
X3736492Y-6057493D01*
X3734358Y-6054496D01*
X3732428Y-6050838D01*
X3730599Y-6046520D01*
X3729024Y-6041542D01*
X3727602Y-6035852D01*
X3726383Y-6029350D01*
X3725468Y-6022035D01*
X3724757Y-6013907D01*
X3724300Y-6004864D01*
X3724148Y-5994908D01*
X3704336Y-5994908D01*
X3704590Y-6005322D01*
X3705402Y-6014872D01*
X3706622Y-6023559D01*
X3708349Y-6031484D01*
X3710432Y-6038697D01*
X3712921Y-6045098D01*
X3715765Y-6050788D01*
X3718864Y-6055766D01*
X3722319Y-6060084D01*
X3725976Y-6063792D01*
X3729837Y-6066840D01*
X3733901Y-6069228D01*
X3738118Y-6071108D01*
X3742436Y-6072378D01*
X3746855Y-6073140D01*
X3751326Y-6073394D01*
X3755694Y-6073140D01*
X3760063Y-6072378D01*
X3764279Y-6071108D01*
X3768445Y-6069228D01*
X3772458Y-6066840D01*
X3776319Y-6063792D01*
X3779926Y-6060084D01*
X3783329Y-6055766D01*
X3786479Y-6050788D01*
X3789273Y-6045098D01*
X3791762Y-6038697D01*
X3793845Y-6031484D01*
X3795522Y-6023559D01*
X3796792Y-6014872D01*
X3797554Y-6005322D01*
X3797808Y-5994908D01*
X3797554Y-5984900D01*
X3796792Y-5975654D01*
X3795522Y-5967222D01*
X3793845Y-5959551D01*
X3791762Y-5952591D01*
X3789273Y-5946343D01*
X3786479Y-5940806D01*
X3783329Y-5935980D01*
X3779926Y-5931763D01*
X3776319Y-5928156D01*
X3772458Y-5925210D01*
X3768445Y-5922822D01*
X3764279Y-5920994D01*
X3760063Y-5919724D01*
X3755694Y-5918962D01*
G37*
G36*
X3648456Y-5919470D02*
G01*
X3602736Y-5931408D01*
X3602736Y-5939028D01*
X3632454Y-5936234D01*
X3632200Y-6059170D01*
X3600450Y-6063742D01*
X3600450Y-6070600D01*
X3682492Y-6070600D01*
X3682492Y-6063742D01*
X3651250Y-6059170D01*
X3650742Y-6023610D01*
X3650742Y-5953760D01*
X3651504Y-5921756D01*
G37*
G36*
X3238500Y-6059678D02*
G01*
X3238500Y-6068822D01*
X3390900Y-6068822D01*
X3390900Y-6059678D01*
G37*
D10*
X5918220Y-3950723D02*
G01*
X5918220Y-4093979D01*
X5918220Y-3950723D02*
G01*
X6006866Y-3950723D01*
X5918220Y-4018795D02*
G01*
X5972830Y-4018795D01*
X5918220Y-4093979D02*
G01*
X6006866Y-4093979D01*
X6051824Y-3998475D02*
G01*
X6051824Y-4066547D01*
X6058682Y-4087121D01*
X6072398Y-4093979D01*
X6092718Y-4093979D01*
X6106434Y-4087121D01*
X6126754Y-4066547D01*
X6126754Y-3998475D02*
G01*
X6126754Y-4093979D01*
X6171712Y-3998475D02*
G01*
X6171712Y-4093979D01*
X6171712Y-4039369D02*
G01*
X6178570Y-4018795D01*
X6192286Y-4005333D01*
X6206002Y-3998475D01*
X6226322Y-3998475D01*
X6305570Y-3998475D02*
G01*
X6291854Y-4005333D01*
X6278138Y-4018795D01*
X6271280Y-4039369D01*
X6271280Y-4053085D01*
X6278138Y-4073405D01*
X6291854Y-4087121D01*
X6305570Y-4093979D01*
X6325890Y-4093979D01*
X6339606Y-4087121D01*
X6353322Y-4073405D01*
X6359926Y-4053085D01*
X6359926Y-4039369D01*
X6353322Y-4018795D01*
X6339606Y-4005333D01*
X6325890Y-3998475D01*
X6305570Y-3998475D01*
X6405138Y-3950723D02*
G01*
X6405138Y-4093979D01*
X6405138Y-3950723D02*
G01*
X6466352Y-3950723D01*
X6486926Y-3957581D01*
X6493530Y-3964439D01*
X6500388Y-3977901D01*
X6500388Y-3998475D01*
X6493530Y-4012191D01*
X6486926Y-4018795D01*
X6466352Y-4025653D01*
X6405138Y-4025653D01*
X6545346Y-3950723D02*
G01*
X6552204Y-3957581D01*
X6559062Y-3950723D01*
X6552204Y-3943865D01*
X6545346Y-3950723D01*
X6552204Y-3998475D02*
G01*
X6552204Y-4093979D01*
X6709176Y-3950723D02*
G01*
X6709176Y-4093979D01*
X6709176Y-3950723D02*
G01*
X6756928Y-3950723D01*
X6777248Y-3957581D01*
X6790964Y-3971297D01*
X6797822Y-3984759D01*
X6804680Y-4005333D01*
X6804680Y-4039369D01*
X6797822Y-4059943D01*
X6790964Y-4073405D01*
X6777248Y-4087121D01*
X6756928Y-4093979D01*
X6709176Y-4093979D01*
X6849638Y-4039369D02*
G01*
X6931426Y-4039369D01*
X6931426Y-4025653D01*
X6924568Y-4012191D01*
X6917710Y-4005333D01*
X6903994Y-3998475D01*
X6883674Y-3998475D01*
X6869958Y-4005333D01*
X6856496Y-4018795D01*
X6849638Y-4039369D01*
X6849638Y-4053085D01*
X6856496Y-4073405D01*
X6869958Y-4087121D01*
X6883674Y-4093979D01*
X6903994Y-4093979D01*
X6917710Y-4087121D01*
X6931426Y-4073405D01*
X6976384Y-3998475D02*
G01*
X7017278Y-4093979D01*
X7058172Y-3998475D02*
G01*
X7017278Y-4093979D01*
X5925078Y-4236473D02*
G01*
X5925078Y-4229615D01*
X5931936Y-4215899D01*
X5938540Y-4209041D01*
X5952256Y-4202437D01*
X5979688Y-4202437D01*
X5993150Y-4209041D01*
X6000008Y-4215899D01*
X6006866Y-4229615D01*
X6006866Y-4243331D01*
X6000008Y-4256793D01*
X5986292Y-4277367D01*
X5918220Y-4345439D01*
X6013724Y-4345439D01*
X6065540Y-4236473D02*
G01*
X6065540Y-4229615D01*
X6072398Y-4215899D01*
X6079002Y-4209041D01*
X6092718Y-4202437D01*
X6119896Y-4202437D01*
X6133612Y-4209041D01*
X6140470Y-4215899D01*
X6147328Y-4229615D01*
X6147328Y-4243331D01*
X6140470Y-4256793D01*
X6126754Y-4277367D01*
X6058682Y-4345439D01*
X6154186Y-4345439D01*
X6240038Y-4202437D02*
G01*
X6219464Y-4209041D01*
X6206002Y-4229615D01*
X6199144Y-4263651D01*
X6199144Y-4284225D01*
X6206002Y-4318261D01*
X6219464Y-4338581D01*
X6240038Y-4345439D01*
X6253754Y-4345439D01*
X6274074Y-4338581D01*
X6287790Y-4318261D01*
X6294648Y-4284225D01*
X6294648Y-4263651D01*
X6287790Y-4229615D01*
X6274074Y-4209041D01*
X6253754Y-4202437D01*
X6240038Y-4202437D01*
X6421394Y-4202437D02*
G01*
X6353322Y-4202437D01*
X6346464Y-4263651D01*
X6353322Y-4256793D01*
X6373642Y-4250189D01*
X6394216Y-4250189D01*
X6414536Y-4256793D01*
X6428252Y-4270509D01*
X6435110Y-4291083D01*
X6435110Y-4304545D01*
X6428252Y-4325119D01*
X6414536Y-4338581D01*
X6394216Y-4345439D01*
X6373642Y-4345439D01*
X6353322Y-4338581D01*
X6346464Y-4331977D01*
X6339606Y-4318261D01*
X6480068Y-4229615D02*
G01*
X6493530Y-4222757D01*
X6514104Y-4202437D01*
X6514104Y-4345439D01*
X6640850Y-4202437D02*
G01*
X6572778Y-4202437D01*
X6565920Y-4263651D01*
X6572778Y-4256793D01*
X6593098Y-4250189D01*
X6613672Y-4250189D01*
X6633992Y-4256793D01*
X6647708Y-4270509D01*
X6654566Y-4291083D01*
X6654566Y-4304545D01*
X6647708Y-4325119D01*
X6633992Y-4338581D01*
X6613672Y-4345439D01*
X6593098Y-4345439D01*
X6572778Y-4338581D01*
X6565920Y-4331977D01*
X6559062Y-4318261D01*
X6699524Y-4250189D02*
G01*
X6740418Y-4345439D01*
X6781312Y-4250189D02*
G01*
X6740418Y-4345439D01*
X6867164Y-4202437D02*
G01*
X6846844Y-4209041D01*
X6833128Y-4229615D01*
X6826270Y-4263651D01*
X6826270Y-4284225D01*
X6833128Y-4318261D01*
X6846844Y-4338581D01*
X6867164Y-4345439D01*
X6880880Y-4345439D01*
X6901454Y-4338581D01*
X6914916Y-4318261D01*
X6921774Y-4284225D01*
X6921774Y-4263651D01*
X6914916Y-4229615D01*
X6901454Y-4209041D01*
X6880880Y-4202437D01*
X6867164Y-4202437D01*
X6973590Y-4311403D02*
G01*
X6966732Y-4318261D01*
X6973590Y-4325119D01*
X6980448Y-4318261D01*
X6973590Y-4311403D01*
X7025406Y-4229615D02*
G01*
X7039122Y-4222757D01*
X7059442Y-4202437D01*
X7059442Y-4345439D01*
X7703063Y-6172707D02*
G01*
X7703063Y-6338823D01*
X7620005Y-6255765D02*
G01*
X7786121Y-6255765D01*
X7958079Y-6145021D02*
G01*
X7865623Y-6145021D01*
X7856479Y-6228079D01*
X7865623Y-6218936D01*
X7893309Y-6209537D01*
X7920995Y-6209537D01*
X7948681Y-6218936D01*
X7967223Y-6237223D01*
X7976621Y-6264910D01*
X7976621Y-6283452D01*
X7967223Y-6311137D01*
X7948681Y-6329679D01*
X7920995Y-6338823D01*
X7893309Y-6338823D01*
X7865623Y-6329679D01*
X7856479Y-6320536D01*
X7847081Y-6301994D01*
X8037581Y-6107937D02*
G01*
X8037581Y-6403594D01*
X8098541Y-6181852D02*
G01*
X8116829Y-6172707D01*
X8144515Y-6145021D01*
X8144515Y-6338823D01*
X8261101Y-6145021D02*
G01*
X8233161Y-6154165D01*
X8214873Y-6181852D01*
X8205475Y-6228079D01*
X8205475Y-6255765D01*
X8214873Y-6301994D01*
X8233161Y-6329679D01*
X8261101Y-6338823D01*
X8279389Y-6338823D01*
X8307075Y-6329679D01*
X8325617Y-6301994D01*
X8334761Y-6255765D01*
X8334761Y-6228079D01*
X8325617Y-6181852D01*
X8307075Y-6154165D01*
X8279389Y-6145021D01*
X8261101Y-6145021D01*
D11*
X10414000Y-1781555D02*
G01*
X10414000Y-2258821D01*
X10563859Y-1781555D02*
G01*
X10563859Y-2258821D01*
X10563859Y-1781555D02*
G01*
X10882122Y-2258821D01*
X10882122Y-1781555D02*
G01*
X10882122Y-2258821D01*
X11032236Y-1781555D02*
G01*
X11032236Y-2258821D01*
X11032236Y-1781555D02*
G01*
X11236706Y-1781555D01*
X11304777Y-1804162D01*
X11327638Y-1827021D01*
X11350243Y-1872234D01*
X11350243Y-1940560D01*
X11327638Y-1986026D01*
X11304777Y-2008631D01*
X11236706Y-2031492D01*
X11032236Y-2031492D01*
X11500358Y-1781555D02*
G01*
X11500358Y-2122423D01*
X11522963Y-2190495D01*
X11568429Y-2235962D01*
X11636756Y-2258821D01*
X11682222Y-2258821D01*
X11750293Y-2235962D01*
X11795759Y-2190495D01*
X11818620Y-2122423D01*
X11818620Y-1781555D01*
X12127738Y-1781555D02*
G01*
X12127738Y-2258821D01*
X11968479Y-1781555D02*
G01*
X12286741Y-1781555D01*
X12754863Y-1849628D02*
G01*
X12709397Y-1804162D01*
X12641325Y-1781555D01*
X12550393Y-1781555D01*
X12482068Y-1804162D01*
X12436602Y-1849628D01*
X12436602Y-1895094D01*
X12459461Y-1940560D01*
X12482068Y-1963165D01*
X12527534Y-1986026D01*
X12663931Y-2031492D01*
X12709397Y-2054097D01*
X12732258Y-2076957D01*
X12754863Y-2122423D01*
X12754863Y-2190495D01*
X12709397Y-2235962D01*
X12641325Y-2258821D01*
X12550393Y-2258821D01*
X12482068Y-2235962D01*
X12436602Y-2190495D01*
X13527531Y-1940560D02*
G01*
X13527531Y-2258821D01*
X13527531Y-2008631D02*
G01*
X13482066Y-1963165D01*
X13436600Y-1940560D01*
X13368527Y-1940560D01*
X13323061Y-1963165D01*
X13277595Y-2008631D01*
X13254990Y-2076957D01*
X13254990Y-2122423D01*
X13277595Y-2190495D01*
X13323061Y-2235962D01*
X13368527Y-2258821D01*
X13436600Y-2258821D01*
X13482066Y-2235962D01*
X13527531Y-2190495D01*
X13677645Y-1940560D02*
G01*
X13677645Y-2258821D01*
X13677645Y-2031492D02*
G01*
X13745718Y-1963165D01*
X13791184Y-1940560D01*
X13859509Y-1940560D01*
X13904975Y-1963165D01*
X13927581Y-2031492D01*
X13927581Y-2258821D01*
X14350238Y-1781555D02*
G01*
X14350238Y-2258821D01*
X14350238Y-2008631D02*
G01*
X14304772Y-1963165D01*
X14259306Y-1940560D01*
X14191234Y-1940560D01*
X14145768Y-1963165D01*
X14100302Y-2008631D01*
X14077695Y-2076957D01*
X14077695Y-2122423D01*
X14100302Y-2190495D01*
X14145768Y-2235962D01*
X14191234Y-2258821D01*
X14259306Y-2258821D01*
X14304772Y-2235962D01*
X14350238Y-2190495D01*
X14986761Y-1781555D02*
G01*
X14941295Y-1804162D01*
X14895829Y-1849628D01*
X14872970Y-1895094D01*
X14850363Y-1963165D01*
X14850363Y-2076957D01*
X14872970Y-2145029D01*
X14895829Y-2190495D01*
X14941295Y-2235962D01*
X14986761Y-2258821D01*
X15077693Y-2258821D01*
X15123159Y-2235962D01*
X15168625Y-2190495D01*
X15191231Y-2145029D01*
X15214091Y-2076957D01*
X15214091Y-1963165D01*
X15191231Y-1895094D01*
X15168625Y-1849628D01*
X15123159Y-1804162D01*
X15077693Y-1781555D01*
X14986761Y-1781555D01*
X15363952Y-1781555D02*
G01*
X15363952Y-2122423D01*
X15386811Y-2190495D01*
X15432277Y-2235962D01*
X15500350Y-2258821D01*
X15545816Y-2258821D01*
X15613888Y-2235962D01*
X15659354Y-2190495D01*
X15682213Y-2122423D01*
X15682213Y-1781555D01*
X15991331Y-1781555D02*
G01*
X15991331Y-2258821D01*
X15832074Y-1781555D02*
G01*
X16150336Y-1781555D01*
X16300450Y-1781555D02*
G01*
X16300450Y-2258821D01*
X16300450Y-1781555D02*
G01*
X16504920Y-1781555D01*
X16572991Y-1804162D01*
X16595852Y-1827021D01*
X16618458Y-1872234D01*
X16618458Y-1940560D01*
X16595852Y-1986026D01*
X16572991Y-2008631D01*
X16504920Y-2031492D01*
X16300450Y-2031492D01*
X16768572Y-1781555D02*
G01*
X16768572Y-2122423D01*
X16791177Y-2190495D01*
X16836643Y-2235962D01*
X16904970Y-2258821D01*
X16950436Y-2258821D01*
X17018508Y-2235962D01*
X17063974Y-2190495D01*
X17086579Y-2122423D01*
X17086579Y-1781555D01*
X17395698Y-1781555D02*
G01*
X17395698Y-2258821D01*
X17236693Y-1781555D02*
G01*
X17554956Y-1781555D01*
X18023077Y-1849628D02*
G01*
X17977611Y-1804162D01*
X17909540Y-1781555D01*
X17818608Y-1781555D01*
X17750281Y-1804162D01*
X17704816Y-1849628D01*
X17704816Y-1895094D01*
X17727675Y-1940560D01*
X17750281Y-1963165D01*
X17795748Y-1986026D01*
X17932145Y-2031492D01*
X17977611Y-2054097D01*
X18000218Y-2076957D01*
X18023077Y-2122423D01*
X18023077Y-2190495D01*
X17977611Y-2235962D01*
X17909540Y-2258821D01*
X17818608Y-2258821D01*
X17750281Y-2235962D01*
X17704816Y-2190495D01*
X18704813Y-1781555D02*
G01*
X18522950Y-2258821D01*
X18704813Y-1781555D02*
G01*
X18886677Y-2258821D01*
X18591275Y-2099563D02*
G01*
X18818606Y-2099563D01*
X19036791Y-1781555D02*
G01*
X19036791Y-2258821D01*
X19036791Y-1781555D02*
G01*
X19241261Y-1781555D01*
X19309334Y-1804162D01*
X19332193Y-1827021D01*
X19354800Y-1872234D01*
X19354800Y-1917700D01*
X19332193Y-1963165D01*
X19309334Y-1986026D01*
X19241261Y-2008631D01*
X19036791Y-2008631D01*
X19195795Y-2008631D02*
G01*
X19354800Y-2258821D01*
X19504913Y-1781555D02*
G01*
X19504913Y-2258821D01*
X19504913Y-1781555D02*
G01*
X19800316Y-1781555D01*
X19504913Y-2008631D02*
G01*
X19686777Y-2008631D01*
X19504913Y-2258821D02*
G01*
X19800316Y-2258821D01*
X20300441Y-1781555D02*
G01*
X20300441Y-2258821D01*
X20450302Y-1781555D02*
G01*
X20450302Y-2258821D01*
X20450302Y-1781555D02*
G01*
X20768563Y-2258821D01*
X20768563Y-1781555D02*
G01*
X20768563Y-2258821D01*
X20918424Y-1781555D02*
G01*
X21100288Y-2258821D01*
X21282152Y-1781555D02*
G01*
X21100288Y-2258821D01*
X21432266Y-1781555D02*
G01*
X21432266Y-2258821D01*
X21432266Y-1781555D02*
G01*
X21727668Y-1781555D01*
X21432266Y-2008631D02*
G01*
X21613875Y-2008631D01*
X21432266Y-2258821D02*
G01*
X21727668Y-2258821D01*
X21877527Y-1781555D02*
G01*
X21877527Y-2258821D01*
X21877527Y-1781555D02*
G01*
X22082252Y-1781555D01*
X22150324Y-1804162D01*
X22172929Y-1827021D01*
X22195790Y-1872234D01*
X22195790Y-1917700D01*
X22172929Y-1963165D01*
X22150324Y-1986026D01*
X22082252Y-2008631D01*
X21877527Y-2008631D01*
X22036786Y-2008631D02*
G01*
X22195790Y-2258821D01*
X22504908Y-1781555D02*
G01*
X22504908Y-2258821D01*
X22345650Y-1781555D02*
G01*
X22663911Y-1781555D01*
X22814025Y-1781555D02*
G01*
X22814025Y-2258821D01*
X22814025Y-1781555D02*
G01*
X23109427Y-1781555D01*
X22814025Y-2008631D02*
G01*
X22995890Y-2008631D01*
X22814025Y-2258821D02*
G01*
X23109427Y-2258821D01*
X23259288Y-1781555D02*
G01*
X23259288Y-2258821D01*
X23259288Y-1781555D02*
G01*
X23418545Y-1781555D01*
X23486618Y-1804162D01*
X23532084Y-1849628D01*
X23554943Y-1895094D01*
X23577550Y-1963165D01*
X23577550Y-2076957D01*
X23554943Y-2145029D01*
X23532084Y-2190495D01*
X23486618Y-2235962D01*
X23418545Y-2258821D01*
X23259288Y-2258821D01*
X23750270Y-1781555D02*
G01*
X23750270Y-2099563D01*
X23750270Y-2213355D02*
G01*
X23727663Y-2235962D01*
X23750270Y-2258821D01*
X23773129Y-2235962D01*
X23750270Y-2213355D01*
D12*
X3087877Y-6705092D02*
G01*
X3082543Y-6694678D01*
X3072129Y-6684263D01*
X3061970Y-6679184D01*
X3041141Y-6679184D01*
X3030727Y-6684263D01*
X3020313Y-6694678D01*
X3014979Y-6705092D01*
X3009900Y-6720839D01*
X3009900Y-6746747D01*
X3014979Y-6762242D01*
X3020313Y-6772655D01*
X3030727Y-6783070D01*
X3041141Y-6788150D01*
X3061970Y-6788150D01*
X3072129Y-6783070D01*
X3082543Y-6772655D01*
X3087877Y-6762242D01*
X3122168Y-6700012D02*
G01*
X3132581Y-6694678D01*
X3148075Y-6679184D01*
X3148075Y-6788150D01*
X3244850Y-6694678D02*
G01*
X3239515Y-6684263D01*
X3224022Y-6679184D01*
X3213608Y-6679184D01*
X3197859Y-6684263D01*
X3187700Y-6700012D01*
X3182365Y-6725920D01*
X3182365Y-6751828D01*
X3187700Y-6772655D01*
X3197859Y-6783070D01*
X3213608Y-6788150D01*
X3218688Y-6788150D01*
X3234436Y-6783070D01*
X3244850Y-6772655D01*
X3249929Y-6757162D01*
X3249929Y-6751828D01*
X3244850Y-6736334D01*
X3234436Y-6725920D01*
X3218688Y-6720839D01*
X3213608Y-6720839D01*
X3197859Y-6725920D01*
X3187700Y-6736334D01*
X3182365Y-6751828D01*
X6351777Y-6527292D02*
G01*
X6346443Y-6516878D01*
X6336029Y-6506463D01*
X6325870Y-6501384D01*
X6305041Y-6501384D01*
X6294627Y-6506463D01*
X6284213Y-6516878D01*
X6278879Y-6527292D01*
X6273800Y-6543039D01*
X6273800Y-6568947D01*
X6278879Y-6584442D01*
X6284213Y-6594855D01*
X6294627Y-6605270D01*
X6305041Y-6610350D01*
X6325870Y-6610350D01*
X6336029Y-6605270D01*
X6346443Y-6594855D01*
X6351777Y-6584442D01*
X6386068Y-6522212D02*
G01*
X6396481Y-6516878D01*
X6411975Y-6501384D01*
X6411975Y-6610350D01*
X6472174Y-6501384D02*
G01*
X6456679Y-6506463D01*
X6451600Y-6516878D01*
X6451600Y-6527292D01*
X6456679Y-6537705D01*
X6467093Y-6543039D01*
X6487922Y-6548120D01*
X6503415Y-6553200D01*
X6513829Y-6563613D01*
X6518909Y-6574028D01*
X6518909Y-6589776D01*
X6513829Y-6600189D01*
X6508750Y-6605270D01*
X6493002Y-6610350D01*
X6472174Y-6610350D01*
X6456679Y-6605270D01*
X6451600Y-6600189D01*
X6446265Y-6589776D01*
X6446265Y-6574028D01*
X6451600Y-6563613D01*
X6461759Y-6553200D01*
X6477508Y-6548120D01*
X6498336Y-6543039D01*
X6508750Y-6537705D01*
X6513829Y-6527292D01*
X6513829Y-6516878D01*
X6508750Y-6506463D01*
X6493002Y-6501384D01*
X6472174Y-6501384D01*
X1091692Y-3376421D02*
G01*
X1081278Y-3381755D01*
X1070863Y-3392170D01*
X1065784Y-3402329D01*
X1065784Y-3423157D01*
X1070863Y-3433571D01*
X1081278Y-3443986D01*
X1091692Y-3449320D01*
X1107439Y-3454400D01*
X1133347Y-3454400D01*
X1148842Y-3449320D01*
X1159255Y-3443986D01*
X1169670Y-3433571D01*
X1174750Y-3423157D01*
X1174750Y-3402329D01*
X1169670Y-3392170D01*
X1159255Y-3381755D01*
X1148842Y-3376421D01*
X1065784Y-3342131D02*
G01*
X1174750Y-3342131D01*
X1065784Y-3342131D02*
G01*
X1174750Y-3269487D01*
X1065784Y-3269487D02*
G01*
X1174750Y-3269487D01*
X1086612Y-3235197D02*
G01*
X1081278Y-3224784D01*
X1065784Y-3209289D01*
X1174750Y-3209289D01*
X7416787Y-1853184D02*
G01*
X7416787Y-1962150D01*
X7416787Y-1853184D02*
G01*
X7453109Y-1853184D01*
X7468857Y-1858263D01*
X7479017Y-1868678D01*
X7484351Y-1879092D01*
X7489431Y-1894839D01*
X7489431Y-1920747D01*
X7484351Y-1936242D01*
X7479017Y-1946655D01*
X7468857Y-1957070D01*
X7453109Y-1962150D01*
X7416787Y-1962150D01*
X7529055Y-1879092D02*
G01*
X7529055Y-1874012D01*
X7534135Y-1863597D01*
X7539469Y-1858263D01*
X7549883Y-1853184D01*
X7570457Y-1853184D01*
X7580871Y-1858263D01*
X7586205Y-1863597D01*
X7591285Y-1874012D01*
X7591285Y-1884426D01*
X7586205Y-1894839D01*
X7575791Y-1910334D01*
X7523721Y-1962150D01*
X7596619Y-1962150D01*
X6565900Y-2056384D02*
G01*
X6565900Y-2165350D01*
X6565900Y-2165350D02*
G01*
X6628129Y-2165350D01*
X6662420Y-2077212D02*
G01*
X6672834Y-2071878D01*
X6688581Y-2056384D01*
X6688581Y-2165350D01*
X8548115Y-4584700D02*
G01*
X8439150Y-4584700D01*
X8439150Y-4584700D02*
G01*
X8439150Y-4646929D01*
X8522208Y-4686554D02*
G01*
X8527288Y-4686554D01*
X8537702Y-4691634D01*
X8543036Y-4696968D01*
X8548115Y-4707381D01*
X8548115Y-4728210D01*
X8543036Y-4738370D01*
X8537702Y-4743704D01*
X8527288Y-4748784D01*
X8516874Y-4748784D01*
X8506459Y-4743704D01*
X8490965Y-4733289D01*
X8439150Y-4681220D01*
X8439150Y-4754118D01*
X577342Y-5802884D02*
G01*
X566928Y-5807963D01*
X556513Y-5818378D01*
X551179Y-5828792D01*
X546100Y-5844539D01*
X546100Y-5870447D01*
X551179Y-5885942D01*
X556513Y-5896355D01*
X566928Y-5906770D01*
X577342Y-5911850D01*
X598170Y-5911850D01*
X608329Y-5906770D01*
X618744Y-5896355D01*
X624078Y-5885942D01*
X629157Y-5870447D01*
X629157Y-5844539D01*
X624078Y-5828792D01*
X618744Y-5818378D01*
X608329Y-5807963D01*
X598170Y-5802884D01*
X577342Y-5802884D01*
X592836Y-5891276D02*
G01*
X624078Y-5922263D01*
X663447Y-5823712D02*
G01*
X673862Y-5818378D01*
X689610Y-5802884D01*
X689610Y-5911850D01*
X7854441Y-6552184D02*
G01*
X7844027Y-6557263D01*
X7833613Y-6567678D01*
X7828279Y-6578092D01*
X7823200Y-6593839D01*
X7823200Y-6619747D01*
X7828279Y-6635242D01*
X7833613Y-6645655D01*
X7844027Y-6656070D01*
X7854441Y-6661150D01*
X7875270Y-6661150D01*
X7885429Y-6656070D01*
X7895843Y-6645655D01*
X7901177Y-6635242D01*
X7906258Y-6619747D01*
X7906258Y-6593839D01*
X7901177Y-6578092D01*
X7895843Y-6567678D01*
X7885429Y-6557263D01*
X7875270Y-6552184D01*
X7854441Y-6552184D01*
X7869936Y-6640576D02*
G01*
X7901177Y-6671563D01*
X7945881Y-6578092D02*
G01*
X7945881Y-6573012D01*
X7950961Y-6562597D01*
X7956295Y-6557263D01*
X7966709Y-6552184D01*
X7987284Y-6552184D01*
X7997697Y-6557263D01*
X8003031Y-6562597D01*
X8008111Y-6573012D01*
X8008111Y-6583426D01*
X8003031Y-6593839D01*
X7992618Y-6609334D01*
X7940547Y-6661150D01*
X8013445Y-6661150D01*
X4292600Y-8292084D02*
G01*
X4292600Y-8401050D01*
X4292600Y-8292084D02*
G01*
X4339336Y-8292084D01*
X4354829Y-8297163D01*
X4360163Y-8302497D01*
X4365243Y-8312912D01*
X4365243Y-8323326D01*
X4360163Y-8333739D01*
X4354829Y-8338820D01*
X4339336Y-8343900D01*
X4292600Y-8343900D01*
X4328922Y-8343900D02*
G01*
X4365243Y-8401050D01*
X4404868Y-8317992D02*
G01*
X4404868Y-8312912D01*
X4409947Y-8302497D01*
X4415281Y-8297163D01*
X4425695Y-8292084D01*
X4446270Y-8292084D01*
X4456684Y-8297163D01*
X4462018Y-8302497D01*
X4467097Y-8312912D01*
X4467097Y-8323326D01*
X4462018Y-8333739D01*
X4451604Y-8349234D01*
X4399534Y-8401050D01*
X4472431Y-8401050D01*
X4568952Y-8307578D02*
G01*
X4563872Y-8297163D01*
X4548124Y-8292084D01*
X4537709Y-8292084D01*
X4522215Y-8297163D01*
X4511802Y-8312912D01*
X4506722Y-8338820D01*
X4506722Y-8364728D01*
X4511802Y-8385555D01*
X4522215Y-8395970D01*
X4537709Y-8401050D01*
X4543043Y-8401050D01*
X4558538Y-8395970D01*
X4568952Y-8385555D01*
X4574286Y-8370062D01*
X4574286Y-8364728D01*
X4568952Y-8349234D01*
X4558538Y-8338820D01*
X4543043Y-8333739D01*
X4537709Y-8333739D01*
X4522215Y-8338820D01*
X4511802Y-8349234D01*
X4506722Y-8364728D01*
X3009910Y-8622284D02*
G01*
X3009910Y-8731250D01*
X3009910Y-8622284D02*
G01*
X3056646Y-8622284D01*
X3072140Y-8627363D01*
X3077474Y-8632697D01*
X3082554Y-8643112D01*
X3082554Y-8653526D01*
X3077474Y-8663939D01*
X3072140Y-8669020D01*
X3056646Y-8674100D01*
X3009910Y-8674100D01*
X3046232Y-8674100D02*
G01*
X3082554Y-8731250D01*
X3116844Y-8643112D02*
G01*
X3127258Y-8637778D01*
X3143006Y-8622284D01*
X3143006Y-8731250D01*
X3239526Y-8637778D02*
G01*
X3234446Y-8627363D01*
X3218698Y-8622284D01*
X3208284Y-8622284D01*
X3192790Y-8627363D01*
X3182376Y-8643112D01*
X3177296Y-8669020D01*
X3177296Y-8694928D01*
X3182376Y-8715755D01*
X3192790Y-8726170D01*
X3208284Y-8731250D01*
X3213618Y-8731250D01*
X3229112Y-8726170D01*
X3239526Y-8715755D01*
X3244860Y-8700262D01*
X3244860Y-8694928D01*
X3239526Y-8679434D01*
X3229112Y-8669020D01*
X3213618Y-8663939D01*
X3208284Y-8663939D01*
X3192790Y-8669020D01*
X3182376Y-8679434D01*
X3177296Y-8694928D01*
X928115Y-8343900D02*
G01*
X819150Y-8343900D01*
X928115Y-8343900D02*
G01*
X928115Y-8390636D01*
X923036Y-8406129D01*
X917702Y-8411463D01*
X907287Y-8416544D01*
X896873Y-8416544D01*
X886460Y-8411463D01*
X881379Y-8406129D01*
X876300Y-8390636D01*
X876300Y-8343900D01*
X876300Y-8380221D02*
G01*
X819150Y-8416544D01*
X928115Y-8513318D02*
G01*
X928115Y-8461247D01*
X881379Y-8456168D01*
X886460Y-8461247D01*
X891794Y-8476995D01*
X891794Y-8492489D01*
X886460Y-8507984D01*
X876300Y-8518397D01*
X860552Y-8523731D01*
X850137Y-8523731D01*
X834644Y-8518397D01*
X824229Y-8507984D01*
X819150Y-8492489D01*
X819150Y-8476995D01*
X824229Y-8461247D01*
X829310Y-8456168D01*
X839723Y-8450834D01*
X7340600Y-6171184D02*
G01*
X7340600Y-6249162D01*
X7345679Y-6264655D01*
X7356093Y-6275070D01*
X7371841Y-6280150D01*
X7382256Y-6280150D01*
X7397750Y-6275070D01*
X7408163Y-6264655D01*
X7413243Y-6249162D01*
X7413243Y-6171184D01*
X7447534Y-6192012D02*
G01*
X7457947Y-6186678D01*
X7473695Y-6171184D01*
X7473695Y-6280150D01*
X7513065Y-6197092D02*
G01*
X7513065Y-6192012D01*
X7518400Y-6181597D01*
X7523479Y-6176263D01*
X7533893Y-6171184D01*
X7554722Y-6171184D01*
X7565136Y-6176263D01*
X7570215Y-6181597D01*
X7575550Y-6192012D01*
X7575550Y-6202426D01*
X7570215Y-6212839D01*
X7559802Y-6228334D01*
X7507986Y-6280150D01*
X7580629Y-6280150D01*
X4394200Y-9701789D02*
G01*
X4394200Y-9779767D01*
X4399279Y-9795261D01*
X4409693Y-9805675D01*
X4425441Y-9810755D01*
X4435856Y-9810755D01*
X4451350Y-9805675D01*
X4461763Y-9795261D01*
X4466843Y-9779767D01*
X4466843Y-9701789D01*
X4501134Y-9722617D02*
G01*
X4511547Y-9717283D01*
X4527295Y-9701789D01*
X4527295Y-9810755D01*
X1613405Y-8714018D02*
G01*
X1623819Y-8708684D01*
X1634233Y-8698270D01*
X1639313Y-8687856D01*
X1639313Y-8667028D01*
X1634233Y-8656868D01*
X1623819Y-8646454D01*
X1613405Y-8641120D01*
X1597657Y-8636040D01*
X1571749Y-8636040D01*
X1556255Y-8641120D01*
X1545841Y-8646454D01*
X1535427Y-8656868D01*
X1530347Y-8667028D01*
X1530347Y-8687856D01*
X1535427Y-8698270D01*
X1545841Y-8708684D01*
X1556255Y-8714018D01*
X1618485Y-8748308D02*
G01*
X1623819Y-8758468D01*
X1639313Y-8774216D01*
X1530347Y-8774216D01*
X1475036Y-7898892D02*
G01*
X1469702Y-7888478D01*
X1459288Y-7878063D01*
X1448874Y-7872984D01*
X1428046Y-7872984D01*
X1417886Y-7878063D01*
X1407472Y-7888478D01*
X1402138Y-7898892D01*
X1397058Y-7914639D01*
X1397058Y-7940547D01*
X1402138Y-7956042D01*
X1407472Y-7966455D01*
X1417886Y-7976870D01*
X1428046Y-7981950D01*
X1448874Y-7981950D01*
X1459288Y-7976870D01*
X1469702Y-7966455D01*
X1475036Y-7956042D01*
X1514406Y-7898892D02*
G01*
X1514406Y-7893812D01*
X1519486Y-7883397D01*
X1524820Y-7878063D01*
X1535234Y-7872984D01*
X1556062Y-7872984D01*
X1566476Y-7878063D01*
X1571556Y-7883397D01*
X1576636Y-7893812D01*
X1576636Y-7904226D01*
X1571556Y-7914639D01*
X1561142Y-7930134D01*
X1509326Y-7981950D01*
X1581970Y-7981950D01*
X3164136Y-7644892D02*
G01*
X3158802Y-7634478D01*
X3148388Y-7624063D01*
X3137974Y-7618984D01*
X3117146Y-7618984D01*
X3106986Y-7624063D01*
X3096572Y-7634478D01*
X3091238Y-7644892D01*
X3086158Y-7660639D01*
X3086158Y-7686547D01*
X3091238Y-7702042D01*
X3096572Y-7712455D01*
X3106986Y-7722870D01*
X3117146Y-7727950D01*
X3137974Y-7727950D01*
X3148388Y-7722870D01*
X3158802Y-7712455D01*
X3164136Y-7702042D01*
X3208586Y-7618984D02*
G01*
X3265736Y-7618984D01*
X3234748Y-7660639D01*
X3250242Y-7660639D01*
X3260656Y-7665720D01*
X3265736Y-7670800D01*
X3271070Y-7686547D01*
X3271070Y-7696962D01*
X3265736Y-7712455D01*
X3255576Y-7722870D01*
X3239828Y-7727950D01*
X3224334Y-7727950D01*
X3208586Y-7722870D01*
X3203506Y-7717789D01*
X3198426Y-7707376D01*
X4815136Y-7924292D02*
G01*
X4809802Y-7913878D01*
X4799388Y-7903463D01*
X4788974Y-7898384D01*
X4768146Y-7898384D01*
X4757986Y-7903463D01*
X4747572Y-7913878D01*
X4742238Y-7924292D01*
X4737158Y-7940039D01*
X4737158Y-7965947D01*
X4742238Y-7981442D01*
X4747572Y-7991855D01*
X4757986Y-8002270D01*
X4768146Y-8007350D01*
X4788974Y-8007350D01*
X4799388Y-8002270D01*
X4809802Y-7991855D01*
X4815136Y-7981442D01*
X4901242Y-7898384D02*
G01*
X4849426Y-7971028D01*
X4927150Y-7971028D01*
X4901242Y-7898384D02*
G01*
X4901242Y-8007350D01*
X268452Y-291592D02*
G01*
X263372Y-281178D01*
X252958Y-270763D01*
X242544Y-265684D01*
X221716Y-265684D01*
X211302Y-270763D01*
X200888Y-281178D01*
X195808Y-291592D01*
X190474Y-307339D01*
X190474Y-333247D01*
X195808Y-348742D01*
X200888Y-359155D01*
X211302Y-369570D01*
X221716Y-374650D01*
X242544Y-374650D01*
X252958Y-369570D01*
X263372Y-359155D01*
X268452Y-348742D01*
X364972Y-265684D02*
G01*
X313156Y-265684D01*
X307822Y-312420D01*
X313156Y-307339D01*
X328650Y-302005D01*
X344398Y-302005D01*
X359892Y-307339D01*
X370306Y-317500D01*
X375386Y-333247D01*
X375386Y-343662D01*
X370306Y-359155D01*
X359892Y-369570D01*
X344398Y-374650D01*
X328650Y-374650D01*
X313156Y-369570D01*
X307822Y-364489D01*
X302742Y-354076D01*
X6439408Y-8395525D02*
G01*
X6449822Y-8390191D01*
X6460236Y-8379777D01*
X6465315Y-8369363D01*
X6465315Y-8348535D01*
X6460236Y-8338375D01*
X6449822Y-8327961D01*
X6439408Y-8322627D01*
X6423659Y-8317547D01*
X6397752Y-8317547D01*
X6382258Y-8322627D01*
X6371843Y-8327961D01*
X6361429Y-8338375D01*
X6356350Y-8348535D01*
X6356350Y-8369363D01*
X6361429Y-8379777D01*
X6371843Y-8390191D01*
X6382258Y-8395525D01*
X6449822Y-8492045D02*
G01*
X6460236Y-8486965D01*
X6465315Y-8471217D01*
X6465315Y-8460803D01*
X6460236Y-8445309D01*
X6444488Y-8434895D01*
X6418579Y-8429815D01*
X6392672Y-8429815D01*
X6371843Y-8434895D01*
X6361429Y-8445309D01*
X6356350Y-8460803D01*
X6356350Y-8466137D01*
X6361429Y-8481631D01*
X6371843Y-8492045D01*
X6387338Y-8497125D01*
X6392672Y-8497125D01*
X6408165Y-8492045D01*
X6418579Y-8481631D01*
X6423659Y-8466137D01*
X6423659Y-8460803D01*
X6418579Y-8445309D01*
X6408165Y-8434895D01*
X6392672Y-8429815D01*
X7964741Y-8521192D02*
G01*
X7959407Y-8510778D01*
X7948993Y-8500363D01*
X7938579Y-8495284D01*
X7917751Y-8495284D01*
X7907591Y-8500363D01*
X7897177Y-8510778D01*
X7891843Y-8521192D01*
X7886763Y-8536939D01*
X7886763Y-8562847D01*
X7891843Y-8578342D01*
X7897177Y-8588755D01*
X7907591Y-8599170D01*
X7917751Y-8604250D01*
X7938579Y-8604250D01*
X7948993Y-8599170D01*
X7959407Y-8588755D01*
X7964741Y-8578342D01*
X8071675Y-8495284D02*
G01*
X8019605Y-8604250D01*
X7999031Y-8495284D02*
G01*
X8071675Y-8495284D01*
X6313652Y-1218692D02*
G01*
X6308572Y-1208278D01*
X6298158Y-1197863D01*
X6287744Y-1192784D01*
X6266916Y-1192784D01*
X6256502Y-1197863D01*
X6246088Y-1208278D01*
X6241008Y-1218692D01*
X6235674Y-1234439D01*
X6235674Y-1260347D01*
X6241008Y-1275842D01*
X6246088Y-1286255D01*
X6256502Y-1296670D01*
X6266916Y-1301750D01*
X6287744Y-1301750D01*
X6298158Y-1296670D01*
X6308572Y-1286255D01*
X6313652Y-1275842D01*
X6373850Y-1192784D02*
G01*
X6358356Y-1197863D01*
X6353022Y-1208278D01*
X6353022Y-1218692D01*
X6358356Y-1229105D01*
X6368770Y-1234439D01*
X6389598Y-1239520D01*
X6405092Y-1244600D01*
X6415506Y-1255013D01*
X6420586Y-1265428D01*
X6420586Y-1281176D01*
X6415506Y-1291589D01*
X6410172Y-1296670D01*
X6394678Y-1301750D01*
X6373850Y-1301750D01*
X6358356Y-1296670D01*
X6353022Y-1291589D01*
X6347942Y-1281176D01*
X6347942Y-1265428D01*
X6353022Y-1255013D01*
X6363436Y-1244600D01*
X6379184Y-1239520D01*
X6400012Y-1234439D01*
X6410172Y-1229105D01*
X6415506Y-1218692D01*
X6415506Y-1208278D01*
X6410172Y-1197863D01*
X6394678Y-1192784D01*
X6373850Y-1192784D01*
X8078876Y-1078992D02*
G01*
X8073796Y-1068578D01*
X8063382Y-1058163D01*
X8052968Y-1053084D01*
X8032140Y-1053084D01*
X8021726Y-1058163D01*
X8011312Y-1068578D01*
X8006232Y-1078992D01*
X8000898Y-1094739D01*
X8000898Y-1120647D01*
X8006232Y-1136142D01*
X8011312Y-1146555D01*
X8021726Y-1156970D01*
X8032140Y-1162050D01*
X8052968Y-1162050D01*
X8063382Y-1156970D01*
X8073796Y-1146555D01*
X8078876Y-1136142D01*
X8180730Y-1089405D02*
G01*
X8175650Y-1104900D01*
X8165236Y-1115313D01*
X8149488Y-1120647D01*
X8144408Y-1120647D01*
X8128914Y-1115313D01*
X8118500Y-1104900D01*
X8113166Y-1089405D01*
X8113166Y-1084326D01*
X8118500Y-1068578D01*
X8128914Y-1058163D01*
X8144408Y-1053084D01*
X8149488Y-1053084D01*
X8165236Y-1058163D01*
X8175650Y-1068578D01*
X8180730Y-1089405D01*
X8180730Y-1115313D01*
X8175650Y-1141476D01*
X8165236Y-1156970D01*
X8149488Y-1162050D01*
X8139074Y-1162050D01*
X8123580Y-1156970D01*
X8118500Y-1146555D01*
X5043652Y-3034792D02*
G01*
X5038572Y-3024378D01*
X5028158Y-3013963D01*
X5017744Y-3008884D01*
X4996916Y-3008884D01*
X4986502Y-3013963D01*
X4976088Y-3024378D01*
X4971008Y-3034792D01*
X4965674Y-3050539D01*
X4965674Y-3076447D01*
X4971008Y-3091942D01*
X4976088Y-3102355D01*
X4986502Y-3112770D01*
X4996916Y-3117850D01*
X5017744Y-3117850D01*
X5028158Y-3112770D01*
X5038572Y-3102355D01*
X5043652Y-3091942D01*
X5077942Y-3029712D02*
G01*
X5088356Y-3024378D01*
X5103850Y-3008884D01*
X5103850Y-3117850D01*
X5169382Y-3008884D02*
G01*
X5153888Y-3013963D01*
X5143474Y-3029712D01*
X5138140Y-3055620D01*
X5138140Y-3071113D01*
X5143474Y-3097276D01*
X5153888Y-3112770D01*
X5169382Y-3117850D01*
X5179796Y-3117850D01*
X5195290Y-3112770D01*
X5205704Y-3097276D01*
X5211038Y-3071113D01*
X5211038Y-3055620D01*
X5205704Y-3029712D01*
X5195290Y-3013963D01*
X5179796Y-3008884D01*
X5169382Y-3008884D01*
X3886708Y-3100552D02*
G01*
X3897122Y-3095472D01*
X3907536Y-3085058D01*
X3912615Y-3074644D01*
X3912615Y-3053816D01*
X3907536Y-3043402D01*
X3897122Y-3032988D01*
X3886708Y-3027908D01*
X3870959Y-3022574D01*
X3845052Y-3022574D01*
X3829558Y-3027908D01*
X3819143Y-3032988D01*
X3808729Y-3043402D01*
X3803650Y-3053816D01*
X3803650Y-3074644D01*
X3808729Y-3085058D01*
X3819143Y-3095472D01*
X3829558Y-3100552D01*
X3891788Y-3134842D02*
G01*
X3897122Y-3145256D01*
X3912615Y-3160750D01*
X3803650Y-3160750D01*
X3891788Y-3195040D02*
G01*
X3897122Y-3205454D01*
X3912615Y-3221202D01*
X3803650Y-3221202D01*
X7583589Y-4215892D02*
G01*
X7578509Y-4205478D01*
X7568095Y-4195063D01*
X7557681Y-4189984D01*
X7536853Y-4189984D01*
X7526439Y-4195063D01*
X7516025Y-4205478D01*
X7510945Y-4215892D01*
X7505611Y-4231639D01*
X7505611Y-4257547D01*
X7510945Y-4273042D01*
X7516025Y-4283455D01*
X7526439Y-4293870D01*
X7536853Y-4298950D01*
X7557681Y-4298950D01*
X7568095Y-4293870D01*
X7578509Y-4283455D01*
X7583589Y-4273042D01*
X7617879Y-4210812D02*
G01*
X7628293Y-4205478D01*
X7643787Y-4189984D01*
X7643787Y-4298950D01*
X7683411Y-4215892D02*
G01*
X7683411Y-4210812D01*
X7688491Y-4200397D01*
X7693825Y-4195063D01*
X7704239Y-4189984D01*
X7725067Y-4189984D01*
X7735227Y-4195063D01*
X7740561Y-4200397D01*
X7745641Y-4210812D01*
X7745641Y-4221226D01*
X7740561Y-4231639D01*
X7730147Y-4247134D01*
X7678077Y-4298950D01*
X7750975Y-4298950D01*
X8675877Y-1066292D02*
G01*
X8670543Y-1055878D01*
X8660129Y-1045463D01*
X8649970Y-1040384D01*
X8629141Y-1040384D01*
X8618727Y-1045463D01*
X8608313Y-1055878D01*
X8602979Y-1066292D01*
X8597900Y-1082039D01*
X8597900Y-1107947D01*
X8602979Y-1123442D01*
X8608313Y-1133855D01*
X8618727Y-1144270D01*
X8629141Y-1149350D01*
X8649970Y-1149350D01*
X8660129Y-1144270D01*
X8670543Y-1133855D01*
X8675877Y-1123442D01*
X8710168Y-1061212D02*
G01*
X8720581Y-1055878D01*
X8736075Y-1040384D01*
X8736075Y-1149350D01*
X8780779Y-1040384D02*
G01*
X8837929Y-1040384D01*
X8806688Y-1082039D01*
X8822436Y-1082039D01*
X8832850Y-1087120D01*
X8837929Y-1092200D01*
X8843009Y-1107947D01*
X8843009Y-1118362D01*
X8837929Y-1133855D01*
X8827515Y-1144270D01*
X8812022Y-1149350D01*
X8796274Y-1149350D01*
X8780779Y-1144270D01*
X8775700Y-1139189D01*
X8770365Y-1128776D01*
X7063003Y-1218717D02*
G01*
X7057669Y-1208303D01*
X7047255Y-1197889D01*
X7036841Y-1192809D01*
X7016267Y-1192809D01*
X7005853Y-1197889D01*
X6995439Y-1208303D01*
X6990105Y-1218717D01*
X6985025Y-1234211D01*
X6985025Y-1260373D01*
X6990105Y-1275867D01*
X6995439Y-1286281D01*
X7005853Y-1296695D01*
X7016267Y-1301775D01*
X7036841Y-1301775D01*
X7047255Y-1296695D01*
X7057669Y-1286281D01*
X7063003Y-1275867D01*
X7097293Y-1213637D02*
G01*
X7107707Y-1208303D01*
X7123201Y-1192809D01*
X7123201Y-1301775D01*
X7209561Y-1192809D02*
G01*
X7157491Y-1265453D01*
X7235469Y-1265453D01*
X7209561Y-1192809D02*
G01*
X7209561Y-1301775D01*
X8193252Y-5308092D02*
G01*
X8188172Y-5297678D01*
X8177758Y-5287263D01*
X8167344Y-5282184D01*
X8146516Y-5282184D01*
X8136102Y-5287263D01*
X8125688Y-5297678D01*
X8120608Y-5308092D01*
X8115274Y-5323839D01*
X8115274Y-5349747D01*
X8120608Y-5365242D01*
X8125688Y-5375655D01*
X8136102Y-5386070D01*
X8146516Y-5391150D01*
X8167344Y-5391150D01*
X8177758Y-5386070D01*
X8188172Y-5375655D01*
X8193252Y-5365242D01*
X8227542Y-5303012D02*
G01*
X8237956Y-5297678D01*
X8253450Y-5282184D01*
X8253450Y-5391150D01*
X8350224Y-5282184D02*
G01*
X8298154Y-5282184D01*
X8293074Y-5328920D01*
X8298154Y-5323839D01*
X8313902Y-5318505D01*
X8329396Y-5318505D01*
X8344890Y-5323839D01*
X8355304Y-5334000D01*
X8360638Y-5349747D01*
X8360638Y-5360162D01*
X8355304Y-5375655D01*
X8344890Y-5386070D01*
X8329396Y-5391150D01*
X8313902Y-5391150D01*
X8298154Y-5386070D01*
X8293074Y-5380989D01*
X8287740Y-5370576D01*
X4713452Y-6235192D02*
G01*
X4708372Y-6224778D01*
X4697958Y-6214363D01*
X4687544Y-6209284D01*
X4666716Y-6209284D01*
X4656302Y-6214363D01*
X4645888Y-6224778D01*
X4640808Y-6235192D01*
X4635474Y-6250939D01*
X4635474Y-6276847D01*
X4640808Y-6292342D01*
X4645888Y-6302755D01*
X4656302Y-6313170D01*
X4666716Y-6318250D01*
X4687544Y-6318250D01*
X4697958Y-6313170D01*
X4708372Y-6302755D01*
X4713452Y-6292342D01*
X4747742Y-6230112D02*
G01*
X4758156Y-6224778D01*
X4773650Y-6209284D01*
X4773650Y-6318250D01*
X4880838Y-6209284D02*
G01*
X4828768Y-6318250D01*
X4807940Y-6209284D02*
G01*
X4880838Y-6209284D01*
X6935952Y-5625592D02*
G01*
X6930872Y-5615178D01*
X6920458Y-5604763D01*
X6910044Y-5599684D01*
X6889216Y-5599684D01*
X6878802Y-5604763D01*
X6868388Y-5615178D01*
X6863308Y-5625592D01*
X6857974Y-5641339D01*
X6857974Y-5667247D01*
X6863308Y-5682742D01*
X6868388Y-5693155D01*
X6878802Y-5703570D01*
X6889216Y-5708650D01*
X6910044Y-5708650D01*
X6920458Y-5703570D01*
X6930872Y-5693155D01*
X6935952Y-5682742D01*
X6970242Y-5620512D02*
G01*
X6980656Y-5615178D01*
X6996150Y-5599684D01*
X6996150Y-5708650D01*
X7098004Y-5636005D02*
G01*
X7092924Y-5651500D01*
X7082510Y-5661913D01*
X7066762Y-5667247D01*
X7061682Y-5667247D01*
X7046188Y-5661913D01*
X7035774Y-5651500D01*
X7030440Y-5636005D01*
X7030440Y-5630926D01*
X7035774Y-5615178D01*
X7046188Y-5604763D01*
X7061682Y-5599684D01*
X7066762Y-5599684D01*
X7082510Y-5604763D01*
X7092924Y-5615178D01*
X7098004Y-5636005D01*
X7098004Y-5661913D01*
X7092924Y-5688076D01*
X7082510Y-5703570D01*
X7066762Y-5708650D01*
X7056602Y-5708650D01*
X7040854Y-5703570D01*
X7035774Y-5693155D01*
X6248412Y-1535684D02*
G01*
X6248412Y-1644650D01*
X6248412Y-1535684D02*
G01*
X6284734Y-1535684D01*
X6300228Y-1540763D01*
X6310642Y-1551178D01*
X6315976Y-1561592D01*
X6321056Y-1577339D01*
X6321056Y-1603247D01*
X6315976Y-1618742D01*
X6310642Y-1629155D01*
X6300228Y-1639570D01*
X6284734Y-1644650D01*
X6248412Y-1644650D01*
X6355346Y-1556512D02*
G01*
X6365760Y-1551178D01*
X6381508Y-1535684D01*
X6381508Y-1644650D01*
X8586215Y-4051261D02*
G01*
X8477250Y-4051261D01*
X8586215Y-4051261D02*
G01*
X8586215Y-4087583D01*
X8581136Y-4103331D01*
X8570722Y-4113745D01*
X8560308Y-4118825D01*
X8544559Y-4123905D01*
X8518652Y-4123905D01*
X8503158Y-4118825D01*
X8492743Y-4113745D01*
X8482329Y-4103331D01*
X8477250Y-4087583D01*
X8477250Y-4051261D01*
X8586215Y-4168609D02*
G01*
X8586215Y-4225759D01*
X8544559Y-4194771D01*
X8544559Y-4210265D01*
X8539479Y-4220679D01*
X8534400Y-4225759D01*
X8518652Y-4231093D01*
X8508238Y-4231093D01*
X8492743Y-4225759D01*
X8482329Y-4215345D01*
X8477250Y-4199851D01*
X8477250Y-4184357D01*
X8482329Y-4168609D01*
X8487409Y-4163529D01*
X8497824Y-4158195D01*
X1460586Y-8139684D02*
G01*
X1460586Y-8248650D01*
X1460586Y-8139684D02*
G01*
X1507322Y-8139684D01*
X1522816Y-8144763D01*
X1528150Y-8150097D01*
X1533230Y-8160512D01*
X1533230Y-8170926D01*
X1528150Y-8181339D01*
X1522816Y-8186420D01*
X1507322Y-8191500D01*
X1460586Y-8191500D01*
X1496908Y-8191500D02*
G01*
X1533230Y-8248650D01*
X1567520Y-8160512D02*
G01*
X1577934Y-8155178D01*
X1593428Y-8139684D01*
X1593428Y-8248650D01*
X1485960Y-7060184D02*
G01*
X1485960Y-7169150D01*
X1485960Y-7060184D02*
G01*
X1532696Y-7060184D01*
X1548190Y-7065263D01*
X1553524Y-7070597D01*
X1558604Y-7081012D01*
X1558604Y-7091426D01*
X1553524Y-7101839D01*
X1548190Y-7106920D01*
X1532696Y-7112000D01*
X1485960Y-7112000D01*
X1522282Y-7112000D02*
G01*
X1558604Y-7169150D01*
X1598228Y-7086092D02*
G01*
X1598228Y-7081012D01*
X1603308Y-7070597D01*
X1608388Y-7065263D01*
X1618802Y-7060184D01*
X1639630Y-7060184D01*
X1650044Y-7065263D01*
X1655378Y-7070597D01*
X1660458Y-7081012D01*
X1660458Y-7091426D01*
X1655378Y-7101839D01*
X1644964Y-7117334D01*
X1592894Y-7169150D01*
X1665538Y-7169150D01*
X252984Y-8686764D02*
G01*
X361950Y-8686764D01*
X252984Y-8686764D02*
G01*
X252984Y-8640028D01*
X258063Y-8624534D01*
X263397Y-8619200D01*
X273812Y-8614120D01*
X284226Y-8614120D01*
X294639Y-8619200D01*
X299720Y-8624534D01*
X304800Y-8640028D01*
X304800Y-8686764D01*
X304800Y-8650442D02*
G01*
X361950Y-8614120D01*
X252984Y-8569416D02*
G01*
X252984Y-8512266D01*
X294639Y-8543508D01*
X294639Y-8527760D01*
X299720Y-8517346D01*
X304800Y-8512266D01*
X320547Y-8506932D01*
X330962Y-8506932D01*
X346455Y-8512266D01*
X356870Y-8522680D01*
X361950Y-8538174D01*
X361950Y-8553922D01*
X356870Y-8569416D01*
X351789Y-8574496D01*
X341376Y-8579830D01*
X1485935Y-9092184D02*
G01*
X1485935Y-9201150D01*
X1485935Y-9092184D02*
G01*
X1532671Y-9092184D01*
X1548165Y-9097263D01*
X1553499Y-9102597D01*
X1558579Y-9113012D01*
X1558579Y-9123426D01*
X1553499Y-9133839D01*
X1548165Y-9138920D01*
X1532671Y-9144000D01*
X1485935Y-9144000D01*
X1522257Y-9144000D02*
G01*
X1558579Y-9201150D01*
X1644939Y-9092184D02*
G01*
X1592869Y-9164828D01*
X1670847Y-9164828D01*
X1644939Y-9092184D02*
G01*
X1644939Y-9201150D01*
X2971800Y-8253984D02*
G01*
X2971800Y-8362950D01*
X2971800Y-8253984D02*
G01*
X3018536Y-8253984D01*
X3034029Y-8259063D01*
X3039363Y-8264397D01*
X3044443Y-8274812D01*
X3044443Y-8285226D01*
X3039363Y-8295639D01*
X3034029Y-8300720D01*
X3018536Y-8305800D01*
X2971800Y-8305800D01*
X3008122Y-8305800D02*
G01*
X3044443Y-8362950D01*
X3141218Y-8269478D02*
G01*
X3135884Y-8259063D01*
X3120390Y-8253984D01*
X3109975Y-8253984D01*
X3094481Y-8259063D01*
X3084068Y-8274812D01*
X3078734Y-8300720D01*
X3078734Y-8326628D01*
X3084068Y-8347455D01*
X3094481Y-8357870D01*
X3109975Y-8362950D01*
X3115309Y-8362950D01*
X3130804Y-8357870D01*
X3141218Y-8347455D01*
X3146297Y-8331962D01*
X3146297Y-8326628D01*
X3141218Y-8311134D01*
X3130804Y-8300720D01*
X3115309Y-8295639D01*
X3109975Y-8295639D01*
X3094481Y-8300720D01*
X3084068Y-8311134D01*
X3078734Y-8326628D01*
X62484Y-6680139D02*
G01*
X171450Y-6680139D01*
X62484Y-6680139D02*
G01*
X62484Y-6633403D01*
X67563Y-6617909D01*
X72897Y-6612575D01*
X83312Y-6607495D01*
X93726Y-6607495D01*
X104139Y-6612575D01*
X109220Y-6617909D01*
X114300Y-6633403D01*
X114300Y-6680139D01*
X114300Y-6643817D02*
G01*
X171450Y-6607495D01*
X62484Y-6500561D02*
G01*
X171450Y-6552377D01*
X62484Y-6573205D02*
G01*
X62484Y-6500561D01*
X240284Y-8407400D02*
G01*
X349250Y-8407400D01*
X240284Y-8407400D02*
G01*
X240284Y-8360663D01*
X245363Y-8345170D01*
X250697Y-8339836D01*
X261112Y-8334755D01*
X271526Y-8334755D01*
X281939Y-8339836D01*
X287020Y-8345170D01*
X292100Y-8360663D01*
X292100Y-8407400D01*
X292100Y-8371078D02*
G01*
X349250Y-8334755D01*
X240284Y-8274304D02*
G01*
X245363Y-8290052D01*
X255778Y-8295131D01*
X266192Y-8295131D01*
X276605Y-8290052D01*
X281939Y-8279637D01*
X287020Y-8258810D01*
X292100Y-8243315D01*
X302513Y-8232902D01*
X312928Y-8227568D01*
X328676Y-8227568D01*
X339089Y-8232902D01*
X344170Y-8237981D01*
X349250Y-8253729D01*
X349250Y-8274304D01*
X344170Y-8290052D01*
X339089Y-8295131D01*
X328676Y-8300465D01*
X312928Y-8300465D01*
X302513Y-8295131D01*
X292100Y-8284718D01*
X287020Y-8269223D01*
X281939Y-8248395D01*
X276605Y-8237981D01*
X266192Y-8232902D01*
X255778Y-8232902D01*
X245363Y-8237981D01*
X240284Y-8253729D01*
X240284Y-8274304D01*
X1485900Y-9409684D02*
G01*
X1485900Y-9518650D01*
X1485900Y-9409684D02*
G01*
X1532636Y-9409684D01*
X1548129Y-9414763D01*
X1553463Y-9420097D01*
X1558544Y-9430512D01*
X1558544Y-9440926D01*
X1553463Y-9451339D01*
X1548129Y-9456420D01*
X1532636Y-9461500D01*
X1485900Y-9461500D01*
X1522221Y-9461500D02*
G01*
X1558544Y-9518650D01*
X1660397Y-9446005D02*
G01*
X1655318Y-9461500D01*
X1644904Y-9471913D01*
X1629410Y-9477247D01*
X1624076Y-9477247D01*
X1608581Y-9471913D01*
X1598168Y-9461500D01*
X1592834Y-9446005D01*
X1592834Y-9440926D01*
X1598168Y-9425178D01*
X1608581Y-9414763D01*
X1624076Y-9409684D01*
X1629410Y-9409684D01*
X1644904Y-9414763D01*
X1655318Y-9425178D01*
X1660397Y-9446005D01*
X1660397Y-9471913D01*
X1655318Y-9498076D01*
X1644904Y-9513570D01*
X1629410Y-9518650D01*
X1618995Y-9518650D01*
X1603247Y-9513570D01*
X1598168Y-9503155D01*
X265684Y-6718300D02*
G01*
X374650Y-6718300D01*
X265684Y-6718300D02*
G01*
X265684Y-6671563D01*
X270763Y-6656070D01*
X276097Y-6650736D01*
X286512Y-6645655D01*
X296926Y-6645655D01*
X307339Y-6650736D01*
X312420Y-6656070D01*
X317500Y-6671563D01*
X317500Y-6718300D01*
X317500Y-6681978D02*
G01*
X374650Y-6645655D01*
X286512Y-6611365D02*
G01*
X281178Y-6600952D01*
X265684Y-6585204D01*
X374650Y-6585204D01*
X265684Y-6519926D02*
G01*
X270763Y-6535420D01*
X286512Y-6545834D01*
X312420Y-6550913D01*
X327913Y-6550913D01*
X354076Y-6545834D01*
X369570Y-6535420D01*
X374650Y-6519926D01*
X374650Y-6509512D01*
X369570Y-6493763D01*
X354076Y-6483350D01*
X327913Y-6478270D01*
X312420Y-6478270D01*
X286512Y-6483350D01*
X270763Y-6493763D01*
X265684Y-6509512D01*
X265684Y-6519926D01*
X697484Y-6705539D02*
G01*
X806450Y-6705539D01*
X697484Y-6705539D02*
G01*
X697484Y-6658803D01*
X702563Y-6643309D01*
X707897Y-6637975D01*
X718312Y-6632895D01*
X728726Y-6632895D01*
X739139Y-6637975D01*
X744220Y-6643309D01*
X749300Y-6658803D01*
X749300Y-6705539D01*
X749300Y-6669217D02*
G01*
X806450Y-6632895D01*
X718312Y-6598605D02*
G01*
X712978Y-6588191D01*
X697484Y-6572697D01*
X806450Y-6572697D01*
X718312Y-6538407D02*
G01*
X712978Y-6527993D01*
X697484Y-6512245D01*
X806450Y-6512245D01*
X240284Y-7937500D02*
G01*
X349250Y-7937500D01*
X240284Y-7937500D02*
G01*
X240284Y-7890763D01*
X245363Y-7875270D01*
X250697Y-7869936D01*
X261112Y-7864855D01*
X271526Y-7864855D01*
X281939Y-7869936D01*
X287020Y-7875270D01*
X292100Y-7890763D01*
X292100Y-7937500D01*
X292100Y-7901178D02*
G01*
X349250Y-7864855D01*
X261112Y-7830565D02*
G01*
X255778Y-7820152D01*
X240284Y-7804404D01*
X349250Y-7804404D01*
X266192Y-7765034D02*
G01*
X261112Y-7765034D01*
X250697Y-7759700D01*
X245363Y-7754620D01*
X240284Y-7744205D01*
X240284Y-7723378D01*
X245363Y-7712963D01*
X250697Y-7707884D01*
X261112Y-7702550D01*
X271526Y-7702550D01*
X281939Y-7707884D01*
X297434Y-7718297D01*
X349250Y-7770113D01*
X349250Y-7697470D01*
X1460500Y-9714484D02*
G01*
X1460500Y-9823450D01*
X1460500Y-9714484D02*
G01*
X1507236Y-9714484D01*
X1522729Y-9719563D01*
X1528063Y-9724897D01*
X1533144Y-9735312D01*
X1533144Y-9745726D01*
X1528063Y-9756139D01*
X1522729Y-9761220D01*
X1507236Y-9766300D01*
X1460500Y-9766300D01*
X1496821Y-9766300D02*
G01*
X1533144Y-9823450D01*
X1567434Y-9735312D02*
G01*
X1577847Y-9729978D01*
X1593595Y-9714484D01*
X1593595Y-9823450D01*
X1638300Y-9714484D02*
G01*
X1695450Y-9714484D01*
X1664207Y-9756139D01*
X1679702Y-9756139D01*
X1690115Y-9761220D01*
X1695450Y-9766300D01*
X1700529Y-9782047D01*
X1700529Y-9792462D01*
X1695450Y-9807955D01*
X1685036Y-9818370D01*
X1669287Y-9823450D01*
X1653794Y-9823450D01*
X1638300Y-9818370D01*
X1632965Y-9813289D01*
X1627886Y-9802876D01*
X7835960Y-7491984D02*
G01*
X7835960Y-7600950D01*
X7835960Y-7491984D02*
G01*
X7882696Y-7491984D01*
X7898190Y-7497063D01*
X7903524Y-7502397D01*
X7908604Y-7512812D01*
X7908604Y-7523226D01*
X7903524Y-7533639D01*
X7898190Y-7538720D01*
X7882696Y-7543800D01*
X7835960Y-7543800D01*
X7872282Y-7543800D02*
G01*
X7908604Y-7600950D01*
X7942894Y-7512812D02*
G01*
X7953308Y-7507478D01*
X7968802Y-7491984D01*
X7968802Y-7600950D01*
X8055162Y-7491984D02*
G01*
X8003092Y-7564628D01*
X8081070Y-7564628D01*
X8055162Y-7491984D02*
G01*
X8055162Y-7600950D01*
X3022686Y-7301484D02*
G01*
X3022686Y-7410450D01*
X3022686Y-7301484D02*
G01*
X3069422Y-7301484D01*
X3084916Y-7306563D01*
X3090250Y-7311897D01*
X3095330Y-7322312D01*
X3095330Y-7332726D01*
X3090250Y-7343139D01*
X3084916Y-7348220D01*
X3069422Y-7353300D01*
X3022686Y-7353300D01*
X3059008Y-7353300D02*
G01*
X3095330Y-7410450D01*
X3129620Y-7322312D02*
G01*
X3140034Y-7316978D01*
X3155528Y-7301484D01*
X3155528Y-7410450D01*
X3252302Y-7301484D02*
G01*
X3200232Y-7301484D01*
X3195152Y-7348220D01*
X3200232Y-7343139D01*
X3215980Y-7337805D01*
X3231474Y-7337805D01*
X3246968Y-7343139D01*
X3257382Y-7353300D01*
X3262716Y-7369047D01*
X3262716Y-7379462D01*
X3257382Y-7394955D01*
X3246968Y-7405370D01*
X3231474Y-7410450D01*
X3215980Y-7410450D01*
X3200232Y-7405370D01*
X3195152Y-7400289D01*
X3189818Y-7389876D01*
X4660960Y-7288784D02*
G01*
X4660960Y-7397750D01*
X4660960Y-7288784D02*
G01*
X4707696Y-7288784D01*
X4723190Y-7293863D01*
X4728524Y-7299197D01*
X4733604Y-7309612D01*
X4733604Y-7320026D01*
X4728524Y-7330439D01*
X4723190Y-7335520D01*
X4707696Y-7340600D01*
X4660960Y-7340600D01*
X4697282Y-7340600D02*
G01*
X4733604Y-7397750D01*
X4767894Y-7309612D02*
G01*
X4778308Y-7304278D01*
X4793802Y-7288784D01*
X4793802Y-7397750D01*
X4900990Y-7288784D02*
G01*
X4848920Y-7397750D01*
X4828092Y-7288784D02*
G01*
X4900990Y-7288784D01*
X4762560Y-8533384D02*
G01*
X4762560Y-8642350D01*
X4762560Y-8533384D02*
G01*
X4809296Y-8533384D01*
X4824790Y-8538463D01*
X4830124Y-8543797D01*
X4835204Y-8554212D01*
X4835204Y-8564626D01*
X4830124Y-8575039D01*
X4824790Y-8580120D01*
X4809296Y-8585200D01*
X4762560Y-8585200D01*
X4798882Y-8585200D02*
G01*
X4835204Y-8642350D01*
X4869494Y-8554212D02*
G01*
X4879908Y-8548878D01*
X4895402Y-8533384D01*
X4895402Y-8642350D01*
X4955854Y-8533384D02*
G01*
X4940106Y-8538463D01*
X4935026Y-8548878D01*
X4935026Y-8559292D01*
X4940106Y-8569705D01*
X4950520Y-8575039D01*
X4971348Y-8580120D01*
X4986842Y-8585200D01*
X4997256Y-8595613D01*
X5002590Y-8606028D01*
X5002590Y-8621776D01*
X4997256Y-8632189D01*
X4992176Y-8637270D01*
X4976428Y-8642350D01*
X4955854Y-8642350D01*
X4940106Y-8637270D01*
X4935026Y-8632189D01*
X4929692Y-8621776D01*
X4929692Y-8606028D01*
X4935026Y-8595613D01*
X4945440Y-8585200D01*
X4960934Y-8580120D01*
X4981762Y-8575039D01*
X4992176Y-8569705D01*
X4997256Y-8559292D01*
X4997256Y-8548878D01*
X4992176Y-8538463D01*
X4976428Y-8533384D01*
X4955854Y-8533384D01*
X3835400Y-8380984D02*
G01*
X3835400Y-8489950D01*
X3835400Y-8380984D02*
G01*
X3882136Y-8380984D01*
X3897629Y-8386063D01*
X3902963Y-8391397D01*
X3908043Y-8401812D01*
X3908043Y-8412226D01*
X3902963Y-8422639D01*
X3897629Y-8427720D01*
X3882136Y-8432800D01*
X3835400Y-8432800D01*
X3871722Y-8432800D02*
G01*
X3908043Y-8489950D01*
X3942334Y-8401812D02*
G01*
X3952747Y-8396478D01*
X3968495Y-8380984D01*
X3968495Y-8489950D01*
X4070350Y-8417305D02*
G01*
X4065015Y-8432800D01*
X4054602Y-8443213D01*
X4039108Y-8448547D01*
X4033774Y-8448547D01*
X4018279Y-8443213D01*
X4007865Y-8432800D01*
X4002786Y-8417305D01*
X4002786Y-8412226D01*
X4007865Y-8396478D01*
X4018279Y-8386063D01*
X4033774Y-8380984D01*
X4039108Y-8380984D01*
X4054602Y-8386063D01*
X4065015Y-8396478D01*
X4070350Y-8417305D01*
X4070350Y-8443213D01*
X4065015Y-8469376D01*
X4054602Y-8484870D01*
X4039108Y-8489950D01*
X4028693Y-8489950D01*
X4013200Y-8484870D01*
X4007865Y-8474455D01*
X5663184Y-8001000D02*
G01*
X5772150Y-8001000D01*
X5663184Y-8001000D02*
G01*
X5663184Y-7954263D01*
X5668263Y-7938770D01*
X5673597Y-7933436D01*
X5684011Y-7928355D01*
X5694425Y-7928355D01*
X5704840Y-7933436D01*
X5709920Y-7938770D01*
X5715000Y-7954263D01*
X5715000Y-8001000D01*
X5715000Y-7964678D02*
G01*
X5772150Y-7928355D01*
X5689091Y-7888731D02*
G01*
X5684011Y-7888731D01*
X5673597Y-7883652D01*
X5668263Y-7878318D01*
X5663184Y-7867904D01*
X5663184Y-7847329D01*
X5668263Y-7836915D01*
X5673597Y-7831581D01*
X5684011Y-7826502D01*
X5694425Y-7826502D01*
X5704840Y-7831581D01*
X5720334Y-7841995D01*
X5772150Y-7894065D01*
X5772150Y-7821168D01*
X5663184Y-7755889D02*
G01*
X5668263Y-7771384D01*
X5684011Y-7781797D01*
X5709920Y-7786878D01*
X5725413Y-7786878D01*
X5751575Y-7781797D01*
X5767070Y-7771384D01*
X5772150Y-7755889D01*
X5772150Y-7745476D01*
X5767070Y-7729728D01*
X5751575Y-7719313D01*
X5725413Y-7714234D01*
X5709920Y-7714234D01*
X5684011Y-7719313D01*
X5668263Y-7729728D01*
X5663184Y-7745476D01*
X5663184Y-7755889D01*
X7810500Y-7263384D02*
G01*
X7810500Y-7372350D01*
X7810500Y-7263384D02*
G01*
X7857236Y-7263384D01*
X7872729Y-7268463D01*
X7878063Y-7273797D01*
X7883143Y-7284212D01*
X7883143Y-7294626D01*
X7878063Y-7305039D01*
X7872729Y-7310120D01*
X7857236Y-7315200D01*
X7810500Y-7315200D01*
X7846822Y-7315200D02*
G01*
X7883143Y-7372350D01*
X7922768Y-7289292D02*
G01*
X7922768Y-7284212D01*
X7927847Y-7273797D01*
X7933181Y-7268463D01*
X7943595Y-7263384D01*
X7964170Y-7263384D01*
X7974584Y-7268463D01*
X7979918Y-7273797D01*
X7984997Y-7284212D01*
X7984997Y-7294626D01*
X7979918Y-7305039D01*
X7969504Y-7320534D01*
X7917434Y-7372350D01*
X7990331Y-7372350D01*
X8024622Y-7284212D02*
G01*
X8035036Y-7278878D01*
X8050529Y-7263384D01*
X8050529Y-7372350D01*
X7861360Y-7009384D02*
G01*
X7861360Y-7118350D01*
X7861360Y-7009384D02*
G01*
X7908096Y-7009384D01*
X7923590Y-7014463D01*
X7928924Y-7019797D01*
X7934004Y-7030212D01*
X7934004Y-7040626D01*
X7928924Y-7051039D01*
X7923590Y-7056120D01*
X7908096Y-7061200D01*
X7861360Y-7061200D01*
X7897682Y-7061200D02*
G01*
X7934004Y-7118350D01*
X7973628Y-7035292D02*
G01*
X7973628Y-7030212D01*
X7978708Y-7019797D01*
X7983788Y-7014463D01*
X7994202Y-7009384D01*
X8015030Y-7009384D01*
X8025444Y-7014463D01*
X8030778Y-7019797D01*
X8035858Y-7030212D01*
X8035858Y-7040626D01*
X8030778Y-7051039D01*
X8020364Y-7066534D01*
X7968294Y-7118350D01*
X8040938Y-7118350D01*
X8080562Y-7035292D02*
G01*
X8080562Y-7030212D01*
X8085642Y-7019797D01*
X8090976Y-7014463D01*
X8101390Y-7009384D01*
X8122218Y-7009384D01*
X8132378Y-7014463D01*
X8137712Y-7019797D01*
X8142792Y-7030212D01*
X8142792Y-7040626D01*
X8137712Y-7051039D01*
X8127298Y-7066534D01*
X8075228Y-7118350D01*
X8148126Y-7118350D01*
X2959100Y-8927084D02*
G01*
X2959100Y-9036050D01*
X2959100Y-8927084D02*
G01*
X3005836Y-8927084D01*
X3021329Y-8932163D01*
X3026663Y-8937497D01*
X3031743Y-8947912D01*
X3031743Y-8958326D01*
X3026663Y-8968739D01*
X3021329Y-8973820D01*
X3005836Y-8978900D01*
X2959100Y-8978900D01*
X2995422Y-8978900D02*
G01*
X3031743Y-9036050D01*
X3071368Y-8952992D02*
G01*
X3071368Y-8947912D01*
X3076447Y-8937497D01*
X3081781Y-8932163D01*
X3092195Y-8927084D01*
X3112770Y-8927084D01*
X3123184Y-8932163D01*
X3128518Y-8937497D01*
X3133597Y-8947912D01*
X3133597Y-8958326D01*
X3128518Y-8968739D01*
X3118104Y-8984234D01*
X3066034Y-9036050D01*
X3138931Y-9036050D01*
X3183636Y-8927084D02*
G01*
X3240786Y-8927084D01*
X3209543Y-8968739D01*
X3225038Y-8968739D01*
X3235452Y-8973820D01*
X3240786Y-8978900D01*
X3245865Y-8994647D01*
X3245865Y-9005062D01*
X3240786Y-9020555D01*
X3230372Y-9030970D01*
X3214624Y-9036050D01*
X3199129Y-9036050D01*
X3183636Y-9030970D01*
X3178302Y-9025889D01*
X3173222Y-9015476D01*
X4292600Y-8609584D02*
G01*
X4292600Y-8718550D01*
X4292600Y-8609584D02*
G01*
X4339336Y-8609584D01*
X4354829Y-8614663D01*
X4360163Y-8619997D01*
X4365243Y-8630412D01*
X4365243Y-8640826D01*
X4360163Y-8651239D01*
X4354829Y-8656320D01*
X4339336Y-8661400D01*
X4292600Y-8661400D01*
X4328922Y-8661400D02*
G01*
X4365243Y-8718550D01*
X4404868Y-8635492D02*
G01*
X4404868Y-8630412D01*
X4409947Y-8619997D01*
X4415281Y-8614663D01*
X4425695Y-8609584D01*
X4446270Y-8609584D01*
X4456684Y-8614663D01*
X4462018Y-8619997D01*
X4467097Y-8630412D01*
X4467097Y-8640826D01*
X4462018Y-8651239D01*
X4451604Y-8666734D01*
X4399534Y-8718550D01*
X4472431Y-8718550D01*
X4558538Y-8609584D02*
G01*
X4506722Y-8682228D01*
X4584700Y-8682228D01*
X4558538Y-8609584D02*
G01*
X4558538Y-8718550D01*
X2971800Y-9269984D02*
G01*
X2971800Y-9378950D01*
X2971800Y-9269984D02*
G01*
X3018536Y-9269984D01*
X3034029Y-9275063D01*
X3039363Y-9280397D01*
X3044443Y-9290812D01*
X3044443Y-9301226D01*
X3039363Y-9311639D01*
X3034029Y-9316720D01*
X3018536Y-9321800D01*
X2971800Y-9321800D01*
X3008122Y-9321800D02*
G01*
X3044443Y-9378950D01*
X3084068Y-9295892D02*
G01*
X3084068Y-9290812D01*
X3089147Y-9280397D01*
X3094481Y-9275063D01*
X3104895Y-9269984D01*
X3125470Y-9269984D01*
X3135884Y-9275063D01*
X3141218Y-9280397D01*
X3146297Y-9290812D01*
X3146297Y-9301226D01*
X3141218Y-9311639D01*
X3130804Y-9327134D01*
X3078734Y-9378950D01*
X3151631Y-9378950D01*
X3248152Y-9269984D02*
G01*
X3196336Y-9269984D01*
X3191002Y-9316720D01*
X3196336Y-9311639D01*
X3211829Y-9306305D01*
X3227324Y-9306305D01*
X3243072Y-9311639D01*
X3253486Y-9321800D01*
X3258565Y-9337547D01*
X3258565Y-9347962D01*
X3253486Y-9363455D01*
X3243072Y-9373870D01*
X3227324Y-9378950D01*
X3211829Y-9378950D01*
X3196336Y-9373870D01*
X3191002Y-9368789D01*
X3185922Y-9358376D01*
X152466Y-1243584D02*
G01*
X152466Y-1352550D01*
X152466Y-1243584D02*
G01*
X199202Y-1243584D01*
X214696Y-1248663D01*
X220030Y-1253997D01*
X225110Y-1264412D01*
X225110Y-1274826D01*
X220030Y-1285239D01*
X214696Y-1290320D01*
X199202Y-1295400D01*
X152466Y-1295400D01*
X188788Y-1295400D02*
G01*
X225110Y-1352550D01*
X264734Y-1269492D02*
G01*
X264734Y-1264412D01*
X269814Y-1253997D01*
X274894Y-1248663D01*
X285308Y-1243584D01*
X306136Y-1243584D01*
X316550Y-1248663D01*
X321884Y-1253997D01*
X326964Y-1264412D01*
X326964Y-1274826D01*
X321884Y-1285239D01*
X311470Y-1300734D01*
X259400Y-1352550D01*
X332044Y-1352550D01*
X439232Y-1243584D02*
G01*
X387162Y-1352550D01*
X366334Y-1243584D02*
G01*
X439232Y-1243584D01*
X177866Y-862584D02*
G01*
X177866Y-971550D01*
X177866Y-862584D02*
G01*
X224602Y-862584D01*
X240096Y-867663D01*
X245430Y-872997D01*
X250510Y-883412D01*
X250510Y-893826D01*
X245430Y-904239D01*
X240096Y-909320D01*
X224602Y-914400D01*
X177866Y-914400D01*
X214188Y-914400D02*
G01*
X250510Y-971550D01*
X290134Y-888492D02*
G01*
X290134Y-883412D01*
X295214Y-872997D01*
X300294Y-867663D01*
X310708Y-862584D01*
X331536Y-862584D01*
X341950Y-867663D01*
X347284Y-872997D01*
X352364Y-883412D01*
X352364Y-893826D01*
X347284Y-904239D01*
X336870Y-919734D01*
X284800Y-971550D01*
X357444Y-971550D01*
X417896Y-862584D02*
G01*
X402148Y-867663D01*
X397068Y-878078D01*
X397068Y-888492D01*
X402148Y-898905D01*
X412562Y-904239D01*
X433390Y-909320D01*
X448884Y-914400D01*
X459298Y-924813D01*
X464632Y-935228D01*
X464632Y-950976D01*
X459298Y-961389D01*
X454218Y-966470D01*
X438724Y-971550D01*
X417896Y-971550D01*
X402148Y-966470D01*
X397068Y-961389D01*
X391734Y-950976D01*
X391734Y-935228D01*
X397068Y-924813D01*
X407482Y-914400D01*
X422976Y-909320D01*
X443804Y-904239D01*
X454218Y-898905D01*
X459298Y-888492D01*
X459298Y-878078D01*
X454218Y-867663D01*
X438724Y-862584D01*
X417896Y-862584D01*
X7810500Y-9028684D02*
G01*
X7810500Y-9137650D01*
X7810500Y-9028684D02*
G01*
X7857236Y-9028684D01*
X7872729Y-9033763D01*
X7878063Y-9039097D01*
X7883143Y-9049512D01*
X7883143Y-9059926D01*
X7878063Y-9070339D01*
X7872729Y-9075420D01*
X7857236Y-9080500D01*
X7810500Y-9080500D01*
X7846822Y-9080500D02*
G01*
X7883143Y-9137650D01*
X7922768Y-9054592D02*
G01*
X7922768Y-9049512D01*
X7927847Y-9039097D01*
X7933181Y-9033763D01*
X7943595Y-9028684D01*
X7964170Y-9028684D01*
X7974584Y-9033763D01*
X7979918Y-9039097D01*
X7984997Y-9049512D01*
X7984997Y-9059926D01*
X7979918Y-9070339D01*
X7969504Y-9085834D01*
X7917434Y-9137650D01*
X7990331Y-9137650D01*
X8092186Y-9065005D02*
G01*
X8086852Y-9080500D01*
X8076438Y-9090913D01*
X8060943Y-9096247D01*
X8055609Y-9096247D01*
X8040115Y-9090913D01*
X8029702Y-9080500D01*
X8024622Y-9065005D01*
X8024622Y-9059926D01*
X8029702Y-9044178D01*
X8040115Y-9033763D01*
X8055609Y-9028684D01*
X8060943Y-9028684D01*
X8076438Y-9033763D01*
X8086852Y-9044178D01*
X8092186Y-9065005D01*
X8092186Y-9090913D01*
X8086852Y-9117076D01*
X8076438Y-9132570D01*
X8060943Y-9137650D01*
X8050529Y-9137650D01*
X8035036Y-9132570D01*
X8029702Y-9122155D01*
X7835935Y-9269984D02*
G01*
X7835935Y-9378950D01*
X7835935Y-9269984D02*
G01*
X7882671Y-9269984D01*
X7898165Y-9275063D01*
X7903499Y-9280397D01*
X7908579Y-9290812D01*
X7908579Y-9301226D01*
X7903499Y-9311639D01*
X7898165Y-9316720D01*
X7882671Y-9321800D01*
X7835935Y-9321800D01*
X7872257Y-9321800D02*
G01*
X7908579Y-9378950D01*
X7953283Y-9269984D02*
G01*
X8010433Y-9269984D01*
X7979191Y-9311639D01*
X7994939Y-9311639D01*
X8005353Y-9316720D01*
X8010433Y-9321800D01*
X8015767Y-9337547D01*
X8015767Y-9347962D01*
X8010433Y-9363455D01*
X8000019Y-9373870D01*
X7984525Y-9378950D01*
X7968777Y-9378950D01*
X7953283Y-9373870D01*
X7948203Y-9368789D01*
X7942869Y-9358376D01*
X8081045Y-9269984D02*
G01*
X8065551Y-9275063D01*
X8055137Y-9290812D01*
X8050057Y-9316720D01*
X8050057Y-9332213D01*
X8055137Y-9358376D01*
X8065551Y-9373870D01*
X8081045Y-9378950D01*
X8091459Y-9378950D01*
X8107207Y-9373870D01*
X8117367Y-9358376D01*
X8122701Y-9332213D01*
X8122701Y-9316720D01*
X8117367Y-9290812D01*
X8107207Y-9275063D01*
X8091459Y-9269984D01*
X8081045Y-9269984D01*
X8547100Y-7644384D02*
G01*
X8547100Y-7753350D01*
X8547100Y-7644384D02*
G01*
X8593836Y-7644384D01*
X8609329Y-7649463D01*
X8614663Y-7654797D01*
X8619743Y-7665212D01*
X8619743Y-7675626D01*
X8614663Y-7686039D01*
X8609329Y-7691120D01*
X8593836Y-7696200D01*
X8547100Y-7696200D01*
X8583422Y-7696200D02*
G01*
X8619743Y-7753350D01*
X8664447Y-7644384D02*
G01*
X8721597Y-7644384D01*
X8690609Y-7686039D01*
X8706104Y-7686039D01*
X8716518Y-7691120D01*
X8721597Y-7696200D01*
X8726931Y-7711947D01*
X8726931Y-7722362D01*
X8721597Y-7737855D01*
X8711184Y-7748270D01*
X8695690Y-7753350D01*
X8680195Y-7753350D01*
X8664447Y-7748270D01*
X8659368Y-7743189D01*
X8654034Y-7732776D01*
X8761222Y-7665212D02*
G01*
X8771636Y-7659878D01*
X8787129Y-7644384D01*
X8787129Y-7753350D01*
X7835960Y-9574784D02*
G01*
X7835960Y-9683750D01*
X7835960Y-9574784D02*
G01*
X7882696Y-9574784D01*
X7898190Y-9579863D01*
X7903524Y-9585197D01*
X7908604Y-9595612D01*
X7908604Y-9606026D01*
X7903524Y-9616439D01*
X7898190Y-9621520D01*
X7882696Y-9626600D01*
X7835960Y-9626600D01*
X7872282Y-9626600D02*
G01*
X7908604Y-9683750D01*
X7953308Y-9574784D02*
G01*
X8010458Y-9574784D01*
X7979216Y-9616439D01*
X7994964Y-9616439D01*
X8005378Y-9621520D01*
X8010458Y-9626600D01*
X8015538Y-9642347D01*
X8015538Y-9652762D01*
X8010458Y-9668255D01*
X8000044Y-9678670D01*
X7984550Y-9683750D01*
X7968802Y-9683750D01*
X7953308Y-9678670D01*
X7948228Y-9673589D01*
X7942894Y-9663176D01*
X8055162Y-9600692D02*
G01*
X8055162Y-9595612D01*
X8060242Y-9585197D01*
X8065576Y-9579863D01*
X8075990Y-9574784D01*
X8096818Y-9574784D01*
X8106978Y-9579863D01*
X8112312Y-9585197D01*
X8117392Y-9595612D01*
X8117392Y-9606026D01*
X8112312Y-9616439D01*
X8101898Y-9631934D01*
X8049828Y-9683750D01*
X8122726Y-9683750D01*
X6234684Y-9029700D02*
G01*
X6343650Y-9029700D01*
X6234684Y-9029700D02*
G01*
X6234684Y-8982963D01*
X6239763Y-8967470D01*
X6245097Y-8962136D01*
X6255511Y-8957055D01*
X6265925Y-8957055D01*
X6276340Y-8962136D01*
X6281420Y-8967470D01*
X6286500Y-8982963D01*
X6286500Y-9029700D01*
X6286500Y-8993378D02*
G01*
X6343650Y-8957055D01*
X6234684Y-8912352D02*
G01*
X6234684Y-8855202D01*
X6276340Y-8886189D01*
X6276340Y-8870695D01*
X6281420Y-8860281D01*
X6286500Y-8855202D01*
X6302247Y-8849868D01*
X6312661Y-8849868D01*
X6328156Y-8855202D01*
X6338570Y-8865615D01*
X6343650Y-8881110D01*
X6343650Y-8896604D01*
X6338570Y-8912352D01*
X6333490Y-8917431D01*
X6323075Y-8922765D01*
X6234684Y-8805163D02*
G01*
X6234684Y-8748013D01*
X6276340Y-8779255D01*
X6276340Y-8763762D01*
X6281420Y-8753347D01*
X6286500Y-8748013D01*
X6302247Y-8742934D01*
X6312661Y-8742934D01*
X6328156Y-8748013D01*
X6338570Y-8758428D01*
X6343650Y-8774176D01*
X6343650Y-8789670D01*
X6338570Y-8805163D01*
X6333490Y-8810497D01*
X6323075Y-8815578D01*
X5675884Y-9042400D02*
G01*
X5784850Y-9042400D01*
X5675884Y-9042400D02*
G01*
X5675884Y-8995663D01*
X5680963Y-8980170D01*
X5686297Y-8974836D01*
X5696711Y-8969755D01*
X5707125Y-8969755D01*
X5717540Y-8974836D01*
X5722620Y-8980170D01*
X5727700Y-8995663D01*
X5727700Y-9042400D01*
X5727700Y-9006078D02*
G01*
X5784850Y-8969755D01*
X5675884Y-8925052D02*
G01*
X5675884Y-8867902D01*
X5717540Y-8898889D01*
X5717540Y-8883395D01*
X5722620Y-8872981D01*
X5727700Y-8867902D01*
X5743447Y-8862568D01*
X5753861Y-8862568D01*
X5769356Y-8867902D01*
X5779770Y-8878315D01*
X5784850Y-8893810D01*
X5784850Y-8909304D01*
X5779770Y-8925052D01*
X5774690Y-8930131D01*
X5764275Y-8935465D01*
X5675884Y-8776462D02*
G01*
X5748527Y-8828278D01*
X5748527Y-8750300D01*
X5675884Y-8776462D02*
G01*
X5784850Y-8776462D01*
X8534400Y-8507984D02*
G01*
X8534400Y-8616950D01*
X8534400Y-8507984D02*
G01*
X8581136Y-8507984D01*
X8596629Y-8513063D01*
X8601963Y-8518397D01*
X8607043Y-8528812D01*
X8607043Y-8539226D01*
X8601963Y-8549639D01*
X8596629Y-8554720D01*
X8581136Y-8559800D01*
X8534400Y-8559800D01*
X8570722Y-8559800D02*
G01*
X8607043Y-8616950D01*
X8651747Y-8507984D02*
G01*
X8708897Y-8507984D01*
X8677909Y-8549639D01*
X8693404Y-8549639D01*
X8703818Y-8554720D01*
X8708897Y-8559800D01*
X8714231Y-8575547D01*
X8714231Y-8585962D01*
X8708897Y-8601455D01*
X8698484Y-8611870D01*
X8682990Y-8616950D01*
X8667495Y-8616950D01*
X8651747Y-8611870D01*
X8646668Y-8606789D01*
X8641334Y-8596376D01*
X8810752Y-8507984D02*
G01*
X8758936Y-8507984D01*
X8753602Y-8554720D01*
X8758936Y-8549639D01*
X8774429Y-8544305D01*
X8789924Y-8544305D01*
X8805672Y-8549639D01*
X8816086Y-8559800D01*
X8821165Y-8575547D01*
X8821165Y-8585962D01*
X8816086Y-8601455D01*
X8805672Y-8611870D01*
X8789924Y-8616950D01*
X8774429Y-8616950D01*
X8758936Y-8611870D01*
X8753602Y-8606789D01*
X8748522Y-8596376D01*
X7835900Y-8825484D02*
G01*
X7835900Y-8934450D01*
X7835900Y-8825484D02*
G01*
X7882636Y-8825484D01*
X7898129Y-8830563D01*
X7903463Y-8835897D01*
X7908543Y-8846312D01*
X7908543Y-8856726D01*
X7903463Y-8867139D01*
X7898129Y-8872220D01*
X7882636Y-8877300D01*
X7835900Y-8877300D01*
X7872222Y-8877300D02*
G01*
X7908543Y-8934450D01*
X7953247Y-8825484D02*
G01*
X8010397Y-8825484D01*
X7979409Y-8867139D01*
X7994904Y-8867139D01*
X8005318Y-8872220D01*
X8010397Y-8877300D01*
X8015731Y-8893047D01*
X8015731Y-8903462D01*
X8010397Y-8918955D01*
X7999984Y-8929370D01*
X7984490Y-8934450D01*
X7968995Y-8934450D01*
X7953247Y-8929370D01*
X7948168Y-8924289D01*
X7942834Y-8913876D01*
X8112252Y-8840978D02*
G01*
X8107172Y-8830563D01*
X8091424Y-8825484D01*
X8081009Y-8825484D01*
X8065515Y-8830563D01*
X8055102Y-8846312D01*
X8050022Y-8872220D01*
X8050022Y-8898128D01*
X8055102Y-8918955D01*
X8065515Y-8929370D01*
X8081009Y-8934450D01*
X8086343Y-8934450D01*
X8101838Y-8929370D01*
X8112252Y-8918955D01*
X8117586Y-8903462D01*
X8117586Y-8898128D01*
X8112252Y-8882634D01*
X8101838Y-8872220D01*
X8086343Y-8867139D01*
X8081009Y-8867139D01*
X8065515Y-8872220D01*
X8055102Y-8882634D01*
X8050022Y-8898128D01*
X6096060Y-570484D02*
G01*
X6096060Y-679450D01*
X6096060Y-570484D02*
G01*
X6142796Y-570484D01*
X6158290Y-575563D01*
X6163624Y-580897D01*
X6168704Y-591312D01*
X6168704Y-601726D01*
X6163624Y-612139D01*
X6158290Y-617220D01*
X6142796Y-622300D01*
X6096060Y-622300D01*
X6132382Y-622300D02*
G01*
X6168704Y-679450D01*
X6213408Y-570484D02*
G01*
X6270558Y-570484D01*
X6239316Y-612139D01*
X6255064Y-612139D01*
X6265478Y-617220D01*
X6270558Y-622300D01*
X6275638Y-638047D01*
X6275638Y-648462D01*
X6270558Y-663955D01*
X6260144Y-674370D01*
X6244650Y-679450D01*
X6228902Y-679450D01*
X6213408Y-674370D01*
X6208328Y-669289D01*
X6202994Y-658876D01*
X6382826Y-570484D02*
G01*
X6330756Y-679450D01*
X6309928Y-570484D02*
G01*
X6382826Y-570484D01*
X6451660Y-583184D02*
G01*
X6451660Y-692150D01*
X6451660Y-583184D02*
G01*
X6498396Y-583184D01*
X6513890Y-588263D01*
X6519224Y-593597D01*
X6524304Y-604012D01*
X6524304Y-614426D01*
X6519224Y-624839D01*
X6513890Y-629920D01*
X6498396Y-635000D01*
X6451660Y-635000D01*
X6487982Y-635000D02*
G01*
X6524304Y-692150D01*
X6569008Y-583184D02*
G01*
X6626158Y-583184D01*
X6594916Y-624839D01*
X6610664Y-624839D01*
X6621078Y-629920D01*
X6626158Y-635000D01*
X6631238Y-650747D01*
X6631238Y-661162D01*
X6626158Y-676655D01*
X6615744Y-687070D01*
X6600250Y-692150D01*
X6584502Y-692150D01*
X6569008Y-687070D01*
X6563928Y-681989D01*
X6558594Y-671576D01*
X6691690Y-583184D02*
G01*
X6675942Y-588263D01*
X6670862Y-598678D01*
X6670862Y-609092D01*
X6675942Y-619505D01*
X6686356Y-624839D01*
X6707184Y-629920D01*
X6722678Y-635000D01*
X6733092Y-645413D01*
X6738426Y-655828D01*
X6738426Y-671576D01*
X6733092Y-681989D01*
X6728012Y-687070D01*
X6712518Y-692150D01*
X6691690Y-692150D01*
X6675942Y-687070D01*
X6670862Y-681989D01*
X6665528Y-671576D01*
X6665528Y-655828D01*
X6670862Y-645413D01*
X6681276Y-635000D01*
X6696770Y-629920D01*
X6717598Y-624839D01*
X6728012Y-619505D01*
X6733092Y-609092D01*
X6733092Y-598678D01*
X6728012Y-588263D01*
X6712518Y-583184D01*
X6691690Y-583184D01*
X6234684Y-7899339D02*
G01*
X6343650Y-7899339D01*
X6234684Y-7899339D02*
G01*
X6234684Y-7852603D01*
X6239763Y-7837109D01*
X6245097Y-7831775D01*
X6255511Y-7826695D01*
X6265925Y-7826695D01*
X6276340Y-7831775D01*
X6281420Y-7837109D01*
X6286500Y-7852603D01*
X6286500Y-7899339D01*
X6286500Y-7863017D02*
G01*
X6343650Y-7826695D01*
X6234684Y-7781991D02*
G01*
X6234684Y-7724841D01*
X6276340Y-7756083D01*
X6276340Y-7740335D01*
X6281420Y-7729921D01*
X6286500Y-7724841D01*
X6302247Y-7719761D01*
X6312661Y-7719761D01*
X6328156Y-7724841D01*
X6338570Y-7735255D01*
X6343650Y-7750749D01*
X6343650Y-7766497D01*
X6338570Y-7781991D01*
X6333490Y-7787071D01*
X6323075Y-7792405D01*
X6271006Y-7617907D02*
G01*
X6286500Y-7622987D01*
X6296913Y-7633401D01*
X6302247Y-7648895D01*
X6302247Y-7654229D01*
X6296913Y-7669723D01*
X6286500Y-7680137D01*
X6271006Y-7685471D01*
X6265925Y-7685471D01*
X6250177Y-7680137D01*
X6239763Y-7669723D01*
X6234684Y-7654229D01*
X6234684Y-7648895D01*
X6239763Y-7633401D01*
X6250177Y-7622987D01*
X6271006Y-7617907D01*
X6296913Y-7617907D01*
X6323075Y-7622987D01*
X6338570Y-7633401D01*
X6343650Y-7648895D01*
X6343650Y-7659309D01*
X6338570Y-7675057D01*
X6328156Y-7680137D01*
X7848660Y-7822184D02*
G01*
X7848660Y-7931150D01*
X7848660Y-7822184D02*
G01*
X7895396Y-7822184D01*
X7910890Y-7827263D01*
X7916224Y-7832597D01*
X7921304Y-7843012D01*
X7921304Y-7853426D01*
X7916224Y-7863839D01*
X7910890Y-7868920D01*
X7895396Y-7874000D01*
X7848660Y-7874000D01*
X7884982Y-7874000D02*
G01*
X7921304Y-7931150D01*
X8007664Y-7822184D02*
G01*
X7955594Y-7894828D01*
X8033572Y-7894828D01*
X8007664Y-7822184D02*
G01*
X8007664Y-7931150D01*
X8099104Y-7822184D02*
G01*
X8083356Y-7827263D01*
X8072942Y-7843012D01*
X8067862Y-7868920D01*
X8067862Y-7884413D01*
X8072942Y-7910576D01*
X8083356Y-7926070D01*
X8099104Y-7931150D01*
X8109518Y-7931150D01*
X8125012Y-7926070D01*
X8135426Y-7910576D01*
X8140506Y-7884413D01*
X8140506Y-7868920D01*
X8135426Y-7843012D01*
X8125012Y-7827263D01*
X8109518Y-7822184D01*
X8099104Y-7822184D01*
X8178800Y-4824984D02*
G01*
X8178800Y-4933950D01*
X8178800Y-4824984D02*
G01*
X8225536Y-4824984D01*
X8241029Y-4830063D01*
X8246363Y-4835397D01*
X8251443Y-4845812D01*
X8251443Y-4856226D01*
X8246363Y-4866639D01*
X8241029Y-4871720D01*
X8225536Y-4876800D01*
X8178800Y-4876800D01*
X8215122Y-4876800D02*
G01*
X8251443Y-4933950D01*
X8337804Y-4824984D02*
G01*
X8285734Y-4897628D01*
X8363711Y-4897628D01*
X8337804Y-4824984D02*
G01*
X8337804Y-4933950D01*
X8398002Y-4845812D02*
G01*
X8408415Y-4840478D01*
X8423909Y-4824984D01*
X8423909Y-4933950D01*
X1523997Y-6488671D02*
G01*
X1523997Y-6597637D01*
X1523997Y-6488671D02*
G01*
X1570733Y-6488671D01*
X1586227Y-6493751D01*
X1591561Y-6499085D01*
X1596641Y-6509499D01*
X1596641Y-6519913D01*
X1591561Y-6530327D01*
X1586227Y-6535407D01*
X1570733Y-6540487D01*
X1523997Y-6540487D01*
X1560319Y-6540487D02*
G01*
X1596641Y-6597637D01*
X1683001Y-6488671D02*
G01*
X1630931Y-6561315D01*
X1708909Y-6561315D01*
X1683001Y-6488671D02*
G01*
X1683001Y-6597637D01*
X1748533Y-6514579D02*
G01*
X1748533Y-6509499D01*
X1753613Y-6499085D01*
X1758947Y-6493751D01*
X1769107Y-6488671D01*
X1789935Y-6488671D01*
X1800349Y-6493751D01*
X1805683Y-6499085D01*
X1810763Y-6509499D01*
X1810763Y-6519913D01*
X1805683Y-6530327D01*
X1795269Y-6545821D01*
X1743199Y-6597637D01*
X1816097Y-6597637D01*
X2971800Y-6463284D02*
G01*
X2971800Y-6572250D01*
X2971800Y-6463284D02*
G01*
X3018536Y-6463284D01*
X3034029Y-6468363D01*
X3039363Y-6473697D01*
X3044443Y-6484112D01*
X3044443Y-6494526D01*
X3039363Y-6504939D01*
X3034029Y-6510020D01*
X3018536Y-6515100D01*
X2971800Y-6515100D01*
X3008122Y-6515100D02*
G01*
X3044443Y-6572250D01*
X3130804Y-6463284D02*
G01*
X3078734Y-6535928D01*
X3156711Y-6535928D01*
X3130804Y-6463284D02*
G01*
X3130804Y-6572250D01*
X3201415Y-6463284D02*
G01*
X3258565Y-6463284D01*
X3227324Y-6504939D01*
X3243072Y-6504939D01*
X3253486Y-6510020D01*
X3258565Y-6515100D01*
X3263900Y-6530847D01*
X3263900Y-6541262D01*
X3258565Y-6556755D01*
X3248152Y-6567170D01*
X3232658Y-6572250D01*
X3216909Y-6572250D01*
X3201415Y-6567170D01*
X3196336Y-6562089D01*
X3191002Y-6551676D01*
X4622800Y-5967984D02*
G01*
X4622800Y-6076950D01*
X4622800Y-5967984D02*
G01*
X4669536Y-5967984D01*
X4685029Y-5973063D01*
X4690363Y-5978397D01*
X4695443Y-5988812D01*
X4695443Y-5999226D01*
X4690363Y-6009639D01*
X4685029Y-6014720D01*
X4669536Y-6019800D01*
X4622800Y-6019800D01*
X4659122Y-6019800D02*
G01*
X4695443Y-6076950D01*
X4781804Y-5967984D02*
G01*
X4729734Y-6040628D01*
X4807711Y-6040628D01*
X4781804Y-5967984D02*
G01*
X4781804Y-6076950D01*
X4894072Y-5967984D02*
G01*
X4842002Y-6040628D01*
X4919979Y-6040628D01*
X4894072Y-5967984D02*
G01*
X4894072Y-6076950D01*
X4660900Y-6488684D02*
G01*
X4660900Y-6597650D01*
X4660900Y-6488684D02*
G01*
X4707636Y-6488684D01*
X4723129Y-6493763D01*
X4728463Y-6499097D01*
X4733543Y-6509512D01*
X4733543Y-6519926D01*
X4728463Y-6530339D01*
X4723129Y-6535420D01*
X4707636Y-6540500D01*
X4660900Y-6540500D01*
X4697222Y-6540500D02*
G01*
X4733543Y-6597650D01*
X4819904Y-6488684D02*
G01*
X4767834Y-6561328D01*
X4845811Y-6561328D01*
X4819904Y-6488684D02*
G01*
X4819904Y-6597650D01*
X4942586Y-6488684D02*
G01*
X4890515Y-6488684D01*
X4885436Y-6535420D01*
X4890515Y-6530339D01*
X4906009Y-6525005D01*
X4921758Y-6525005D01*
X4937252Y-6530339D01*
X4947665Y-6540500D01*
X4953000Y-6556247D01*
X4953000Y-6566662D01*
X4947665Y-6582155D01*
X4937252Y-6592570D01*
X4921758Y-6597650D01*
X4906009Y-6597650D01*
X4890515Y-6592570D01*
X4885436Y-6587489D01*
X4880102Y-6577076D01*
X2997200Y-7022084D02*
G01*
X2997200Y-7131050D01*
X2997200Y-7022084D02*
G01*
X3043936Y-7022084D01*
X3059429Y-7027163D01*
X3064763Y-7032497D01*
X3069843Y-7042912D01*
X3069843Y-7053326D01*
X3064763Y-7063739D01*
X3059429Y-7068820D01*
X3043936Y-7073900D01*
X2997200Y-7073900D01*
X3033522Y-7073900D02*
G01*
X3069843Y-7131050D01*
X3156204Y-7022084D02*
G01*
X3104134Y-7094728D01*
X3182111Y-7094728D01*
X3156204Y-7022084D02*
G01*
X3156204Y-7131050D01*
X3278886Y-7037578D02*
G01*
X3273552Y-7027163D01*
X3258058Y-7022084D01*
X3247643Y-7022084D01*
X3232150Y-7027163D01*
X3221736Y-7042912D01*
X3216402Y-7068820D01*
X3216402Y-7094728D01*
X3221736Y-7115555D01*
X3232150Y-7125970D01*
X3247643Y-7131050D01*
X3252724Y-7131050D01*
X3268472Y-7125970D01*
X3278886Y-7115555D01*
X3283965Y-7100062D01*
X3283965Y-7094728D01*
X3278886Y-7079234D01*
X3268472Y-7068820D01*
X3252724Y-7063739D01*
X3247643Y-7063739D01*
X3232150Y-7068820D01*
X3221736Y-7079234D01*
X3216402Y-7094728D01*
X4610100Y-6996684D02*
G01*
X4610100Y-7105650D01*
X4610100Y-6996684D02*
G01*
X4656836Y-6996684D01*
X4672329Y-7001763D01*
X4677663Y-7007097D01*
X4682743Y-7017512D01*
X4682743Y-7027926D01*
X4677663Y-7038339D01*
X4672329Y-7043420D01*
X4656836Y-7048500D01*
X4610100Y-7048500D01*
X4646422Y-7048500D02*
G01*
X4682743Y-7105650D01*
X4769104Y-6996684D02*
G01*
X4717034Y-7069328D01*
X4795011Y-7069328D01*
X4769104Y-6996684D02*
G01*
X4769104Y-7105650D01*
X4902200Y-6996684D02*
G01*
X4850129Y-7105650D01*
X4829302Y-6996684D02*
G01*
X4902200Y-6996684D01*
X1523997Y-6742671D02*
G01*
X1523997Y-6851637D01*
X1523997Y-6742671D02*
G01*
X1570733Y-6742671D01*
X1586227Y-6747751D01*
X1591561Y-6753085D01*
X1596641Y-6763499D01*
X1596641Y-6773913D01*
X1591561Y-6784327D01*
X1586227Y-6789407D01*
X1570733Y-6794487D01*
X1523997Y-6794487D01*
X1560319Y-6794487D02*
G01*
X1596641Y-6851637D01*
X1683001Y-6742671D02*
G01*
X1630931Y-6815315D01*
X1708909Y-6815315D01*
X1683001Y-6742671D02*
G01*
X1683001Y-6851637D01*
X1769107Y-6742671D02*
G01*
X1753613Y-6747751D01*
X1748533Y-6758165D01*
X1748533Y-6768579D01*
X1753613Y-6778993D01*
X1764027Y-6784327D01*
X1784855Y-6789407D01*
X1800349Y-6794487D01*
X1810763Y-6804901D01*
X1816097Y-6815315D01*
X1816097Y-6831063D01*
X1810763Y-6841477D01*
X1805683Y-6846557D01*
X1789935Y-6851637D01*
X1769107Y-6851637D01*
X1753613Y-6846557D01*
X1748533Y-6841477D01*
X1743199Y-6831063D01*
X1743199Y-6815315D01*
X1748533Y-6804901D01*
X1758947Y-6794487D01*
X1774441Y-6789407D01*
X1795269Y-6784327D01*
X1805683Y-6778993D01*
X1810763Y-6768579D01*
X1810763Y-6758165D01*
X1805683Y-6747751D01*
X1789935Y-6742671D01*
X1769107Y-6742671D01*
X4660900Y-6742684D02*
G01*
X4660900Y-6851650D01*
X4660900Y-6742684D02*
G01*
X4707636Y-6742684D01*
X4723129Y-6747763D01*
X4728463Y-6753097D01*
X4733543Y-6763512D01*
X4733543Y-6773926D01*
X4728463Y-6784339D01*
X4723129Y-6789420D01*
X4707636Y-6794500D01*
X4660900Y-6794500D01*
X4697222Y-6794500D02*
G01*
X4733543Y-6851650D01*
X4819904Y-6742684D02*
G01*
X4767834Y-6815328D01*
X4845811Y-6815328D01*
X4819904Y-6742684D02*
G01*
X4819904Y-6851650D01*
X4947665Y-6779005D02*
G01*
X4942586Y-6794500D01*
X4932172Y-6804913D01*
X4916424Y-6810247D01*
X4911343Y-6810247D01*
X4895850Y-6804913D01*
X4885436Y-6794500D01*
X4880102Y-6779005D01*
X4880102Y-6773926D01*
X4885436Y-6758178D01*
X4895850Y-6747763D01*
X4911343Y-6742684D01*
X4916424Y-6742684D01*
X4932172Y-6747763D01*
X4942586Y-6758178D01*
X4947665Y-6779005D01*
X4947665Y-6804913D01*
X4942586Y-6831076D01*
X4932172Y-6846570D01*
X4916424Y-6851650D01*
X4906009Y-6851650D01*
X4890515Y-6846570D01*
X4885436Y-6836155D01*
X6311900Y-7250684D02*
G01*
X6311900Y-7359650D01*
X6311900Y-7250684D02*
G01*
X6358636Y-7250684D01*
X6374129Y-7255763D01*
X6379463Y-7261097D01*
X6384543Y-7271512D01*
X6384543Y-7281926D01*
X6379463Y-7292339D01*
X6374129Y-7297420D01*
X6358636Y-7302500D01*
X6311900Y-7302500D01*
X6348222Y-7302500D02*
G01*
X6384543Y-7359650D01*
X6481318Y-7250684D02*
G01*
X6429247Y-7250684D01*
X6424168Y-7297420D01*
X6429247Y-7292339D01*
X6444995Y-7287005D01*
X6460490Y-7287005D01*
X6475984Y-7292339D01*
X6486397Y-7302500D01*
X6491731Y-7318247D01*
X6491731Y-7328662D01*
X6486397Y-7344155D01*
X6475984Y-7354570D01*
X6460490Y-7359650D01*
X6444995Y-7359650D01*
X6429247Y-7354570D01*
X6424168Y-7349489D01*
X6418834Y-7339076D01*
X6557009Y-7250684D02*
G01*
X6541515Y-7255763D01*
X6531102Y-7271512D01*
X6526022Y-7297420D01*
X6526022Y-7312913D01*
X6531102Y-7339076D01*
X6541515Y-7354570D01*
X6557009Y-7359650D01*
X6567424Y-7359650D01*
X6583172Y-7354570D01*
X6593586Y-7339076D01*
X6598665Y-7312913D01*
X6598665Y-7297420D01*
X6593586Y-7271512D01*
X6583172Y-7255763D01*
X6567424Y-7250684D01*
X6557009Y-7250684D01*
X5981700Y-6069584D02*
G01*
X5981700Y-6178550D01*
X5981700Y-6069584D02*
G01*
X6028436Y-6069584D01*
X6043929Y-6074663D01*
X6049263Y-6079997D01*
X6054343Y-6090412D01*
X6054343Y-6100826D01*
X6049263Y-6111239D01*
X6043929Y-6116320D01*
X6028436Y-6121400D01*
X5981700Y-6121400D01*
X6018022Y-6121400D02*
G01*
X6054343Y-6178550D01*
X6151118Y-6069584D02*
G01*
X6099047Y-6069584D01*
X6093968Y-6116320D01*
X6099047Y-6111239D01*
X6114795Y-6105905D01*
X6130290Y-6105905D01*
X6145784Y-6111239D01*
X6156197Y-6121400D01*
X6161531Y-6137147D01*
X6161531Y-6147562D01*
X6156197Y-6163055D01*
X6145784Y-6173470D01*
X6130290Y-6178550D01*
X6114795Y-6178550D01*
X6099047Y-6173470D01*
X6093968Y-6168389D01*
X6088634Y-6157976D01*
X6195822Y-6090412D02*
G01*
X6206236Y-6085078D01*
X6221729Y-6069584D01*
X6221729Y-6178550D01*
X6540500Y-4863084D02*
G01*
X6540500Y-4972050D01*
X6540500Y-4863084D02*
G01*
X6587236Y-4863084D01*
X6602729Y-4868163D01*
X6608063Y-4873497D01*
X6613143Y-4883912D01*
X6613143Y-4894326D01*
X6608063Y-4904739D01*
X6602729Y-4909820D01*
X6587236Y-4914900D01*
X6540500Y-4914900D01*
X6576822Y-4914900D02*
G01*
X6613143Y-4972050D01*
X6709918Y-4863084D02*
G01*
X6657847Y-4863084D01*
X6652768Y-4909820D01*
X6657847Y-4904739D01*
X6673595Y-4899405D01*
X6689090Y-4899405D01*
X6704584Y-4904739D01*
X6714997Y-4914900D01*
X6720331Y-4930647D01*
X6720331Y-4941062D01*
X6714997Y-4956555D01*
X6704584Y-4966970D01*
X6689090Y-4972050D01*
X6673595Y-4972050D01*
X6657847Y-4966970D01*
X6652768Y-4961889D01*
X6647434Y-4951476D01*
X6759702Y-4888992D02*
G01*
X6759702Y-4883912D01*
X6765036Y-4873497D01*
X6770115Y-4868163D01*
X6780529Y-4863084D01*
X6801358Y-4863084D01*
X6811772Y-4868163D01*
X6816852Y-4873497D01*
X6822186Y-4883912D01*
X6822186Y-4894326D01*
X6816852Y-4904739D01*
X6806438Y-4920234D01*
X6754622Y-4972050D01*
X6827265Y-4972050D01*
X6527800Y-5193284D02*
G01*
X6527800Y-5302250D01*
X6527800Y-5193284D02*
G01*
X6574536Y-5193284D01*
X6590029Y-5198363D01*
X6595363Y-5203697D01*
X6600443Y-5214112D01*
X6600443Y-5224526D01*
X6595363Y-5234939D01*
X6590029Y-5240020D01*
X6574536Y-5245100D01*
X6527800Y-5245100D01*
X6564122Y-5245100D02*
G01*
X6600443Y-5302250D01*
X6697218Y-5193284D02*
G01*
X6645147Y-5193284D01*
X6640068Y-5240020D01*
X6645147Y-5234939D01*
X6660895Y-5229605D01*
X6676390Y-5229605D01*
X6691884Y-5234939D01*
X6702297Y-5245100D01*
X6707631Y-5260847D01*
X6707631Y-5271262D01*
X6702297Y-5286755D01*
X6691884Y-5297170D01*
X6676390Y-5302250D01*
X6660895Y-5302250D01*
X6645147Y-5297170D01*
X6640068Y-5292089D01*
X6634734Y-5281676D01*
X6752336Y-5193284D02*
G01*
X6809486Y-5193284D01*
X6778243Y-5234939D01*
X6793738Y-5234939D01*
X6804152Y-5240020D01*
X6809486Y-5245100D01*
X6814565Y-5260847D01*
X6814565Y-5271262D01*
X6809486Y-5286755D01*
X6799072Y-5297170D01*
X6783324Y-5302250D01*
X6767829Y-5302250D01*
X6752336Y-5297170D01*
X6747002Y-5292089D01*
X6741922Y-5281676D01*
X6261100Y-6729984D02*
G01*
X6261100Y-6838950D01*
X6261100Y-6729984D02*
G01*
X6307836Y-6729984D01*
X6323329Y-6735063D01*
X6328663Y-6740397D01*
X6333743Y-6750812D01*
X6333743Y-6761226D01*
X6328663Y-6771639D01*
X6323329Y-6776720D01*
X6307836Y-6781800D01*
X6261100Y-6781800D01*
X6297422Y-6781800D02*
G01*
X6333743Y-6838950D01*
X6430518Y-6729984D02*
G01*
X6378447Y-6729984D01*
X6373368Y-6776720D01*
X6378447Y-6771639D01*
X6394195Y-6766305D01*
X6409690Y-6766305D01*
X6425184Y-6771639D01*
X6435597Y-6781800D01*
X6440931Y-6797547D01*
X6440931Y-6807962D01*
X6435597Y-6823455D01*
X6425184Y-6833870D01*
X6409690Y-6838950D01*
X6394195Y-6838950D01*
X6378447Y-6833870D01*
X6373368Y-6828789D01*
X6368034Y-6818376D01*
X6527038Y-6729984D02*
G01*
X6475222Y-6802628D01*
X6553200Y-6802628D01*
X6527038Y-6729984D02*
G01*
X6527038Y-6838950D01*
X7239000Y-5955284D02*
G01*
X7239000Y-6064250D01*
X7239000Y-5955284D02*
G01*
X7285736Y-5955284D01*
X7301229Y-5960363D01*
X7306563Y-5965697D01*
X7311643Y-5976112D01*
X7311643Y-5986526D01*
X7306563Y-5996939D01*
X7301229Y-6002020D01*
X7285736Y-6007100D01*
X7239000Y-6007100D01*
X7275322Y-6007100D02*
G01*
X7311643Y-6064250D01*
X7408418Y-5955284D02*
G01*
X7356347Y-5955284D01*
X7351268Y-6002020D01*
X7356347Y-5996939D01*
X7372095Y-5991605D01*
X7387590Y-5991605D01*
X7403084Y-5996939D01*
X7413497Y-6007100D01*
X7418831Y-6022847D01*
X7418831Y-6033262D01*
X7413497Y-6048755D01*
X7403084Y-6059170D01*
X7387590Y-6064250D01*
X7372095Y-6064250D01*
X7356347Y-6059170D01*
X7351268Y-6054089D01*
X7345934Y-6043676D01*
X7515352Y-5955284D02*
G01*
X7463536Y-5955284D01*
X7458202Y-6002020D01*
X7463536Y-5996939D01*
X7479029Y-5991605D01*
X7494524Y-5991605D01*
X7510272Y-5996939D01*
X7520686Y-6007100D01*
X7525765Y-6022847D01*
X7525765Y-6033262D01*
X7520686Y-6048755D01*
X7510272Y-6059170D01*
X7494524Y-6064250D01*
X7479029Y-6064250D01*
X7463536Y-6059170D01*
X7458202Y-6054089D01*
X7453122Y-6043676D01*
X6273800Y-6983984D02*
G01*
X6273800Y-7092950D01*
X6273800Y-6983984D02*
G01*
X6320536Y-6983984D01*
X6336029Y-6989063D01*
X6341363Y-6994397D01*
X6346443Y-7004812D01*
X6346443Y-7015226D01*
X6341363Y-7025639D01*
X6336029Y-7030720D01*
X6320536Y-7035800D01*
X6273800Y-7035800D01*
X6310122Y-7035800D02*
G01*
X6346443Y-7092950D01*
X6443218Y-6983984D02*
G01*
X6391147Y-6983984D01*
X6386068Y-7030720D01*
X6391147Y-7025639D01*
X6406895Y-7020305D01*
X6422390Y-7020305D01*
X6437884Y-7025639D01*
X6448297Y-7035800D01*
X6453631Y-7051547D01*
X6453631Y-7061962D01*
X6448297Y-7077455D01*
X6437884Y-7087870D01*
X6422390Y-7092950D01*
X6406895Y-7092950D01*
X6391147Y-7087870D01*
X6386068Y-7082789D01*
X6380734Y-7072376D01*
X6550152Y-6999478D02*
G01*
X6545072Y-6989063D01*
X6529324Y-6983984D01*
X6518909Y-6983984D01*
X6503415Y-6989063D01*
X6493002Y-7004812D01*
X6487922Y-7030720D01*
X6487922Y-7056628D01*
X6493002Y-7077455D01*
X6503415Y-7087870D01*
X6518909Y-7092950D01*
X6524243Y-7092950D01*
X6539738Y-7087870D01*
X6550152Y-7077455D01*
X6555486Y-7061962D01*
X6555486Y-7056628D01*
X6550152Y-7041134D01*
X6539738Y-7030720D01*
X6524243Y-7025639D01*
X6518909Y-7025639D01*
X6503415Y-7030720D01*
X6493002Y-7041134D01*
X6487922Y-7056628D01*
X6210300Y-5904484D02*
G01*
X6210300Y-6013450D01*
X6210300Y-5904484D02*
G01*
X6257036Y-5904484D01*
X6272529Y-5909563D01*
X6277863Y-5914897D01*
X6282943Y-5925312D01*
X6282943Y-5935726D01*
X6277863Y-5946139D01*
X6272529Y-5951220D01*
X6257036Y-5956300D01*
X6210300Y-5956300D01*
X6246622Y-5956300D02*
G01*
X6282943Y-6013450D01*
X6379718Y-5904484D02*
G01*
X6327647Y-5904484D01*
X6322568Y-5951220D01*
X6327647Y-5946139D01*
X6343395Y-5940805D01*
X6358890Y-5940805D01*
X6374384Y-5946139D01*
X6384797Y-5956300D01*
X6390131Y-5972047D01*
X6390131Y-5982462D01*
X6384797Y-5997955D01*
X6374384Y-6008370D01*
X6358890Y-6013450D01*
X6343395Y-6013450D01*
X6327647Y-6008370D01*
X6322568Y-6003289D01*
X6317234Y-5992876D01*
X6497065Y-5904484D02*
G01*
X6445250Y-6013450D01*
X6424422Y-5904484D02*
G01*
X6497065Y-5904484D01*
X6007100Y-9701784D02*
G01*
X6007100Y-9779762D01*
X6012179Y-9795255D01*
X6022593Y-9805670D01*
X6038341Y-9810750D01*
X6048756Y-9810750D01*
X6064250Y-9805670D01*
X6074663Y-9795255D01*
X6079743Y-9779762D01*
X6079743Y-9701784D01*
X6119368Y-9727692D02*
G01*
X6119368Y-9722612D01*
X6124447Y-9712197D01*
X6129781Y-9706863D01*
X6140195Y-9701784D01*
X6160770Y-9701784D01*
X6171184Y-9706863D01*
X6176518Y-9712197D01*
X6181597Y-9722612D01*
X6181597Y-9733026D01*
X6176518Y-9743439D01*
X6166104Y-9758934D01*
X6114034Y-9810750D01*
X6186931Y-9810750D01*
X3225800Y-3859796D02*
G01*
X3225800Y-3937774D01*
X3230879Y-3953268D01*
X3241293Y-3963682D01*
X3257041Y-3968762D01*
X3267456Y-3968762D01*
X3282950Y-3963682D01*
X3293363Y-3953268D01*
X3298443Y-3937774D01*
X3298443Y-3859796D01*
X3384804Y-3859796D02*
G01*
X3332734Y-3932440D01*
X3410711Y-3932440D01*
X3384804Y-3859796D02*
G01*
X3384804Y-3968762D01*
X7580782Y-3301872D02*
G01*
X7658760Y-3301872D01*
X7674254Y-3296793D01*
X7684668Y-3286379D01*
X7690002Y-3270885D01*
X7690002Y-3260470D01*
X7684668Y-3244722D01*
X7674254Y-3234562D01*
X7658760Y-3229229D01*
X7580782Y-3229229D01*
X7580782Y-3132709D02*
G01*
X7580782Y-3184525D01*
X7627518Y-3189859D01*
X7622438Y-3184525D01*
X7617104Y-3169030D01*
X7617104Y-3153282D01*
X7622438Y-3137788D01*
X7632852Y-3127375D01*
X7648346Y-3122295D01*
X7658760Y-3122295D01*
X7674254Y-3127375D01*
X7684668Y-3137788D01*
X7690002Y-3153282D01*
X7690002Y-3169030D01*
X7684668Y-3184525D01*
X7679588Y-3189859D01*
X7669174Y-3194938D01*
X8318606Y-471474D02*
G01*
X8318606Y-549452D01*
X8323686Y-564946D01*
X8334100Y-575360D01*
X8349594Y-580440D01*
X8360008Y-580440D01*
X8375756Y-575360D01*
X8386170Y-564946D01*
X8391250Y-549452D01*
X8391250Y-471474D01*
X8487770Y-486968D02*
G01*
X8482690Y-476554D01*
X8467196Y-471474D01*
X8456782Y-471474D01*
X8441034Y-476554D01*
X8430620Y-492302D01*
X8425540Y-518210D01*
X8425540Y-544118D01*
X8430620Y-564946D01*
X8441034Y-575360D01*
X8456782Y-580440D01*
X8461862Y-580440D01*
X8477610Y-575360D01*
X8487770Y-564946D01*
X8493104Y-549452D01*
X8493104Y-544118D01*
X8487770Y-528624D01*
X8477610Y-518210D01*
X8461862Y-513130D01*
X8456782Y-513130D01*
X8441034Y-518210D01*
X8430620Y-528624D01*
X8425540Y-544118D01*
X8204200Y-5675884D02*
G01*
X8204200Y-5753862D01*
X8209279Y-5769355D01*
X8219693Y-5779770D01*
X8235441Y-5784850D01*
X8245856Y-5784850D01*
X8261350Y-5779770D01*
X8271763Y-5769355D01*
X8276843Y-5753862D01*
X8276843Y-5675884D01*
X8384031Y-5675884D02*
G01*
X8331961Y-5784850D01*
X8311134Y-5675884D02*
G01*
X8384031Y-5675884D01*
X1397000Y-6158484D02*
G01*
X1397000Y-6236462D01*
X1402079Y-6251955D01*
X1412494Y-6262370D01*
X1428242Y-6267450D01*
X1438655Y-6267450D01*
X1454150Y-6262370D01*
X1464563Y-6251955D01*
X1469644Y-6236462D01*
X1469644Y-6158484D01*
X1530095Y-6158484D02*
G01*
X1514347Y-6163563D01*
X1509268Y-6173978D01*
X1509268Y-6184392D01*
X1514347Y-6194805D01*
X1524762Y-6200139D01*
X1545589Y-6205220D01*
X1561084Y-6210300D01*
X1571497Y-6220713D01*
X1576831Y-6231128D01*
X1576831Y-6246876D01*
X1571497Y-6257289D01*
X1566418Y-6262370D01*
X1550670Y-6267450D01*
X1530095Y-6267450D01*
X1514347Y-6262370D01*
X1509268Y-6257289D01*
X1503934Y-6246876D01*
X1503934Y-6231128D01*
X1509268Y-6220713D01*
X1519681Y-6210300D01*
X1535176Y-6205220D01*
X1556004Y-6200139D01*
X1566418Y-6194805D01*
X1571497Y-6184392D01*
X1571497Y-6173978D01*
X1566418Y-6163563D01*
X1550670Y-6158484D01*
X1530095Y-6158484D01*
X2908300Y-6158484D02*
G01*
X2908300Y-6236462D01*
X2913379Y-6251955D01*
X2923793Y-6262370D01*
X2939541Y-6267450D01*
X2949956Y-6267450D01*
X2965450Y-6262370D01*
X2975863Y-6251955D01*
X2980943Y-6236462D01*
X2980943Y-6158484D01*
X3082797Y-6194805D02*
G01*
X3077718Y-6210300D01*
X3067304Y-6220713D01*
X3051809Y-6226047D01*
X3046475Y-6226047D01*
X3030981Y-6220713D01*
X3020568Y-6210300D01*
X3015234Y-6194805D01*
X3015234Y-6189726D01*
X3020568Y-6173978D01*
X3030981Y-6163563D01*
X3046475Y-6158484D01*
X3051809Y-6158484D01*
X3067304Y-6163563D01*
X3077718Y-6173978D01*
X3082797Y-6194805D01*
X3082797Y-6220713D01*
X3077718Y-6246876D01*
X3067304Y-6262370D01*
X3051809Y-6267450D01*
X3041395Y-6267450D01*
X3025647Y-6262370D01*
X3020568Y-6251955D01*
X5270500Y-3986784D02*
G01*
X5270500Y-4064762D01*
X5275579Y-4080255D01*
X5285993Y-4090670D01*
X5301741Y-4095750D01*
X5312156Y-4095750D01*
X5327650Y-4090670D01*
X5338063Y-4080255D01*
X5343143Y-4064762D01*
X5343143Y-3986784D01*
X5377434Y-4007612D02*
G01*
X5387847Y-4002278D01*
X5403595Y-3986784D01*
X5403595Y-4095750D01*
X5468874Y-3986784D02*
G01*
X5453379Y-3991863D01*
X5442965Y-4007612D01*
X5437886Y-4033520D01*
X5437886Y-4049013D01*
X5442965Y-4075176D01*
X5453379Y-4090670D01*
X5468874Y-4095750D01*
X5479288Y-4095750D01*
X5495036Y-4090670D01*
X5505450Y-4075176D01*
X5510529Y-4049013D01*
X5510529Y-4033520D01*
X5505450Y-4007612D01*
X5495036Y-3991863D01*
X5479288Y-3986784D01*
X5468874Y-3986784D01*
X5638800Y-6412484D02*
G01*
X5638800Y-6490462D01*
X5643879Y-6505955D01*
X5654293Y-6516370D01*
X5670041Y-6521450D01*
X5680456Y-6521450D01*
X5695950Y-6516370D01*
X5706363Y-6505955D01*
X5711443Y-6490462D01*
X5711443Y-6412484D01*
X5745734Y-6433312D02*
G01*
X5756147Y-6427978D01*
X5771895Y-6412484D01*
X5771895Y-6521450D01*
X5806186Y-6433312D02*
G01*
X5816600Y-6427978D01*
X5832093Y-6412484D01*
X5832093Y-6521450D01*
X5487415Y-990600D02*
G01*
X5409438Y-990600D01*
X5393943Y-995679D01*
X5383529Y-1006094D01*
X5378450Y-1021842D01*
X5378450Y-1032255D01*
X5383529Y-1047750D01*
X5393943Y-1058163D01*
X5409438Y-1063244D01*
X5487415Y-1063244D01*
X5466588Y-1097534D02*
G01*
X5471922Y-1107947D01*
X5487415Y-1123695D01*
X5378450Y-1123695D01*
X5487415Y-1168400D02*
G01*
X5487415Y-1225550D01*
X5445759Y-1194307D01*
X5445759Y-1209802D01*
X5440679Y-1220215D01*
X5435600Y-1225550D01*
X5419852Y-1230629D01*
X5409438Y-1230629D01*
X5393943Y-1225550D01*
X5383529Y-1215136D01*
X5378450Y-1199387D01*
X5378450Y-1183894D01*
X5383529Y-1168400D01*
X5388609Y-1163065D01*
X5399024Y-1157986D01*
G36*
X7384999Y-2015236D02*
G01*
X7384999Y-2050491D01*
X7415479Y-2050491D01*
X7415479Y-2015236D01*
G37*
G36*
X7384999Y-2140508D02*
G01*
X7384999Y-2175764D01*
X7415479Y-2175764D01*
X7415479Y-2140508D01*
G37*
G36*
X1164640Y-8850934D02*
G01*
X1164640Y-8902547D01*
X1177544Y-8902547D01*
X1177544Y-8850934D01*
G37*
G36*
X1164640Y-8498332D02*
G01*
X1164640Y-8549944D01*
X1177544Y-8549944D01*
X1177544Y-8498332D01*
G37*
G36*
X1128115Y-8517686D02*
G01*
X1128115Y-8530590D01*
X1214120Y-8530590D01*
X1214120Y-8517686D01*
G37*
G36*
X1164640Y-7771434D02*
G01*
X1164640Y-7823047D01*
X1177544Y-7823047D01*
X1177544Y-7771434D01*
G37*
G36*
X1164640Y-7418831D02*
G01*
X1164640Y-7470444D01*
X1177544Y-7470444D01*
X1177544Y-7418831D01*
G37*
G36*
X1128115Y-7438186D02*
G01*
X1128115Y-7451090D01*
X1214120Y-7451090D01*
X1214120Y-7438186D01*
G37*
G36*
X2945434Y-7902956D02*
G01*
X2945434Y-7915859D01*
X2997047Y-7915859D01*
X2997047Y-7902956D01*
G37*
G36*
X2592832Y-7902956D02*
G01*
X2592832Y-7915859D01*
X2644444Y-7915859D01*
X2644444Y-7902956D01*
G37*
G36*
X2612186Y-7866380D02*
G01*
X2612186Y-7952384D01*
X2625090Y-7952384D01*
X2625090Y-7866380D01*
G37*
G36*
X4596434Y-7902956D02*
G01*
X4596434Y-7915859D01*
X4648047Y-7915859D01*
X4648047Y-7902956D01*
G37*
G36*
X4243832Y-7902956D02*
G01*
X4243832Y-7915859D01*
X4295444Y-7915859D01*
X4295444Y-7902956D01*
G37*
G36*
X4263186Y-7866380D02*
G01*
X4263186Y-7952384D01*
X4276090Y-7952384D01*
X4276090Y-7866380D01*
G37*
G36*
X5990640Y-8469934D02*
G01*
X5990640Y-8521547D01*
X6003544Y-8521547D01*
X6003544Y-8469934D01*
G37*
G36*
X5990640Y-8117331D02*
G01*
X5990640Y-8168944D01*
X6003544Y-8168944D01*
X6003544Y-8117331D01*
G37*
G36*
X5954115Y-8136686D02*
G01*
X5954115Y-8149590D01*
X6040120Y-8149590D01*
X6040120Y-8136686D01*
G37*
G36*
X7514640Y-8596934D02*
G01*
X7514640Y-8648547D01*
X7527544Y-8648547D01*
X7527544Y-8596934D01*
G37*
G36*
X7514640Y-8244331D02*
G01*
X7514640Y-8295944D01*
X7527544Y-8295944D01*
X7527544Y-8244331D01*
G37*
G36*
X7478115Y-8263686D02*
G01*
X7478115Y-8276590D01*
X7564120Y-8276590D01*
X7564120Y-8263686D01*
G37*
G36*
X7722514Y-1485493D02*
G01*
X7732522Y-1525524D01*
X7747508Y-1570482D01*
X7777480Y-1605483D01*
X7812481Y-1640484D01*
X7832496Y-1655521D01*
X7857490Y-1665478D01*
X7857490Y-1520494D01*
X8012480Y-1520494D01*
X8012480Y-1670507D01*
X8072475Y-1640484D01*
X8092490Y-1625498D01*
X8112506Y-1595526D01*
X8142478Y-1545488D01*
X8152485Y-1520494D01*
X8157514Y-1485493D01*
G37*
G36*
X8152993Y-4034485D02*
G01*
X8152993Y-4469485D01*
X8193024Y-4459478D01*
X8237981Y-4444492D01*
X8272983Y-4414520D01*
X8307984Y-4379518D01*
X8323021Y-4359503D01*
X8332978Y-4334510D01*
X8187994Y-4334510D01*
X8187994Y-4179519D01*
X8338007Y-4179519D01*
X8307984Y-4119473D01*
X8292998Y-4099509D01*
X8262975Y-4079494D01*
X8212988Y-4049522D01*
X8187994Y-4039514D01*
G37*
G36*
X8391398Y-1628495D02*
G01*
X8391398Y-1686102D01*
X8405774Y-1686102D01*
X8405774Y-1628495D01*
G37*
G36*
X8391398Y-1234897D02*
G01*
X8391398Y-1292504D01*
X8405774Y-1292504D01*
X8405774Y-1234897D01*
G37*
G36*
X8350605Y-1256487D02*
G01*
X8350605Y-1270914D01*
X8446617Y-1270914D01*
X8446617Y-1256487D01*
G37*
G36*
X7087006Y-1436014D02*
G01*
X7046975Y-1446022D01*
X7002018Y-1461008D01*
X6967016Y-1490980D01*
X6932015Y-1525981D01*
X6916978Y-1545996D01*
X6907022Y-1570990D01*
X7052005Y-1570990D01*
X7052005Y-1725980D01*
X6901992Y-1725980D01*
X6932015Y-1786026D01*
X6947001Y-1805990D01*
X6977024Y-1826006D01*
X7027011Y-1855978D01*
X7052005Y-1865985D01*
X7087006Y-1871014D01*
G37*
G36*
X6189522Y-1677771D02*
G01*
X6189522Y-1709775D01*
X6220002Y-1709775D01*
X6220002Y-1677771D01*
G37*
G36*
X6189522Y-1846275D02*
G01*
X6189522Y-1878228D01*
X6220002Y-1878228D01*
X6220002Y-1846275D01*
G37*
G36*
X8744508Y-4082999D02*
G01*
X8744508Y-4113479D01*
X8779764Y-4113479D01*
X8779764Y-4082999D01*
G37*
G36*
X8619236Y-4082999D02*
G01*
X8619236Y-4113479D01*
X8654491Y-4113479D01*
X8654491Y-4082999D01*
G37*
D13*
X4191000Y-4508500D02*
G01*
X4826000Y-4508500D01*
X4826000Y-4000500D01*
X4762500Y-3937000D01*
X4254500Y-3937000D01*
X4191000Y-4000500D01*
X4191000Y-4508500D01*
X4635500Y-4445000D02*
G01*
X4635500Y-4254500D01*
X4381500Y-4254500D02*
G01*
X4381500Y-4445000D01*
X4508500Y-4254500D02*
G01*
X4508500Y-4445000D01*
X4699000Y-4254500D02*
G01*
X4762500Y-4318000D01*
X4762500Y-4381500D01*
X4699000Y-4445000D01*
X4318000Y-4445000D01*
X4254500Y-4381500D01*
X4254500Y-4318000D01*
X4318000Y-4254500D01*
X4699000Y-4254500D01*
X4572000Y-4127500D02*
G01*
X4572000Y-4064000D01*
X4635500Y-4000500D01*
X4699000Y-4000500D01*
X4762500Y-4064000D01*
X4762500Y-4127500D01*
X4699000Y-4191000D01*
X4635500Y-4191000D01*
X4572000Y-4127500D01*
X4254500Y-4064000D02*
G01*
X4318000Y-4000500D01*
X4381500Y-4000500D01*
X4445000Y-4064000D01*
X4445000Y-4127500D01*
X4381500Y-4191000D01*
X4318000Y-4191000D01*
X4254500Y-4127500D01*
X4254500Y-4064000D01*
X11366500Y-5334000D02*
G01*
X12001500Y-5334000D01*
X12001500Y-4826000D01*
X11938000Y-4762500D01*
X11430000Y-4762500D01*
X11366500Y-4826000D01*
X11366500Y-5334000D01*
X11811000Y-5270500D02*
G01*
X11811000Y-5080000D01*
X11557000Y-5080000D02*
G01*
X11557000Y-5270500D01*
X11684000Y-5080000D02*
G01*
X11684000Y-5270500D01*
X11874500Y-5080000D02*
G01*
X11938000Y-5143500D01*
X11938000Y-5207000D01*
X11874500Y-5270500D01*
X11493500Y-5270500D01*
X11430000Y-5207000D01*
X11430000Y-5143500D01*
X11493500Y-5080000D01*
X11874500Y-5080000D01*
X11747500Y-4953000D02*
G01*
X11747500Y-4889500D01*
X11811000Y-4826000D01*
X11874500Y-4826000D01*
X11938000Y-4889500D01*
X11938000Y-4953000D01*
X11874500Y-5016500D01*
X11811000Y-5016500D01*
X11747500Y-4953000D01*
X11430000Y-4889500D02*
G01*
X11493500Y-4826000D01*
X11557000Y-4826000D01*
X11620500Y-4889500D01*
X11620500Y-4953000D01*
X11557000Y-5016500D01*
X11493500Y-5016500D01*
X11430000Y-4953000D01*
X11430000Y-4889500D01*
X12572974Y-5206989D02*
G01*
X12572974Y-5333989D01*
X12699974Y-5460989D01*
X13461974Y-5460989D01*
X13588974Y-5333989D01*
X13588974Y-5206989D01*
X13461974Y-5079989D01*
X12699974Y-5079989D01*
X12572974Y-5206989D01*
X12445974Y-4571989D02*
G01*
X12572974Y-4444989D01*
X13588974Y-4444989D01*
X13715974Y-4571989D01*
X13715974Y-5587989D01*
X12445974Y-5587989D01*
X12445974Y-4571989D01*
X13207974Y-4698989D02*
G01*
X13334974Y-4571989D01*
X13461974Y-4571989D01*
X13588974Y-4698989D01*
X13588974Y-4825989D01*
X13461974Y-4952989D01*
X13334974Y-4952989D01*
X13207974Y-4825989D01*
X13207974Y-4698989D01*
X12572974Y-4698989D02*
G01*
X12699974Y-4571989D01*
X12826974Y-4571989D01*
X12953974Y-4698989D01*
X12953974Y-4825989D01*
X12826974Y-4952989D01*
X12699974Y-4952989D01*
X12572974Y-4825989D01*
X12572974Y-4698989D01*
X13330052Y-5079989D02*
G01*
X13330052Y-5460989D01*
X13080974Y-5079989D02*
G01*
X13080974Y-5460989D01*
X12828823Y-5079989D02*
G01*
X12828823Y-5460989D01*
X20446972Y-5397489D02*
G01*
X20446972Y-5524489D01*
X20573972Y-5524489D01*
X20573972Y-5397489D01*
X19811972Y-5397489D02*
G01*
X19811972Y-5524489D01*
X19938972Y-5524489D01*
X19938972Y-5397489D01*
X19176972Y-6794489D02*
G01*
X19303972Y-6667489D01*
X18668972Y-6667489D02*
G01*
X18541972Y-6794489D01*
X19045049Y-7048489D02*
G01*
X19045049Y-7429489D01*
X18795972Y-7048489D02*
G01*
X18795972Y-7429489D01*
X18543821Y-7048489D02*
G01*
X18543821Y-7429489D01*
X18287972Y-7175489D02*
G01*
X18287972Y-7302489D01*
X18414972Y-7429489D01*
X19176972Y-7429489D01*
X19303972Y-7302489D01*
X19303972Y-7175489D01*
X19176972Y-7048489D01*
X18414972Y-7048489D01*
X18287972Y-7175489D01*
X21716972Y-6667489D02*
G01*
X21843972Y-6540489D01*
X21970972Y-6540489D01*
X22097972Y-6667489D01*
X22097972Y-6794489D01*
X21970972Y-6921489D01*
X21843972Y-6921489D01*
X21716972Y-6794489D01*
X21716972Y-6667489D01*
X21081972Y-6667489D02*
G01*
X21208972Y-6540489D01*
X21335972Y-6540489D01*
X21462972Y-6667489D01*
X21462972Y-6794489D01*
X21335972Y-6921489D01*
X21208972Y-6921489D01*
X21081972Y-6794489D01*
X21081972Y-6667489D01*
X21839049Y-7048489D02*
G01*
X21839049Y-7429489D01*
X21589972Y-7048489D02*
G01*
X21589972Y-7429489D01*
X21337821Y-7048489D02*
G01*
X21337821Y-7429489D01*
X21081972Y-7175489D02*
G01*
X21081972Y-7302489D01*
X21208972Y-7429489D01*
X21970972Y-7429489D01*
X22097972Y-7302489D01*
X22097972Y-7175489D01*
X21970972Y-7048489D01*
X21208972Y-7048489D01*
X21081972Y-7175489D01*
X20065972Y-7429489D02*
G01*
X20446972Y-7429489D01*
X20573972Y-7302489D01*
X20573972Y-7175489D01*
X20446972Y-7048489D01*
X19938972Y-7048489D01*
X19811972Y-7175489D01*
X19811972Y-7302489D01*
X19938972Y-7429489D01*
X20065972Y-7429489D01*
X20446972Y-6921489D02*
G01*
X20573972Y-6921489D01*
X20700972Y-6794489D01*
X20700972Y-6667489D01*
X20573972Y-6540489D01*
X20319972Y-6794489D01*
X20446972Y-6921489D01*
X19811972Y-6921489D02*
G01*
X19938972Y-6921489D01*
X20065972Y-6794489D01*
X19811972Y-6540489D01*
X19684972Y-6667489D01*
X19684972Y-6794489D01*
X19811972Y-6921489D01*
X18922972Y-6794489D02*
G01*
X19303972Y-6794489D01*
X19303972Y-6667489D01*
X19176972Y-6540489D01*
X19049972Y-6540489D01*
X18922972Y-6667489D01*
X18922972Y-6794489D01*
X18414972Y-6540489D02*
G01*
X18541972Y-6540489D01*
X18668972Y-6667489D01*
X18668972Y-6794489D01*
X18287972Y-6794489D01*
X18287972Y-6667489D01*
X18414972Y-6540489D01*
X22986972Y-5524489D02*
G01*
X23367972Y-5524489D01*
X22351972Y-5524489D02*
G01*
X22716959Y-5524489D01*
X22986972Y-5524489D02*
G01*
X23113972Y-5651489D01*
X23240972Y-5651489D01*
X23367972Y-5524489D01*
X23367972Y-5397489D01*
X23240972Y-5270489D01*
X23113972Y-5270489D01*
X22986972Y-5397489D01*
X22986972Y-5524489D01*
X22351972Y-5524489D02*
G01*
X22478972Y-5651489D01*
X22605972Y-5651489D01*
X22732972Y-5524489D01*
X22732972Y-5397489D01*
X22605972Y-5270489D01*
X22478972Y-5270489D01*
X22351972Y-5397489D01*
X22351972Y-5524489D01*
X22351972Y-6032489D02*
G01*
X22478972Y-5905489D01*
X22605972Y-6032489D01*
X22732972Y-5905489D01*
X22859972Y-6032489D01*
X22986972Y-5905489D01*
X23113972Y-6032489D01*
X23240972Y-5905489D01*
X23367972Y-6032489D01*
X22351972Y-5905489D02*
G01*
X22351972Y-6032489D01*
X22478972Y-6159489D01*
X23240972Y-6159489D01*
X23367972Y-6032489D01*
X23367972Y-5905489D01*
X23240972Y-5778489D01*
X22478972Y-5778489D01*
X22351972Y-5905489D01*
X21843972Y-5651489D02*
G01*
X21970972Y-5651489D01*
X22097972Y-5524489D01*
X22097972Y-5397489D01*
X21970972Y-5270489D01*
X21716972Y-5524489D01*
X21843972Y-5651489D01*
X21208972Y-5651489D02*
G01*
X21335972Y-5651489D01*
X21462972Y-5524489D01*
X21208972Y-5270489D01*
X21081972Y-5397489D01*
X21081972Y-5524489D01*
X21208972Y-5651489D01*
X21839049Y-5778489D02*
G01*
X21839049Y-6159489D01*
X21589972Y-5778489D02*
G01*
X21589972Y-6159489D01*
X21337821Y-5778489D02*
G01*
X21337821Y-6159489D01*
X21081972Y-5905489D02*
G01*
X21081972Y-6032489D01*
X21208972Y-6159489D01*
X21970972Y-6159489D01*
X22097972Y-6032489D01*
X22097972Y-5905489D01*
X21970972Y-5778489D01*
X21208972Y-5778489D01*
X21081972Y-5905489D01*
X20319972Y-5397489D02*
G01*
X20700972Y-5397489D01*
X19684972Y-5397489D02*
G01*
X20049959Y-5397489D01*
X20319972Y-5397489D02*
G01*
X20446972Y-5270489D01*
X20573972Y-5270489D01*
X20700972Y-5397489D01*
X20700972Y-5524489D01*
X20573972Y-5651489D01*
X20446972Y-5651489D01*
X20319972Y-5524489D01*
X20319972Y-5397489D01*
X19684972Y-5397489D02*
G01*
X19811972Y-5270489D01*
X19938972Y-5270489D01*
X20065972Y-5397489D01*
X20065972Y-5524489D01*
X19938972Y-5651489D01*
X19811972Y-5651489D01*
X19684972Y-5524489D01*
X19684972Y-5397489D01*
X20442049Y-5778489D02*
G01*
X20442049Y-6159489D01*
X20192972Y-5778489D02*
G01*
X20192972Y-6159489D01*
X19940821Y-5778489D02*
G01*
X19940821Y-6159489D01*
X19684972Y-5905489D02*
G01*
X19684972Y-6032489D01*
X19811972Y-6159489D01*
X20573972Y-6159489D01*
X20700972Y-6032489D01*
X20700972Y-5905489D01*
X20573972Y-5778489D01*
X19811972Y-5778489D01*
X19684972Y-5905489D01*
X18922972Y-5397489D02*
G01*
X19049972Y-5270489D01*
X19176972Y-5270489D01*
X19303972Y-5397489D01*
X19303972Y-5524489D01*
X19176972Y-5651489D01*
X19049972Y-5651489D01*
X18922972Y-5524489D01*
X18922972Y-5397489D01*
X18287972Y-5397489D02*
G01*
X18414972Y-5270489D01*
X18541972Y-5270489D01*
X18668972Y-5397489D01*
X18668972Y-5524489D01*
X18541972Y-5651489D01*
X18414972Y-5651489D01*
X18287972Y-5524489D01*
X18287972Y-5397489D01*
X19045049Y-5778489D02*
G01*
X19045049Y-6159489D01*
X18795972Y-5778489D02*
G01*
X18795972Y-6159489D01*
X18543821Y-5778489D02*
G01*
X18543821Y-6159489D01*
X18287972Y-5905489D02*
G01*
X18287972Y-6032489D01*
X18414972Y-6159489D01*
X19176972Y-6159489D01*
X19303972Y-6032489D01*
X19303972Y-5905489D01*
X19176972Y-5778489D01*
X18414972Y-5778489D01*
X18287972Y-5905489D01*
X2654998Y-6770977D02*
G01*
X2654998Y-6690974D01*
X2765973Y-6801962D02*
G01*
X2685976Y-6801962D01*
X2765973Y-6659996D02*
G01*
X2685976Y-6659996D01*
X2823563Y-6802544D02*
G01*
X2903562Y-6802544D01*
X2934545Y-6771561D02*
G01*
X2934545Y-6691563D01*
X2823563Y-6660583D02*
G01*
X2903562Y-6660583D01*
X5956998Y-6580477D02*
G01*
X5956998Y-6500474D01*
X6067973Y-6611462D02*
G01*
X5987976Y-6611462D01*
X6067973Y-6469496D02*
G01*
X5987976Y-6469496D01*
X6125563Y-6612044D02*
G01*
X6205562Y-6612044D01*
X6236545Y-6581061D02*
G01*
X6236545Y-6501063D01*
X6125563Y-6470083D02*
G01*
X6205562Y-6470083D01*
X88900Y-3111500D02*
G01*
X20500Y-3111500D01*
X88900Y-3619500D02*
G01*
X20500Y-3619500D01*
X914400Y-3238500D02*
G01*
X995499Y-3238500D01*
X914400Y-3492500D02*
G01*
X995499Y-3492500D01*
X20500Y-2232497D02*
G01*
X995499Y-2232497D01*
X914400Y-2349500D02*
G01*
X995499Y-2349500D01*
X995499Y-4498500D02*
G01*
X995499Y-2232499D01*
X20500Y-4498500D02*
G01*
X20500Y-2232499D01*
X914400Y-4381500D02*
G01*
X995499Y-4381500D01*
X20500Y-4508500D02*
G01*
X995499Y-4508500D01*
X88900Y-4432300D02*
G01*
X88900Y-2298700D01*
X914400Y-2298700D01*
X914400Y-4432300D01*
X88900Y-4432300D01*
D14*
X7583124Y-2168121D02*
G01*
X7583124Y-2147498D01*
X7583124Y-2022878D02*
G01*
X7583124Y-2042500D01*
D12*
X7407879Y-2022878D02*
G01*
X7583124Y-2022878D01*
X7407879Y-2168121D02*
G01*
X7583124Y-2168121D01*
X7448323Y-2022878D02*
G01*
X7448323Y-2168121D01*
D13*
X7027125Y-2197094D02*
G01*
X7141425Y-2197094D01*
X7154125Y-2197094D01*
X7179525Y-2171694D01*
X7179525Y-2031994D01*
X7179525Y-2019294D01*
X7154125Y-1993894D01*
X7027125Y-1993894D01*
X6950925Y-1993894D02*
G01*
X6836625Y-1993894D01*
X6823925Y-1993894D01*
X6798525Y-2019294D01*
X6798525Y-2158994D01*
X6798525Y-2171694D01*
X6823925Y-2197094D01*
X6950925Y-2197094D01*
X8801094Y-4593374D02*
G01*
X8801094Y-4479074D01*
X8801094Y-4466374D01*
X8775694Y-4440974D01*
X8635994Y-4440974D01*
X8623294Y-4440974D01*
X8597894Y-4466374D01*
X8597894Y-4593374D01*
X8597894Y-4669574D02*
G01*
X8597894Y-4783874D01*
X8597894Y-4796574D01*
X8623294Y-4821974D01*
X8762994Y-4821974D01*
X8775694Y-4821974D01*
X8801094Y-4796574D01*
X8801094Y-4669574D01*
D12*
X390121Y-5689379D02*
G01*
X244878Y-5689379D01*
X244878Y-5792541D01*
X390121Y-5994620D02*
G01*
X244878Y-5994620D01*
X244878Y-5891458D01*
X390121Y-5796460D02*
G01*
X390121Y-5887539D01*
X7772620Y-6740121D02*
G01*
X7772620Y-6594878D01*
X7669458Y-6594878D01*
X7467379Y-6740121D02*
G01*
X7467379Y-6594878D01*
X7570541Y-6594878D01*
X7665539Y-6740121D02*
G01*
X7574460Y-6740121D01*
X4402378Y-8125439D02*
G01*
X4306491Y-8125439D01*
X4306491Y-8257560D01*
X4402378Y-8257560D01*
X4487621Y-8125439D02*
G01*
X4583508Y-8125439D01*
X4583508Y-8257560D01*
X4487621Y-8257560D01*
D13*
X2639004Y-8619497D02*
G01*
X2639004Y-8779502D01*
X2824065Y-8778991D02*
G01*
X2949061Y-8778991D01*
X2824065Y-8618987D02*
G01*
X2949061Y-8618987D01*
X2764007Y-8779502D02*
G01*
X2639004Y-8779502D01*
X2764007Y-8619497D02*
G01*
X2639004Y-8619497D01*
X2949061Y-8618987D02*
G01*
X2949061Y-8778991D01*
D12*
X822939Y-8170621D02*
G01*
X822939Y-8266508D01*
X955060Y-8266508D01*
X955060Y-8170621D01*
X822939Y-8085378D02*
G01*
X822939Y-7989491D01*
X955060Y-7989491D01*
X955060Y-8085378D01*
D13*
X6477990Y-6093002D02*
G01*
X7247991Y-6093002D01*
X7247991Y-6352997D01*
X6477990Y-6352997D01*
X6477990Y-6093002D01*
X6477990Y-6093002D02*
G01*
X6737984Y-6093002D01*
X6737984Y-6343014D01*
X6477990Y-6343014D01*
X6477990Y-6093002D01*
D12*
X4292856Y-8767378D02*
G01*
X4597138Y-8767378D01*
X4597138Y-9647621D01*
X4292856Y-9647621D01*
X4292856Y-8767378D01*
X1140995Y-8481169D02*
G01*
X1209253Y-8481169D01*
X1209253Y-8923073D02*
G01*
X1047379Y-8923073D01*
X1047379Y-8571453D01*
X1140995Y-8477834D01*
X1330741Y-8923073D02*
G01*
X1492615Y-8923073D01*
X1492615Y-8571456D01*
X1398991Y-8477836D01*
X1330741Y-8477836D01*
X1140995Y-7401669D02*
G01*
X1209253Y-7401669D01*
X1209253Y-7843573D02*
G01*
X1047379Y-7843573D01*
X1047379Y-7491953D01*
X1140995Y-7398334D01*
X1330741Y-7843573D02*
G01*
X1492615Y-7843573D01*
X1492615Y-7491956D01*
X1398991Y-7398336D01*
X1330741Y-7398336D01*
X2575669Y-7939504D02*
G01*
X2575669Y-7871246D01*
X3017573Y-7871246D02*
G01*
X3017573Y-8033120D01*
X2665953Y-8033120D01*
X2572334Y-7939504D01*
X3017573Y-7749758D02*
G01*
X3017573Y-7587884D01*
X2665956Y-7587884D01*
X2572336Y-7681508D01*
X2572336Y-7749758D01*
X4226669Y-7939504D02*
G01*
X4226669Y-7871246D01*
X4668573Y-7871246D02*
G01*
X4668573Y-8033120D01*
X4316953Y-8033120D01*
X4223334Y-7939504D01*
X4668573Y-7749758D02*
G01*
X4668573Y-7587884D01*
X4316956Y-7587884D01*
X4223336Y-7681508D01*
X4223336Y-7749758D01*
D13*
X456501Y-468022D02*
G01*
X456501Y-548025D01*
X345526Y-437037D02*
G01*
X425523Y-437037D01*
X345526Y-579003D02*
G01*
X425523Y-579003D01*
X287936Y-436455D02*
G01*
X207937Y-436455D01*
X176954Y-467438D02*
G01*
X176954Y-547436D01*
X287936Y-578416D02*
G01*
X207937Y-578416D01*
D12*
X5966995Y-8100169D02*
G01*
X6035253Y-8100169D01*
X6035253Y-8542073D02*
G01*
X5873379Y-8542073D01*
X5873379Y-8190453D01*
X5966995Y-8096834D01*
X6156741Y-8542073D02*
G01*
X6318615Y-8542073D01*
X6318615Y-8190456D01*
X6224991Y-8096836D01*
X6156741Y-8096836D01*
X7490995Y-8227169D02*
G01*
X7559253Y-8227169D01*
X7559253Y-8669073D02*
G01*
X7397379Y-8669073D01*
X7397379Y-8317453D01*
X7490995Y-8223834D01*
X7680741Y-8669073D02*
G01*
X7842615Y-8669073D01*
X7842615Y-8317456D01*
X7748991Y-8223836D01*
X7680741Y-8223836D01*
D13*
X6500522Y-1130998D02*
G01*
X6580525Y-1130998D01*
X6469537Y-1241973D02*
G01*
X6469537Y-1161976D01*
X6611503Y-1241973D02*
G01*
X6611503Y-1161976D01*
X6468955Y-1299563D02*
G01*
X6468955Y-1379562D01*
X6499938Y-1410545D02*
G01*
X6579936Y-1410545D01*
X6610916Y-1299563D02*
G01*
X6610916Y-1379562D01*
X8202508Y-1725500D02*
G01*
X8202508Y-1287495D01*
X7672511Y-1725500D02*
G01*
X7672511Y-1286504D01*
X8202508Y-1287495D02*
G01*
X8202508Y-1285491D01*
X8112516Y-1195499D01*
X7762504Y-1195499D02*
G01*
X7762504Y-1196512D01*
X7672511Y-1286504D01*
X8112516Y-1195499D02*
G01*
X8010613Y-1195499D01*
X7864386Y-1195499D02*
G01*
X7762504Y-1195499D01*
X8202508Y-1725500D02*
G01*
X8010613Y-1725500D01*
X7864386Y-1725500D02*
G01*
X7672511Y-1725500D01*
X4940998Y-3278477D02*
G01*
X4940998Y-3198474D01*
X5051973Y-3309462D02*
G01*
X4971976Y-3309462D01*
X5051973Y-3167496D02*
G01*
X4971976Y-3167496D01*
X5109563Y-3310044D02*
G01*
X5189562Y-3310044D01*
X5220545Y-3279061D02*
G01*
X5220545Y-3199063D01*
X5109563Y-3168083D02*
G01*
X5189562Y-3168083D01*
X3722977Y-3250501D02*
G01*
X3642974Y-3250501D01*
X3753962Y-3139526D02*
G01*
X3753962Y-3219523D01*
X3611996Y-3139526D02*
G01*
X3611996Y-3219523D01*
X3754544Y-3081936D02*
G01*
X3754544Y-3001937D01*
X3723561Y-2970954D02*
G01*
X3643563Y-2970954D01*
X3612583Y-3081936D02*
G01*
X3612583Y-3001937D01*
X8393000Y-3989491D02*
G01*
X7954995Y-3989491D01*
X8393000Y-4519488D02*
G01*
X7954004Y-4519488D01*
X7954995Y-3989491D02*
G01*
X7952991Y-3989491D01*
X7862999Y-4079483D01*
X7862999Y-4429495D02*
G01*
X7864012Y-4429495D01*
X7954004Y-4519488D01*
X7862999Y-4079483D02*
G01*
X7862999Y-4181386D01*
X7862999Y-4327613D02*
G01*
X7862999Y-4429495D01*
X8393000Y-3989491D02*
G01*
X8393000Y-4181386D01*
X8393000Y-4327613D02*
G01*
X8393000Y-4519488D01*
D12*
X8569706Y-1726437D02*
G01*
X8773922Y-1726437D01*
X8773922Y-1325626D01*
X8643111Y-1194562D01*
X8569706Y-1194562D01*
X8448293Y-1725421D02*
G01*
X8247125Y-1725421D01*
X8247125Y-1323339D01*
X8375904Y-1194562D01*
X8448293Y-1194562D01*
D13*
X6846999Y-1916008D02*
G01*
X7285004Y-1916008D01*
X6846999Y-1386011D02*
G01*
X7285995Y-1386011D01*
X7285004Y-1916008D02*
G01*
X7287008Y-1916008D01*
X7377000Y-1826016D01*
X7377000Y-1476004D02*
G01*
X7375987Y-1476004D01*
X7285995Y-1386011D01*
X7377000Y-1826016D02*
G01*
X7377000Y-1724113D01*
X7377000Y-1577886D02*
G01*
X7377000Y-1476004D01*
X6846999Y-1916008D02*
G01*
X6846999Y-1724113D01*
X6846999Y-1577886D02*
G01*
X6846999Y-1386011D01*
X8711501Y-5294022D02*
G01*
X8711501Y-5374025D01*
X8600526Y-5263037D02*
G01*
X8680523Y-5263037D01*
X8600526Y-5405003D02*
G01*
X8680523Y-5405003D01*
X8542936Y-5262455D02*
G01*
X8462937Y-5262455D01*
X8431954Y-5293438D02*
G01*
X8431954Y-5373436D01*
X8542936Y-5404416D02*
G01*
X8462937Y-5404416D01*
X4305998Y-6326477D02*
G01*
X4305998Y-6246474D01*
X4416973Y-6357462D02*
G01*
X4336976Y-6357462D01*
X4416973Y-6215496D02*
G01*
X4336976Y-6215496D01*
X4474563Y-6358044D02*
G01*
X4554562Y-6358044D01*
X4585545Y-6327061D02*
G01*
X4585545Y-6247063D01*
X4474563Y-6216083D02*
G01*
X4554562Y-6216083D01*
X6528498Y-5691477D02*
G01*
X6528498Y-5611474D01*
X6639473Y-5722462D02*
G01*
X6559476Y-5722462D01*
X6639473Y-5580496D02*
G01*
X6559476Y-5580496D01*
X6697063Y-5723044D02*
G01*
X6777062Y-5723044D01*
X6808045Y-5692061D02*
G01*
X6808045Y-5612063D01*
X6697063Y-5581083D02*
G01*
X6777062Y-5581083D01*
D12*
X6212382Y-1870633D02*
G01*
X6487627Y-1870633D01*
X6212382Y-1685386D02*
G01*
X6487627Y-1685386D01*
X6487627Y-1685386D02*
G01*
X6487627Y-1704690D01*
X6487627Y-1870633D02*
G01*
X6487627Y-1851329D01*
X6258326Y-1690387D02*
G01*
X6258326Y-1865632D01*
D14*
X8626878Y-4281124D02*
G01*
X8647501Y-4281124D01*
X8772121Y-4281124D02*
G01*
X8752499Y-4281124D01*
D12*
X8772121Y-4105879D02*
G01*
X8772121Y-4281124D01*
X8626878Y-4105879D02*
G01*
X8626878Y-4281124D01*
X8772121Y-4146323D02*
G01*
X8626878Y-4146323D01*
D13*
X1115004Y-8111497D02*
G01*
X1115004Y-8271502D01*
X1300065Y-8270991D02*
G01*
X1425061Y-8270991D01*
X1300065Y-8110987D02*
G01*
X1425061Y-8110987D01*
X1240007Y-8271502D02*
G01*
X1115004Y-8271502D01*
X1240007Y-8111497D02*
G01*
X1115004Y-8111497D01*
X1425061Y-8110987D02*
G01*
X1425061Y-8270991D01*
X1115004Y-7031997D02*
G01*
X1115004Y-7192002D01*
X1300065Y-7191491D02*
G01*
X1425061Y-7191491D01*
X1300065Y-7031487D02*
G01*
X1425061Y-7031487D01*
X1240007Y-7192002D02*
G01*
X1115004Y-7192002D01*
X1240007Y-7031997D02*
G01*
X1115004Y-7031997D01*
X1425061Y-7031487D02*
G01*
X1425061Y-7191491D01*
X207002Y-8417504D02*
G01*
X46997Y-8417504D01*
X47508Y-8602565D02*
G01*
X47508Y-8727561D01*
X207512Y-8602565D02*
G01*
X207512Y-8727561D01*
X46997Y-8542507D02*
G01*
X46997Y-8417504D01*
X207002Y-8542507D02*
G01*
X207002Y-8417504D01*
X207512Y-8727561D02*
G01*
X47508Y-8727561D01*
X1115004Y-9063997D02*
G01*
X1115004Y-9224002D01*
X1300065Y-9223491D02*
G01*
X1425061Y-9223491D01*
X1300065Y-9063487D02*
G01*
X1425061Y-9063487D01*
X1240007Y-9224002D02*
G01*
X1115004Y-9224002D01*
X1240007Y-9063997D02*
G01*
X1115004Y-9063997D01*
X1425061Y-9063487D02*
G01*
X1425061Y-9223491D01*
D12*
X2751378Y-8252439D02*
G01*
X2655491Y-8252439D01*
X2655491Y-8384560D01*
X2751378Y-8384560D01*
X2836621Y-8252439D02*
G01*
X2932508Y-8252439D01*
X2932508Y-8384560D01*
X2836621Y-8384560D01*
D13*
X270502Y-6131504D02*
G01*
X110497Y-6131504D01*
X111008Y-6316565D02*
G01*
X111008Y-6441561D01*
X271012Y-6316565D02*
G01*
X271012Y-6441561D01*
X110497Y-6256507D02*
G01*
X110497Y-6131504D01*
X270502Y-6256507D02*
G01*
X270502Y-6131504D01*
X271012Y-6441561D02*
G01*
X111008Y-6441561D01*
D12*
X60939Y-8234121D02*
G01*
X60939Y-8330008D01*
X193060Y-8330008D01*
X193060Y-8234121D01*
X60939Y-8148878D02*
G01*
X60939Y-8052991D01*
X193060Y-8052991D01*
X193060Y-8148878D01*
X1227378Y-9395439D02*
G01*
X1131491Y-9395439D01*
X1131491Y-9527560D01*
X1227378Y-9527560D01*
X1312621Y-9395439D02*
G01*
X1408508Y-9395439D01*
X1408508Y-9527560D01*
X1312621Y-9527560D01*
X510560Y-6243878D02*
G01*
X510560Y-6147991D01*
X378439Y-6147991D01*
X378439Y-6243878D01*
X510560Y-6329121D02*
G01*
X510560Y-6425008D01*
X378439Y-6425008D01*
X378439Y-6329121D01*
D13*
X618497Y-6441495D02*
G01*
X778502Y-6441495D01*
X777991Y-6256434D02*
G01*
X777991Y-6131438D01*
X617987Y-6256434D02*
G01*
X617987Y-6131438D01*
X778502Y-6316492D02*
G01*
X778502Y-6441495D01*
X618497Y-6316492D02*
G01*
X618497Y-6441495D01*
X617987Y-6131438D02*
G01*
X777991Y-6131438D01*
D12*
X60939Y-7853121D02*
G01*
X60939Y-7949008D01*
X193060Y-7949008D01*
X193060Y-7853121D01*
X60939Y-7767878D02*
G01*
X60939Y-7671991D01*
X193060Y-7671991D01*
X193060Y-7767878D01*
X1312621Y-9845060D02*
G01*
X1408508Y-9845060D01*
X1408508Y-9712939D01*
X1312621Y-9712939D01*
X1227378Y-9845060D02*
G01*
X1131491Y-9845060D01*
X1131491Y-9712939D01*
X1227378Y-9712939D01*
D13*
X7465004Y-7476497D02*
G01*
X7465004Y-7636502D01*
X7650065Y-7635991D02*
G01*
X7775061Y-7635991D01*
X7650065Y-7475987D02*
G01*
X7775061Y-7475987D01*
X7590007Y-7636502D02*
G01*
X7465004Y-7636502D01*
X7590007Y-7476497D02*
G01*
X7465004Y-7476497D01*
X7775061Y-7475987D02*
G01*
X7775061Y-7635991D01*
X2639004Y-7285997D02*
G01*
X2639004Y-7446002D01*
X2824065Y-7445491D02*
G01*
X2949061Y-7445491D01*
X2824065Y-7285487D02*
G01*
X2949061Y-7285487D01*
X2764007Y-7446002D02*
G01*
X2639004Y-7446002D01*
X2764007Y-7285997D02*
G01*
X2639004Y-7285997D01*
X2949061Y-7285487D02*
G01*
X2949061Y-7445491D01*
X4599995Y-7446002D02*
G01*
X4599995Y-7285997D01*
X4414934Y-7286508D02*
G01*
X4289938Y-7286508D01*
X4414934Y-7446512D02*
G01*
X4289938Y-7446512D01*
X4474992Y-7285997D02*
G01*
X4599995Y-7285997D01*
X4474992Y-7446002D02*
G01*
X4599995Y-7446002D01*
X4289938Y-7446512D02*
G01*
X4289938Y-7286508D01*
X4734504Y-8301997D02*
G01*
X4734504Y-8462002D01*
X4919565Y-8461491D02*
G01*
X5044561Y-8461491D01*
X4919565Y-8301487D02*
G01*
X5044561Y-8301487D01*
X4859507Y-8462002D02*
G01*
X4734504Y-8462002D01*
X4859507Y-8301997D02*
G01*
X4734504Y-8301997D01*
X5044561Y-8301487D02*
G01*
X5044561Y-8461491D01*
D12*
X3870939Y-8234121D02*
G01*
X3870939Y-8330008D01*
X4003060Y-8330008D01*
X4003060Y-8234121D01*
X3870939Y-8148878D02*
G01*
X3870939Y-8052991D01*
X4003060Y-8052991D01*
X4003060Y-8148878D01*
X5781060Y-8148878D02*
G01*
X5781060Y-8052991D01*
X5648939Y-8052991D01*
X5648939Y-8148878D01*
X5781060Y-8234121D02*
G01*
X5781060Y-8330008D01*
X5648939Y-8330008D01*
X5648939Y-8234121D01*
X7577378Y-7236439D02*
G01*
X7481491Y-7236439D01*
X7481491Y-7368560D01*
X7577378Y-7368560D01*
X7662621Y-7236439D02*
G01*
X7758508Y-7236439D01*
X7758508Y-7368560D01*
X7662621Y-7368560D01*
D13*
X7774995Y-7128502D02*
G01*
X7774995Y-6968497D01*
X7589934Y-6969008D02*
G01*
X7464938Y-6969008D01*
X7589934Y-7129012D02*
G01*
X7464938Y-7129012D01*
X7649992Y-6968497D02*
G01*
X7774995Y-6968497D01*
X7649992Y-7128502D02*
G01*
X7774995Y-7128502D01*
X7464938Y-7129012D02*
G01*
X7464938Y-6969008D01*
D12*
X2751378Y-8950939D02*
G01*
X2655491Y-8950939D01*
X2655491Y-9083060D01*
X2751378Y-9083060D01*
X2836621Y-8950939D02*
G01*
X2932508Y-8950939D01*
X2932508Y-9083060D01*
X2836621Y-9083060D01*
X4487621Y-8575060D02*
G01*
X4583508Y-8575060D01*
X4583508Y-8442939D01*
X4487621Y-8442939D01*
X4402378Y-8575060D02*
G01*
X4306491Y-8575060D01*
X4306491Y-8442939D01*
X4402378Y-8442939D01*
X2836621Y-9400560D02*
G01*
X2932508Y-9400560D01*
X2932508Y-9268439D01*
X2836621Y-9268439D01*
X2751378Y-9400560D02*
G01*
X2655491Y-9400560D01*
X2655491Y-9268439D01*
X2751378Y-9268439D01*
D13*
X472495Y-1159502D02*
G01*
X472495Y-999497D01*
X287434Y-1000008D02*
G01*
X162438Y-1000008D01*
X287434Y-1160012D02*
G01*
X162438Y-1160012D01*
X347492Y-999497D02*
G01*
X472495Y-999497D01*
X347492Y-1159502D02*
G01*
X472495Y-1159502D01*
X162438Y-1160012D02*
G01*
X162438Y-1000008D01*
X162504Y-681997D02*
G01*
X162504Y-842002D01*
X347565Y-841491D02*
G01*
X472561Y-841491D01*
X347565Y-681487D02*
G01*
X472561Y-681487D01*
X287507Y-842002D02*
G01*
X162504Y-842002D01*
X287507Y-681997D02*
G01*
X162504Y-681997D01*
X472561Y-681487D02*
G01*
X472561Y-841491D01*
D12*
X7662621Y-9146560D02*
G01*
X7758508Y-9146560D01*
X7758508Y-9014439D01*
X7662621Y-9014439D01*
X7577378Y-9146560D02*
G01*
X7481491Y-9146560D01*
X7481491Y-9014439D01*
X7577378Y-9014439D01*
D13*
X7465004Y-9254497D02*
G01*
X7465004Y-9414502D01*
X7650065Y-9413991D02*
G01*
X7775061Y-9413991D01*
X7650065Y-9253987D02*
G01*
X7775061Y-9253987D01*
X7590007Y-9414502D02*
G01*
X7465004Y-9414502D01*
X7590007Y-9254497D02*
G01*
X7465004Y-9254497D01*
X7775061Y-9253987D02*
G01*
X7775061Y-9413991D01*
D12*
X8633439Y-7980121D02*
G01*
X8633439Y-8076008D01*
X8765560Y-8076008D01*
X8765560Y-7980121D01*
X8633439Y-7894878D02*
G01*
X8633439Y-7798991D01*
X8765560Y-7798991D01*
X8765560Y-7894878D01*
D13*
X7774995Y-9668502D02*
G01*
X7774995Y-9508497D01*
X7589934Y-9509008D02*
G01*
X7464938Y-9509008D01*
X7589934Y-9669012D02*
G01*
X7464938Y-9669012D01*
X7649992Y-9508497D02*
G01*
X7774995Y-9508497D01*
X7649992Y-9668502D02*
G01*
X7774995Y-9668502D01*
X7464938Y-9669012D02*
G01*
X7464938Y-9509008D01*
D12*
X6162060Y-8847378D02*
G01*
X6162060Y-8751491D01*
X6029939Y-8751491D01*
X6029939Y-8847378D01*
X6162060Y-8932621D02*
G01*
X6162060Y-9028508D01*
X6029939Y-9028508D01*
X6029939Y-8932621D01*
X5781060Y-8529878D02*
G01*
X5781060Y-8433991D01*
X5648939Y-8433991D01*
X5648939Y-8529878D01*
X5781060Y-8615121D02*
G01*
X5781060Y-8711008D01*
X5648939Y-8711008D01*
X5648939Y-8615121D01*
X8765560Y-8275878D02*
G01*
X8765560Y-8179991D01*
X8633439Y-8179991D01*
X8633439Y-8275878D01*
X8765560Y-8361121D02*
G01*
X8765560Y-8457008D01*
X8633439Y-8457008D01*
X8633439Y-8361121D01*
X7662621Y-8956060D02*
G01*
X7758508Y-8956060D01*
X7758508Y-8823939D01*
X7662621Y-8823939D01*
X7577378Y-8956060D02*
G01*
X7481491Y-8956060D01*
X7481491Y-8823939D01*
X7577378Y-8823939D01*
D13*
X6206497Y-1043995D02*
G01*
X6366502Y-1043995D01*
X6365991Y-858934D02*
G01*
X6365991Y-733938D01*
X6205987Y-858934D02*
G01*
X6205987Y-733938D01*
X6366502Y-918992D02*
G01*
X6366502Y-1043995D01*
X6206497Y-918992D02*
G01*
X6206497Y-1043995D01*
X6205987Y-733938D02*
G01*
X6365991Y-733938D01*
X6620502Y-734004D02*
G01*
X6460497Y-734004D01*
X6461008Y-919065D02*
G01*
X6461008Y-1044061D01*
X6621012Y-919065D02*
G01*
X6621012Y-1044061D01*
X6460497Y-859007D02*
G01*
X6460497Y-734004D01*
X6620502Y-859007D02*
G01*
X6620502Y-734004D01*
X6621012Y-1044061D02*
G01*
X6461008Y-1044061D01*
X6176002Y-7592004D02*
G01*
X6015997Y-7592004D01*
X6016508Y-7777065D02*
G01*
X6016508Y-7902061D01*
X6176512Y-7777065D02*
G01*
X6176512Y-7902061D01*
X6015997Y-7717007D02*
G01*
X6015997Y-7592004D01*
X6176002Y-7717007D02*
G01*
X6176002Y-7592004D01*
X6176512Y-7902061D02*
G01*
X6016508Y-7902061D01*
X7465004Y-7793997D02*
G01*
X7465004Y-7954002D01*
X7650065Y-7953491D02*
G01*
X7775061Y-7953491D01*
X7650065Y-7793487D02*
G01*
X7775061Y-7793487D01*
X7590007Y-7954002D02*
G01*
X7465004Y-7954002D01*
X7590007Y-7793997D02*
G01*
X7465004Y-7793997D01*
X7775061Y-7793487D02*
G01*
X7775061Y-7953491D01*
D12*
X8615121Y-5082560D02*
G01*
X8711008Y-5082560D01*
X8711008Y-4950439D01*
X8615121Y-4950439D01*
X8529878Y-5082560D02*
G01*
X8433991Y-5082560D01*
X8433991Y-4950439D01*
X8529878Y-4950439D01*
X1227378Y-6474439D02*
G01*
X1131491Y-6474439D01*
X1131491Y-6606560D01*
X1227378Y-6606560D01*
X1312621Y-6474439D02*
G01*
X1408508Y-6474439D01*
X1408508Y-6606560D01*
X1312621Y-6606560D01*
X2751378Y-6410939D02*
G01*
X2655491Y-6410939D01*
X2655491Y-6543060D01*
X2751378Y-6543060D01*
X2836621Y-6410939D02*
G01*
X2932508Y-6410939D01*
X2932508Y-6543060D01*
X2836621Y-6543060D01*
X4487621Y-6098560D02*
G01*
X4583508Y-6098560D01*
X4583508Y-5966439D01*
X4487621Y-5966439D01*
X4402378Y-6098560D02*
G01*
X4306491Y-6098560D01*
X4306491Y-5966439D01*
X4402378Y-5966439D01*
X4402378Y-6474439D02*
G01*
X4306491Y-6474439D01*
X4306491Y-6606560D01*
X4402378Y-6606560D01*
X4487621Y-6474439D02*
G01*
X4583508Y-6474439D01*
X4583508Y-6606560D01*
X4487621Y-6606560D01*
X2836621Y-7114560D02*
G01*
X2932508Y-7114560D01*
X2932508Y-6982439D01*
X2836621Y-6982439D01*
X2751378Y-7114560D02*
G01*
X2655491Y-7114560D01*
X2655491Y-6982439D01*
X2751378Y-6982439D01*
X4487621Y-7114560D02*
G01*
X4583508Y-7114560D01*
X4583508Y-6982439D01*
X4487621Y-6982439D01*
X4402378Y-7114560D02*
G01*
X4306491Y-7114560D01*
X4306491Y-6982439D01*
X4402378Y-6982439D01*
X1312621Y-6860560D02*
G01*
X1408508Y-6860560D01*
X1408508Y-6728439D01*
X1312621Y-6728439D01*
X1227378Y-6860560D02*
G01*
X1131491Y-6860560D01*
X1131491Y-6728439D01*
X1227378Y-6728439D01*
X4402378Y-6728439D02*
G01*
X4306491Y-6728439D01*
X4306491Y-6860560D01*
X4402378Y-6860560D01*
X4487621Y-6728439D02*
G01*
X4583508Y-6728439D01*
X4583508Y-6860560D01*
X4487621Y-6860560D01*
X6138621Y-7368560D02*
G01*
X6234508Y-7368560D01*
X6234508Y-7236439D01*
X6138621Y-7236439D01*
X6053378Y-7368560D02*
G01*
X5957491Y-7368560D01*
X5957491Y-7236439D01*
X6053378Y-7236439D01*
X6138621Y-6352560D02*
G01*
X6234508Y-6352560D01*
X6234508Y-6220439D01*
X6138621Y-6220439D01*
X6053378Y-6352560D02*
G01*
X5957491Y-6352560D01*
X5957491Y-6220439D01*
X6053378Y-6220439D01*
X6710121Y-5146060D02*
G01*
X6806008Y-5146060D01*
X6806008Y-5013939D01*
X6710121Y-5013939D01*
X6624878Y-5146060D02*
G01*
X6528991Y-5146060D01*
X6528991Y-5013939D01*
X6624878Y-5013939D01*
X6710121Y-5463560D02*
G01*
X6806008Y-5463560D01*
X6806008Y-5331439D01*
X6710121Y-5331439D01*
X6624878Y-5463560D02*
G01*
X6528991Y-5463560D01*
X6528991Y-5331439D01*
X6624878Y-5331439D01*
X6138621Y-6860560D02*
G01*
X6234508Y-6860560D01*
X6234508Y-6728439D01*
X6138621Y-6728439D01*
X6053378Y-6860560D02*
G01*
X5957491Y-6860560D01*
X5957491Y-6728439D01*
X6053378Y-6728439D01*
X7005878Y-5902939D02*
G01*
X6909991Y-5902939D01*
X6909991Y-6035060D01*
X7005878Y-6035060D01*
X7091121Y-5902939D02*
G01*
X7187008Y-5902939D01*
X7187008Y-6035060D01*
X7091121Y-6035060D01*
X6138621Y-7114560D02*
G01*
X6234508Y-7114560D01*
X6234508Y-6982439D01*
X6138621Y-6982439D01*
X6053378Y-7114560D02*
G01*
X5957491Y-7114560D01*
X5957491Y-6982439D01*
X6053378Y-6982439D01*
X6710121Y-6035060D02*
G01*
X6806008Y-6035060D01*
X6806008Y-5902939D01*
X6710121Y-5902939D01*
X6624878Y-6035060D02*
G01*
X6528991Y-6035060D01*
X6528991Y-5902939D01*
X6624878Y-5902939D01*
D13*
X5946000Y-9148000D02*
G01*
X6023343Y-9148000D01*
X6245999Y-9148000D02*
G01*
X6168628Y-9148000D01*
X6245999Y-9148000D02*
G01*
X6286500Y-9148000D01*
X6286500Y-9157141D01*
X5946000Y-9647999D02*
G01*
X5905500Y-9647999D01*
X5905500Y-9638858D01*
X5946000Y-9148000D02*
G01*
X5905500Y-9148000D01*
X5905500Y-9157141D01*
X6245999Y-9647999D02*
G01*
X6286500Y-9647999D01*
X6286500Y-9638858D01*
X6245999Y-9647999D02*
G01*
X5946000Y-9647999D01*
D12*
X3188373Y-3298380D02*
G01*
X3542652Y-3298380D01*
X3542652Y-3813619D01*
X3188373Y-3813619D01*
X3188373Y-3298380D01*
D13*
X8191449Y-3556000D02*
G01*
X8191449Y-3302000D01*
X8445449Y-3302000D01*
X8445449Y-3556000D01*
X8191449Y-3556000D01*
X7766456Y-3937000D02*
G01*
X7766456Y-1905000D01*
X8685453Y-1905000D01*
X8685453Y-3937000D01*
X7766456Y-3937000D01*
X8546490Y-3175990D02*
G01*
X8546490Y-2681986D01*
X8684488Y-2681986D01*
X8684488Y-3175990D01*
X8546490Y-3175990D01*
X8686495Y-3807510D02*
G01*
X8686495Y-3548506D01*
X8826500Y-3548506D01*
X8826500Y-3807510D01*
X8686495Y-3807510D01*
X8685504Y-2288997D02*
G01*
X8685504Y-2029993D01*
X8825509Y-2029993D01*
X8825509Y-2288997D01*
X8685504Y-2288997D01*
D12*
X7604879Y-414357D02*
G01*
X8270120Y-414357D01*
X8270120Y-708637D01*
X7604879Y-708637D01*
X7604879Y-414357D01*
X8419879Y-5629130D02*
G01*
X8419879Y-5800869D01*
X8523041Y-5800869D01*
X8725120Y-5629130D02*
G01*
X8725120Y-5800869D01*
X8621958Y-5800869D01*
X8526960Y-5629130D02*
G01*
X8618039Y-5629130D01*
D13*
X1651990Y-6093002D02*
G01*
X2421991Y-6093002D01*
X2421991Y-6352997D01*
X1651990Y-6352997D01*
X1651990Y-6093002D01*
X1651990Y-6093002D02*
G01*
X1911985Y-6093002D01*
X1911985Y-6343014D01*
X1651990Y-6343014D01*
X1651990Y-6093002D01*
X3936009Y-6352997D02*
G01*
X3166008Y-6352997D01*
X3166008Y-6093002D01*
X3936009Y-6093002D01*
X3936009Y-6352997D01*
X3936009Y-6352997D02*
G01*
X3676015Y-6352997D01*
X3676015Y-6102985D01*
X3936009Y-6102985D01*
X3936009Y-6352997D01*
X5237479Y-3431539D02*
G01*
X5328920Y-3431539D01*
X5466079Y-3431539D02*
G01*
X5557520Y-3431539D01*
X5622500Y-3433000D02*
G01*
X5622500Y-3444565D01*
X5622500Y-3921434D02*
G01*
X5622500Y-3932999D01*
X5172499Y-3932999D01*
X5172499Y-3921434D01*
X5172499Y-3444565D02*
G01*
X5172499Y-3433000D01*
X5557520Y-3431539D02*
G01*
X5622500Y-3431539D01*
X5237479Y-3431539D02*
G01*
X5172499Y-3431539D01*
X4953990Y-6093002D02*
G01*
X5723991Y-6093002D01*
X5723991Y-6352997D01*
X4953990Y-6352997D01*
X4953990Y-6093002D01*
X4953990Y-6093002D02*
G01*
X5213984Y-6093002D01*
X5213984Y-6343014D01*
X4953990Y-6343014D01*
X4953990Y-6093002D01*
X5725007Y-92989D02*
G01*
X5725007Y-2192985D01*
X625017Y-2192985D01*
X625017Y-92989D01*
X5725007Y-92989D01*
X5855004Y-743000D02*
G01*
X5855004Y-1542999D01*
X5255006Y-1542999D01*
X5255006Y-743000D01*
X5855004Y-743000D01*
G75*
G01*
X2934551Y-6771561D02*
G02*
X2903568Y-6802544I-30983J0D01*
G75*
G01*
X2903568Y-6660578D02*
G02*
X2934551Y-6691564I0J-30983D01*
G75*
G01*
X2685981Y-6801963D02*
G02*
X2654999Y-6770977I0J30983D01*
G75*
G01*
X2654999Y-6690980D02*
G02*
X2685981Y-6659997I30982J0D01*
G75*
G01*
X6236551Y-6581061D02*
G02*
X6205568Y-6612044I-30983J0D01*
G75*
G01*
X6205568Y-6470078D02*
G02*
X6236551Y-6501064I0J-30983D01*
G75*
G01*
X5987981Y-6611463D02*
G02*
X5956999Y-6580477I0J30983D01*
G75*
G01*
X5956999Y-6500480D02*
G02*
X5987981Y-6469497I30982J0D01*
G75*
G01*
X176949Y-467439D02*
G02*
X207932Y-436456I30983J0D01*
G75*
G01*
X207932Y-578422D02*
G02*
X176949Y-547436I0J30983D01*
G75*
G01*
X425519Y-437037D02*
G02*
X456501Y-468023I0J-30983D01*
G75*
G01*
X456501Y-548020D02*
G02*
X425519Y-579003I-30982J0D01*
G75*
G01*
X6499939Y-1410551D02*
G02*
X6468956Y-1379568I0J30983D01*
G75*
G01*
X6610922Y-1379568D02*
G02*
X6579936Y-1410551I-30983J0D01*
G75*
G01*
X6469537Y-1161981D02*
G02*
X6500523Y-1130999I30983J0D01*
G75*
G01*
X6580520Y-1130999D02*
G02*
X6611503Y-1161981I0J-30982D01*
G75*
G01*
X8012499Y-1670500D02*
G03*
X8019374Y-1253084I-74995J210000D01*
G75*
G01*
X7862501Y-1250500D02*
G03*
X7851734Y-1666337I75004J-210000D01*
G75*
G01*
X5220551Y-3279061D02*
G02*
X5189568Y-3310044I-30983J0D01*
G75*
G01*
X5189568Y-3168078D02*
G02*
X5220551Y-3199064I0J-30983D01*
G75*
G01*
X4971981Y-3309463D02*
G02*
X4940999Y-3278477I0J30983D01*
G75*
G01*
X4940999Y-3198480D02*
G02*
X4971981Y-3167497I30982J0D01*
G75*
G01*
X3723561Y-2970949D02*
G02*
X3754544Y-3001932I0J-30983D01*
G75*
G01*
X3612578Y-3001932D02*
G02*
X3643564Y-2970949I30983J0D01*
G75*
G01*
X3753963Y-3219519D02*
G02*
X3722977Y-3250501I-30983J0D01*
G75*
G01*
X3642980Y-3250501D02*
G02*
X3611997Y-3219519I0J30982D01*
G75*
G01*
X8338000Y-4179501D02*
G03*
X7920584Y-4172626I-210000J-74995D01*
G75*
G01*
X7918000Y-4329499D02*
G03*
X8333837Y-4340266I210000J75004D01*
G75*
G01*
X6902000Y-1725999D02*
G03*
X7319416Y-1732874I210000J74995D01*
G75*
G01*
X7322000Y-1576001D02*
G03*
X6906163Y-1565234I-210000J-75004D01*
G75*
G01*
X8431949Y-5293439D02*
G02*
X8462932Y-5262456I30983J0D01*
G75*
G01*
X8462932Y-5404422D02*
G02*
X8431949Y-5373436I0J30983D01*
G75*
G01*
X8680519Y-5263037D02*
G02*
X8711501Y-5294023I0J-30983D01*
G75*
G01*
X8711501Y-5374020D02*
G02*
X8680519Y-5405003I-30982J0D01*
G75*
G01*
X4585551Y-6327061D02*
G02*
X4554568Y-6358044I-30983J0D01*
G75*
G01*
X4554568Y-6216078D02*
G02*
X4585551Y-6247064I0J-30983D01*
G75*
G01*
X4336981Y-6357463D02*
G02*
X4305999Y-6326477I0J30983D01*
G75*
G01*
X4305999Y-6246480D02*
G02*
X4336981Y-6215497I30982J0D01*
G75*
G01*
X6808051Y-5692061D02*
G02*
X6777068Y-5723044I-30983J0D01*
G75*
G01*
X6777068Y-5581078D02*
G02*
X6808051Y-5612064I0J-30983D01*
G75*
G01*
X6559481Y-5722463D02*
G02*
X6528499Y-5691477I0J30983D01*
G75*
G01*
X6528499Y-5611480D02*
G02*
X6559481Y-5580497I30982J0D01*
G75*
G01*
X6023343Y-9148000D02*
G03*
X6168629Y-9148491I72657J3980D01*
G75*
G01*
X5466080Y-3431540D02*
G02*
X5328920Y-3431540I-68580J0D01*
G75*
G01
X13978992Y-5016505D02*
G03X13978992Y-5016505I-898017J0D01*
D15*
G75*
G01
X4383100Y-8826500D02*
G03X4383100Y-8826500I-15011J0D01*
G75*
G01
X4183101Y-8752561D02*
G03X4183101Y-8752561I-15011J0D01*
G75*
G01
X5844311Y-9144000D02*
G03X5844311Y-9144000I-15011J0D01*
G75*
G01
X3253486Y-3352800D02*
G03X3253486Y-3352800I-15011J0D01*
G75*
G01
X3093923Y-3266110D02*
G03X3093923Y-3266110I-15011J0D01*
D13*
G75*
G01
X8499424Y-3617163D02*
G03X8499424Y-3617163I-17958J0D01*
D16*
G75*
G01
X5117490Y-3407994D02*
G03X5117490Y-3407994I-19990J0D01*
D13*
G75*
G01
X5630012Y-572999D02*
G03X5630012Y-572999I-105004J0D01*
G75*
G01
X5630012Y-1713001D02*
G03X5630012Y-1713001I-105004J0D01*
G75*
G01
X929996Y-572999D02*
G03X929996Y-572999I-105004J0D01*
G75*
G01
X929996Y-1713001D02*
G03X929996Y-1713001I-105004J0D01*
M02*
