G04 Layer: TopPasteMaskLayer*
G04 EasyEDA v6.5.14, 2022-08-24 14:40:41*
G04 9da48f2711ed4ad3adc4a7d986b87d78,bf633cf64d8a430dba0ab8f24d4e683d,10*
G04 Gerber Generator version 0.2*
G04 Scale: 100 percent, Rotated: No, Reflected: No *
G04 Dimensions in millimeters *
G04 leading zeros omitted , absolute positions ,4 integer and 5 decimal *
%FSLAX45Y45*%
%MOMM*%

%AMMACRO1*21,1,$1,$2,0,0,$3*%
%ADD10R,0.8000X0.9000*%
%ADD11R,1.0000X0.7500*%
%ADD12R,1.2500X0.7000*%
%ADD13R,0.7000X1.2500*%
%ADD14R,1.0000X1.1000*%
%ADD15O,2.0379944X0.5739892*%
%ADD16R,1.1000X2.8000*%
%ADD17R,2.8000X1.1000*%
%ADD18R,0.9000X0.8000*%
%ADD19R,1.0000X2.4000*%
%ADD20R,2.4000X1.0000*%
%ADD21R,1.1000X1.0000*%
%ADD22R,0.7500X1.0000*%
%ADD23O,1.950212X0.5684012*%
%ADD24O,1.7314926000000002X0.3430016*%
%ADD25R,1.1000X2.5000*%
%ADD26MACRO1,3.6X2.34X0.0000*%
%ADD27R,0.5320X1.0375*%
%ADD28R,1.7000X0.4000*%
%ADD29R,0.0153X0.4000*%

%LPD*%
G36*
X7059523Y-2026666D02*
G01*
X7021017Y-2073452D01*
X7021017Y-2117547D01*
X7059523Y-2164334D01*
X7128256Y-2164334D01*
X7138263Y-2154326D01*
X7138263Y-2036673D01*
X7128256Y-2026666D01*
G37*
G36*
X6841744Y-2026666D02*
G01*
X6831736Y-2036673D01*
X6831736Y-2154326D01*
X6841744Y-2164334D01*
X6910476Y-2164334D01*
X6948982Y-2117547D01*
X6948982Y-2073452D01*
X6910476Y-2026666D01*
G37*
G36*
X8640673Y-4482236D02*
G01*
X8630666Y-4492244D01*
X8630666Y-4560976D01*
X8677452Y-4599482D01*
X8721547Y-4599482D01*
X8768334Y-4560976D01*
X8768334Y-4492244D01*
X8758377Y-4482236D01*
G37*
G36*
X8677452Y-4671517D02*
G01*
X8630666Y-4710023D01*
X8630666Y-4778756D01*
X8640673Y-4788763D01*
X8758377Y-4788763D01*
X8768334Y-4778756D01*
X8768334Y-4710023D01*
X8721547Y-4671517D01*
G37*
G36*
X4325518Y-8146491D02*
G01*
X4320489Y-8151520D01*
X4320489Y-8231479D01*
X4325518Y-8236508D01*
X4405477Y-8236508D01*
X4410506Y-8231479D01*
X4410506Y-8208721D01*
X4373524Y-8208721D01*
X4373524Y-8175701D01*
X4410506Y-8175701D01*
X4410506Y-8151520D01*
X4405477Y-8146491D01*
G37*
G36*
X4485487Y-8146491D02*
G01*
X4480509Y-8151520D01*
X4480509Y-8175701D01*
X4518507Y-8175701D01*
X4518507Y-8208721D01*
X4480509Y-8208721D01*
X4480509Y-8231479D01*
X4485487Y-8236508D01*
X4564481Y-8236508D01*
X4569510Y-8231479D01*
X4569510Y-8151520D01*
X4564481Y-8146491D01*
G37*
G36*
X849020Y-8162493D02*
G01*
X843991Y-8167522D01*
X843991Y-8247481D01*
X849020Y-8252510D01*
X928979Y-8252510D01*
X934008Y-8247481D01*
X934008Y-8167522D01*
X928979Y-8162493D01*
X906221Y-8162493D01*
X906221Y-8199526D01*
X873201Y-8199526D01*
X873201Y-8162493D01*
G37*
G36*
X849020Y-8003489D02*
G01*
X843991Y-8008518D01*
X843991Y-8087512D01*
X849020Y-8092490D01*
X873201Y-8092490D01*
X873201Y-8054492D01*
X906221Y-8054492D01*
X906221Y-8092490D01*
X928979Y-8092490D01*
X934008Y-8087512D01*
X934008Y-8008518D01*
X928979Y-8003489D01*
G37*
G36*
X2674518Y-8273491D02*
G01*
X2669489Y-8278520D01*
X2669489Y-8358479D01*
X2674518Y-8363508D01*
X2754477Y-8363508D01*
X2759506Y-8358479D01*
X2759506Y-8335721D01*
X2722524Y-8335721D01*
X2722524Y-8302701D01*
X2759506Y-8302701D01*
X2759506Y-8278520D01*
X2754477Y-8273491D01*
G37*
G36*
X2834487Y-8273491D02*
G01*
X2829509Y-8278520D01*
X2829509Y-8302701D01*
X2867507Y-8302701D01*
X2867507Y-8335721D01*
X2829509Y-8335721D01*
X2829509Y-8358479D01*
X2834487Y-8363508D01*
X2913481Y-8363508D01*
X2918510Y-8358479D01*
X2918510Y-8278520D01*
X2913481Y-8273491D01*
G37*
G36*
X87020Y-8225993D02*
G01*
X81991Y-8231022D01*
X81991Y-8310981D01*
X87020Y-8316010D01*
X166979Y-8316010D01*
X172008Y-8310981D01*
X172008Y-8231022D01*
X166979Y-8225993D01*
X144221Y-8225993D01*
X144221Y-8263026D01*
X111201Y-8263026D01*
X111201Y-8225993D01*
G37*
G36*
X87020Y-8066989D02*
G01*
X81991Y-8072018D01*
X81991Y-8151012D01*
X87020Y-8155990D01*
X111201Y-8155990D01*
X111201Y-8117992D01*
X144221Y-8117992D01*
X144221Y-8155990D01*
X166979Y-8155990D01*
X172008Y-8151012D01*
X172008Y-8072018D01*
X166979Y-8066989D01*
G37*
G36*
X1150518Y-9416491D02*
G01*
X1145489Y-9421520D01*
X1145489Y-9501479D01*
X1150518Y-9506508D01*
X1230477Y-9506508D01*
X1235506Y-9501479D01*
X1235506Y-9478721D01*
X1198473Y-9478721D01*
X1198473Y-9445701D01*
X1235506Y-9445701D01*
X1235506Y-9421520D01*
X1230477Y-9416491D01*
G37*
G36*
X1310487Y-9416491D02*
G01*
X1305509Y-9421520D01*
X1305509Y-9445701D01*
X1343507Y-9445701D01*
X1343507Y-9478721D01*
X1305509Y-9478721D01*
X1305509Y-9501479D01*
X1310487Y-9506508D01*
X1389481Y-9506508D01*
X1394510Y-9501479D01*
X1394510Y-9421520D01*
X1389481Y-9416491D01*
G37*
G36*
X404520Y-6161989D02*
G01*
X399491Y-6167018D01*
X399491Y-6246977D01*
X404520Y-6252006D01*
X427278Y-6252006D01*
X427278Y-6214973D01*
X460298Y-6214973D01*
X460298Y-6252006D01*
X484479Y-6252006D01*
X489508Y-6246977D01*
X489508Y-6167018D01*
X484479Y-6161989D01*
G37*
G36*
X404520Y-6322009D02*
G01*
X399491Y-6326987D01*
X399491Y-6405981D01*
X404520Y-6411010D01*
X484479Y-6411010D01*
X489508Y-6405981D01*
X489508Y-6326987D01*
X484479Y-6322009D01*
X460298Y-6322009D01*
X460298Y-6360007D01*
X427278Y-6360007D01*
X427278Y-6322009D01*
G37*
G36*
X87020Y-7844993D02*
G01*
X81991Y-7850022D01*
X81991Y-7929981D01*
X87020Y-7935010D01*
X166979Y-7935010D01*
X172008Y-7929981D01*
X172008Y-7850022D01*
X166979Y-7844993D01*
X144221Y-7844993D01*
X144221Y-7882026D01*
X111201Y-7882026D01*
X111201Y-7844993D01*
G37*
G36*
X87020Y-7685989D02*
G01*
X81991Y-7691018D01*
X81991Y-7770012D01*
X87020Y-7774990D01*
X111201Y-7774990D01*
X111201Y-7736992D01*
X144221Y-7736992D01*
X144221Y-7774990D01*
X166979Y-7774990D01*
X172008Y-7770012D01*
X172008Y-7691018D01*
X166979Y-7685989D01*
G37*
G36*
X1309522Y-9733991D02*
G01*
X1304493Y-9739020D01*
X1304493Y-9761778D01*
X1341526Y-9761778D01*
X1341526Y-9794798D01*
X1304493Y-9794798D01*
X1304493Y-9818979D01*
X1309522Y-9824008D01*
X1389481Y-9824008D01*
X1394510Y-9818979D01*
X1394510Y-9739020D01*
X1389481Y-9733991D01*
G37*
G36*
X1150518Y-9733991D02*
G01*
X1145489Y-9739020D01*
X1145489Y-9818979D01*
X1150518Y-9824008D01*
X1229512Y-9824008D01*
X1234490Y-9818979D01*
X1234490Y-9794798D01*
X1196492Y-9794798D01*
X1196492Y-9761778D01*
X1234490Y-9761778D01*
X1234490Y-9739020D01*
X1229512Y-9733991D01*
G37*
G36*
X3897020Y-8225993D02*
G01*
X3891991Y-8231022D01*
X3891991Y-8310981D01*
X3897020Y-8316010D01*
X3976979Y-8316010D01*
X3982008Y-8310981D01*
X3982008Y-8231022D01*
X3976979Y-8225993D01*
X3954221Y-8225993D01*
X3954221Y-8263026D01*
X3921201Y-8263026D01*
X3921201Y-8225993D01*
G37*
G36*
X3897020Y-8066989D02*
G01*
X3891991Y-8072018D01*
X3891991Y-8151012D01*
X3897020Y-8155990D01*
X3921201Y-8155990D01*
X3921201Y-8117992D01*
X3954221Y-8117992D01*
X3954221Y-8155990D01*
X3976979Y-8155990D01*
X3982008Y-8151012D01*
X3982008Y-8072018D01*
X3976979Y-8066989D01*
G37*
G36*
X5675020Y-8066989D02*
G01*
X5669991Y-8072018D01*
X5669991Y-8151977D01*
X5675020Y-8157006D01*
X5697778Y-8157006D01*
X5697778Y-8119973D01*
X5730798Y-8119973D01*
X5730798Y-8157006D01*
X5754979Y-8157006D01*
X5760008Y-8151977D01*
X5760008Y-8072018D01*
X5754979Y-8066989D01*
G37*
G36*
X5675020Y-8227009D02*
G01*
X5669991Y-8231987D01*
X5669991Y-8310981D01*
X5675020Y-8316010D01*
X5754979Y-8316010D01*
X5760008Y-8310981D01*
X5760008Y-8231987D01*
X5754979Y-8227009D01*
X5730798Y-8227009D01*
X5730798Y-8265007D01*
X5697778Y-8265007D01*
X5697778Y-8227009D01*
G37*
G36*
X7500518Y-7257491D02*
G01*
X7495489Y-7262520D01*
X7495489Y-7342479D01*
X7500518Y-7347508D01*
X7580477Y-7347508D01*
X7585506Y-7342479D01*
X7585506Y-7319721D01*
X7548524Y-7319721D01*
X7548524Y-7286701D01*
X7585506Y-7286701D01*
X7585506Y-7262520D01*
X7580477Y-7257491D01*
G37*
G36*
X7660487Y-7257491D02*
G01*
X7655509Y-7262520D01*
X7655509Y-7286701D01*
X7693507Y-7286701D01*
X7693507Y-7319721D01*
X7655509Y-7319721D01*
X7655509Y-7342479D01*
X7660487Y-7347508D01*
X7739481Y-7347508D01*
X7744510Y-7342479D01*
X7744510Y-7262520D01*
X7739481Y-7257491D01*
G37*
G36*
X2674518Y-8971991D02*
G01*
X2669489Y-8977020D01*
X2669489Y-9056979D01*
X2674518Y-9062008D01*
X2754477Y-9062008D01*
X2759506Y-9056979D01*
X2759506Y-9034221D01*
X2722524Y-9034221D01*
X2722524Y-9001201D01*
X2759506Y-9001201D01*
X2759506Y-8977020D01*
X2754477Y-8971991D01*
G37*
G36*
X2834487Y-8971991D02*
G01*
X2829509Y-8977020D01*
X2829509Y-9001201D01*
X2867507Y-9001201D01*
X2867507Y-9034221D01*
X2829509Y-9034221D01*
X2829509Y-9056979D01*
X2834487Y-9062008D01*
X2913481Y-9062008D01*
X2918510Y-9056979D01*
X2918510Y-8977020D01*
X2913481Y-8971991D01*
G37*
G36*
X4484522Y-8463991D02*
G01*
X4479493Y-8469020D01*
X4479493Y-8491778D01*
X4516475Y-8491778D01*
X4516475Y-8524798D01*
X4479493Y-8524798D01*
X4479493Y-8548979D01*
X4484522Y-8554008D01*
X4564481Y-8554008D01*
X4569510Y-8548979D01*
X4569510Y-8469020D01*
X4564481Y-8463991D01*
G37*
G36*
X4325518Y-8463991D02*
G01*
X4320489Y-8469020D01*
X4320489Y-8548979D01*
X4325518Y-8554008D01*
X4404512Y-8554008D01*
X4409490Y-8548979D01*
X4409490Y-8524798D01*
X4371492Y-8524798D01*
X4371492Y-8491778D01*
X4409490Y-8491778D01*
X4409490Y-8469020D01*
X4404512Y-8463991D01*
G37*
G36*
X2833522Y-9289491D02*
G01*
X2828493Y-9294520D01*
X2828493Y-9317278D01*
X2865475Y-9317278D01*
X2865475Y-9350298D01*
X2828493Y-9350298D01*
X2828493Y-9374479D01*
X2833522Y-9379508D01*
X2913481Y-9379508D01*
X2918510Y-9374479D01*
X2918510Y-9294520D01*
X2913481Y-9289491D01*
G37*
G36*
X2674518Y-9289491D02*
G01*
X2669489Y-9294520D01*
X2669489Y-9374479D01*
X2674518Y-9379508D01*
X2753512Y-9379508D01*
X2758490Y-9374479D01*
X2758490Y-9350298D01*
X2720492Y-9350298D01*
X2720492Y-9317278D01*
X2758490Y-9317278D01*
X2758490Y-9294520D01*
X2753512Y-9289491D01*
G37*
G36*
X7659522Y-9035491D02*
G01*
X7654493Y-9040520D01*
X7654493Y-9063278D01*
X7691475Y-9063278D01*
X7691475Y-9096298D01*
X7654493Y-9096298D01*
X7654493Y-9120479D01*
X7659522Y-9125508D01*
X7739481Y-9125508D01*
X7744510Y-9120479D01*
X7744510Y-9040520D01*
X7739481Y-9035491D01*
G37*
G36*
X7500518Y-9035491D02*
G01*
X7495489Y-9040520D01*
X7495489Y-9120479D01*
X7500518Y-9125508D01*
X7579512Y-9125508D01*
X7584490Y-9120479D01*
X7584490Y-9096298D01*
X7546492Y-9096298D01*
X7546492Y-9063278D01*
X7584490Y-9063278D01*
X7584490Y-9040520D01*
X7579512Y-9035491D01*
G37*
G36*
X8659520Y-7971993D02*
G01*
X8654491Y-7977022D01*
X8654491Y-8056981D01*
X8659520Y-8062010D01*
X8739479Y-8062010D01*
X8744508Y-8056981D01*
X8744508Y-7977022D01*
X8739479Y-7971993D01*
X8716721Y-7971993D01*
X8716721Y-8009026D01*
X8683701Y-8009026D01*
X8683701Y-7971993D01*
G37*
G36*
X8659520Y-7812989D02*
G01*
X8654491Y-7818018D01*
X8654491Y-7897012D01*
X8659520Y-7901990D01*
X8683701Y-7901990D01*
X8683701Y-7863992D01*
X8716721Y-7863992D01*
X8716721Y-7901990D01*
X8739479Y-7901990D01*
X8744508Y-7897012D01*
X8744508Y-7818018D01*
X8739479Y-7812989D01*
G37*
G36*
X6056020Y-8765489D02*
G01*
X6050991Y-8770518D01*
X6050991Y-8850477D01*
X6056020Y-8855506D01*
X6078778Y-8855506D01*
X6078778Y-8818473D01*
X6111798Y-8818473D01*
X6111798Y-8855506D01*
X6135979Y-8855506D01*
X6141008Y-8850477D01*
X6141008Y-8770518D01*
X6135979Y-8765489D01*
G37*
G36*
X6056020Y-8925509D02*
G01*
X6050991Y-8930487D01*
X6050991Y-9009481D01*
X6056020Y-9014510D01*
X6135979Y-9014510D01*
X6141008Y-9009481D01*
X6141008Y-8930487D01*
X6135979Y-8925509D01*
X6111798Y-8925509D01*
X6111798Y-8963507D01*
X6078778Y-8963507D01*
X6078778Y-8925509D01*
G37*
G36*
X5675020Y-8447989D02*
G01*
X5669991Y-8453018D01*
X5669991Y-8532977D01*
X5675020Y-8538006D01*
X5697778Y-8538006D01*
X5697778Y-8500973D01*
X5730798Y-8500973D01*
X5730798Y-8538006D01*
X5754979Y-8538006D01*
X5760008Y-8532977D01*
X5760008Y-8453018D01*
X5754979Y-8447989D01*
G37*
G36*
X5675020Y-8608009D02*
G01*
X5669991Y-8612987D01*
X5669991Y-8691981D01*
X5675020Y-8697010D01*
X5754979Y-8697010D01*
X5760008Y-8691981D01*
X5760008Y-8612987D01*
X5754979Y-8608009D01*
X5730798Y-8608009D01*
X5730798Y-8646007D01*
X5697778Y-8646007D01*
X5697778Y-8608009D01*
G37*
G36*
X8659520Y-8193989D02*
G01*
X8654491Y-8199018D01*
X8654491Y-8278977D01*
X8659520Y-8284006D01*
X8682278Y-8284006D01*
X8682278Y-8246973D01*
X8715298Y-8246973D01*
X8715298Y-8284006D01*
X8739479Y-8284006D01*
X8744508Y-8278977D01*
X8744508Y-8199018D01*
X8739479Y-8193989D01*
G37*
G36*
X8659520Y-8354009D02*
G01*
X8654491Y-8358987D01*
X8654491Y-8437981D01*
X8659520Y-8443010D01*
X8739479Y-8443010D01*
X8744508Y-8437981D01*
X8744508Y-8358987D01*
X8739479Y-8354009D01*
X8715298Y-8354009D01*
X8715298Y-8392007D01*
X8682278Y-8392007D01*
X8682278Y-8354009D01*
G37*
G36*
X7659522Y-8844991D02*
G01*
X7654493Y-8850020D01*
X7654493Y-8872778D01*
X7691475Y-8872778D01*
X7691475Y-8905798D01*
X7654493Y-8905798D01*
X7654493Y-8929979D01*
X7659522Y-8935008D01*
X7739481Y-8935008D01*
X7744510Y-8929979D01*
X7744510Y-8850020D01*
X7739481Y-8844991D01*
G37*
G36*
X7500518Y-8844991D02*
G01*
X7495489Y-8850020D01*
X7495489Y-8929979D01*
X7500518Y-8935008D01*
X7579512Y-8935008D01*
X7584490Y-8929979D01*
X7584490Y-8905798D01*
X7546492Y-8905798D01*
X7546492Y-8872778D01*
X7584490Y-8872778D01*
X7584490Y-8850020D01*
X7579512Y-8844991D01*
G37*
G36*
X8612022Y-4971491D02*
G01*
X8606993Y-4976520D01*
X8606993Y-4999278D01*
X8643975Y-4999278D01*
X8643975Y-5032298D01*
X8606993Y-5032298D01*
X8606993Y-5056479D01*
X8612022Y-5061508D01*
X8691981Y-5061508D01*
X8697010Y-5056479D01*
X8697010Y-4976520D01*
X8691981Y-4971491D01*
G37*
G36*
X8453018Y-4971491D02*
G01*
X8447989Y-4976520D01*
X8447989Y-5056479D01*
X8453018Y-5061508D01*
X8532012Y-5061508D01*
X8536990Y-5056479D01*
X8536990Y-5032298D01*
X8498992Y-5032298D01*
X8498992Y-4999278D01*
X8536990Y-4999278D01*
X8536990Y-4976520D01*
X8532012Y-4971491D01*
G37*
G36*
X1150518Y-6495491D02*
G01*
X1145489Y-6500520D01*
X1145489Y-6580479D01*
X1150518Y-6585508D01*
X1230477Y-6585508D01*
X1235506Y-6580479D01*
X1235506Y-6557721D01*
X1198473Y-6557721D01*
X1198473Y-6524701D01*
X1235506Y-6524701D01*
X1235506Y-6500520D01*
X1230477Y-6495491D01*
G37*
G36*
X1310487Y-6495491D02*
G01*
X1305509Y-6500520D01*
X1305509Y-6524701D01*
X1343507Y-6524701D01*
X1343507Y-6557721D01*
X1305509Y-6557721D01*
X1305509Y-6580479D01*
X1310487Y-6585508D01*
X1389481Y-6585508D01*
X1394510Y-6580479D01*
X1394510Y-6500520D01*
X1389481Y-6495491D01*
G37*
G36*
X2674518Y-6431991D02*
G01*
X2669489Y-6437020D01*
X2669489Y-6516979D01*
X2674518Y-6522008D01*
X2754477Y-6522008D01*
X2759506Y-6516979D01*
X2759506Y-6494221D01*
X2722524Y-6494221D01*
X2722524Y-6461201D01*
X2759506Y-6461201D01*
X2759506Y-6437020D01*
X2754477Y-6431991D01*
G37*
G36*
X2834487Y-6431991D02*
G01*
X2829509Y-6437020D01*
X2829509Y-6461201D01*
X2867507Y-6461201D01*
X2867507Y-6494221D01*
X2829509Y-6494221D01*
X2829509Y-6516979D01*
X2834487Y-6522008D01*
X2913481Y-6522008D01*
X2918510Y-6516979D01*
X2918510Y-6437020D01*
X2913481Y-6431991D01*
G37*
G36*
X4484522Y-5987491D02*
G01*
X4479493Y-5992520D01*
X4479493Y-6015278D01*
X4516475Y-6015278D01*
X4516475Y-6048298D01*
X4479493Y-6048298D01*
X4479493Y-6072479D01*
X4484522Y-6077508D01*
X4564481Y-6077508D01*
X4569510Y-6072479D01*
X4569510Y-5992520D01*
X4564481Y-5987491D01*
G37*
G36*
X4325518Y-5987491D02*
G01*
X4320489Y-5992520D01*
X4320489Y-6072479D01*
X4325518Y-6077508D01*
X4404512Y-6077508D01*
X4409490Y-6072479D01*
X4409490Y-6048298D01*
X4371492Y-6048298D01*
X4371492Y-6015278D01*
X4409490Y-6015278D01*
X4409490Y-5992520D01*
X4404512Y-5987491D01*
G37*
G36*
X4325518Y-6495491D02*
G01*
X4320489Y-6500520D01*
X4320489Y-6580479D01*
X4325518Y-6585508D01*
X4405477Y-6585508D01*
X4410506Y-6580479D01*
X4410506Y-6557721D01*
X4373524Y-6557721D01*
X4373524Y-6524701D01*
X4410506Y-6524701D01*
X4410506Y-6500520D01*
X4405477Y-6495491D01*
G37*
G36*
X4485487Y-6495491D02*
G01*
X4480509Y-6500520D01*
X4480509Y-6524701D01*
X4518507Y-6524701D01*
X4518507Y-6557721D01*
X4480509Y-6557721D01*
X4480509Y-6580479D01*
X4485487Y-6585508D01*
X4564481Y-6585508D01*
X4569510Y-6580479D01*
X4569510Y-6500520D01*
X4564481Y-6495491D01*
G37*
G36*
X2833522Y-7003491D02*
G01*
X2828493Y-7008520D01*
X2828493Y-7031278D01*
X2865475Y-7031278D01*
X2865475Y-7064298D01*
X2828493Y-7064298D01*
X2828493Y-7088479D01*
X2833522Y-7093508D01*
X2913481Y-7093508D01*
X2918510Y-7088479D01*
X2918510Y-7008520D01*
X2913481Y-7003491D01*
G37*
G36*
X2674518Y-7003491D02*
G01*
X2669489Y-7008520D01*
X2669489Y-7088479D01*
X2674518Y-7093508D01*
X2753512Y-7093508D01*
X2758490Y-7088479D01*
X2758490Y-7064298D01*
X2720492Y-7064298D01*
X2720492Y-7031278D01*
X2758490Y-7031278D01*
X2758490Y-7008520D01*
X2753512Y-7003491D01*
G37*
G36*
X4484522Y-7003491D02*
G01*
X4479493Y-7008520D01*
X4479493Y-7031278D01*
X4516475Y-7031278D01*
X4516475Y-7064298D01*
X4479493Y-7064298D01*
X4479493Y-7088479D01*
X4484522Y-7093508D01*
X4564481Y-7093508D01*
X4569510Y-7088479D01*
X4569510Y-7008520D01*
X4564481Y-7003491D01*
G37*
G36*
X4325518Y-7003491D02*
G01*
X4320489Y-7008520D01*
X4320489Y-7088479D01*
X4325518Y-7093508D01*
X4404512Y-7093508D01*
X4409490Y-7088479D01*
X4409490Y-7064298D01*
X4371492Y-7064298D01*
X4371492Y-7031278D01*
X4409490Y-7031278D01*
X4409490Y-7008520D01*
X4404512Y-7003491D01*
G37*
G36*
X1309522Y-6749491D02*
G01*
X1304493Y-6754520D01*
X1304493Y-6777278D01*
X1341526Y-6777278D01*
X1341526Y-6810298D01*
X1304493Y-6810298D01*
X1304493Y-6834479D01*
X1309522Y-6839508D01*
X1389481Y-6839508D01*
X1394510Y-6834479D01*
X1394510Y-6754520D01*
X1389481Y-6749491D01*
G37*
G36*
X1150518Y-6749491D02*
G01*
X1145489Y-6754520D01*
X1145489Y-6834479D01*
X1150518Y-6839508D01*
X1229512Y-6839508D01*
X1234490Y-6834479D01*
X1234490Y-6810298D01*
X1196492Y-6810298D01*
X1196492Y-6777278D01*
X1234490Y-6777278D01*
X1234490Y-6754520D01*
X1229512Y-6749491D01*
G37*
G36*
X4325518Y-6749491D02*
G01*
X4320489Y-6754520D01*
X4320489Y-6834479D01*
X4325518Y-6839508D01*
X4405477Y-6839508D01*
X4410506Y-6834479D01*
X4410506Y-6811721D01*
X4373524Y-6811721D01*
X4373524Y-6778701D01*
X4410506Y-6778701D01*
X4410506Y-6754520D01*
X4405477Y-6749491D01*
G37*
G36*
X4485487Y-6749491D02*
G01*
X4480509Y-6754520D01*
X4480509Y-6778701D01*
X4518507Y-6778701D01*
X4518507Y-6811721D01*
X4480509Y-6811721D01*
X4480509Y-6834479D01*
X4485487Y-6839508D01*
X4564481Y-6839508D01*
X4569510Y-6834479D01*
X4569510Y-6754520D01*
X4564481Y-6749491D01*
G37*
G36*
X6135522Y-7257491D02*
G01*
X6130493Y-7262520D01*
X6130493Y-7285278D01*
X6167475Y-7285278D01*
X6167475Y-7318298D01*
X6130493Y-7318298D01*
X6130493Y-7342479D01*
X6135522Y-7347508D01*
X6215481Y-7347508D01*
X6220510Y-7342479D01*
X6220510Y-7262520D01*
X6215481Y-7257491D01*
G37*
G36*
X5976518Y-7257491D02*
G01*
X5971489Y-7262520D01*
X5971489Y-7342479D01*
X5976518Y-7347508D01*
X6055512Y-7347508D01*
X6060490Y-7342479D01*
X6060490Y-7318298D01*
X6022492Y-7318298D01*
X6022492Y-7285278D01*
X6060490Y-7285278D01*
X6060490Y-7262520D01*
X6055512Y-7257491D01*
G37*
G36*
X6135522Y-6241491D02*
G01*
X6130493Y-6246520D01*
X6130493Y-6269278D01*
X6167475Y-6269278D01*
X6167475Y-6302298D01*
X6130493Y-6302298D01*
X6130493Y-6326479D01*
X6135522Y-6331508D01*
X6215481Y-6331508D01*
X6220510Y-6326479D01*
X6220510Y-6246520D01*
X6215481Y-6241491D01*
G37*
G36*
X5976518Y-6241491D02*
G01*
X5971489Y-6246520D01*
X5971489Y-6326479D01*
X5976518Y-6331508D01*
X6055512Y-6331508D01*
X6060490Y-6326479D01*
X6060490Y-6302298D01*
X6022492Y-6302298D01*
X6022492Y-6269278D01*
X6060490Y-6269278D01*
X6060490Y-6246520D01*
X6055512Y-6241491D01*
G37*
G36*
X6707022Y-5034991D02*
G01*
X6701993Y-5040020D01*
X6701993Y-5062778D01*
X6738975Y-5062778D01*
X6738975Y-5095798D01*
X6701993Y-5095798D01*
X6701993Y-5119979D01*
X6707022Y-5125008D01*
X6786981Y-5125008D01*
X6792010Y-5119979D01*
X6792010Y-5040020D01*
X6786981Y-5034991D01*
G37*
G36*
X6548018Y-5034991D02*
G01*
X6542989Y-5040020D01*
X6542989Y-5119979D01*
X6548018Y-5125008D01*
X6627012Y-5125008D01*
X6631990Y-5119979D01*
X6631990Y-5095798D01*
X6593992Y-5095798D01*
X6593992Y-5062778D01*
X6631990Y-5062778D01*
X6631990Y-5040020D01*
X6627012Y-5034991D01*
G37*
G36*
X6707022Y-5352491D02*
G01*
X6701993Y-5357520D01*
X6701993Y-5380278D01*
X6738975Y-5380278D01*
X6738975Y-5413298D01*
X6701993Y-5413298D01*
X6701993Y-5437479D01*
X6707022Y-5442508D01*
X6786981Y-5442508D01*
X6792010Y-5437479D01*
X6792010Y-5357520D01*
X6786981Y-5352491D01*
G37*
G36*
X6548018Y-5352491D02*
G01*
X6542989Y-5357520D01*
X6542989Y-5437479D01*
X6548018Y-5442508D01*
X6627012Y-5442508D01*
X6631990Y-5437479D01*
X6631990Y-5413298D01*
X6593992Y-5413298D01*
X6593992Y-5380278D01*
X6631990Y-5380278D01*
X6631990Y-5357520D01*
X6627012Y-5352491D01*
G37*
G36*
X6135522Y-6749491D02*
G01*
X6130493Y-6754520D01*
X6130493Y-6777278D01*
X6167475Y-6777278D01*
X6167475Y-6810298D01*
X6130493Y-6810298D01*
X6130493Y-6834479D01*
X6135522Y-6839508D01*
X6215481Y-6839508D01*
X6220510Y-6834479D01*
X6220510Y-6754520D01*
X6215481Y-6749491D01*
G37*
G36*
X5976518Y-6749491D02*
G01*
X5971489Y-6754520D01*
X5971489Y-6834479D01*
X5976518Y-6839508D01*
X6055512Y-6839508D01*
X6060490Y-6834479D01*
X6060490Y-6810298D01*
X6022492Y-6810298D01*
X6022492Y-6777278D01*
X6060490Y-6777278D01*
X6060490Y-6754520D01*
X6055512Y-6749491D01*
G37*
G36*
X6929018Y-5923991D02*
G01*
X6923989Y-5929020D01*
X6923989Y-6008979D01*
X6929018Y-6014008D01*
X7008977Y-6014008D01*
X7014006Y-6008979D01*
X7014006Y-5986221D01*
X6977024Y-5986221D01*
X6977024Y-5953201D01*
X7014006Y-5953201D01*
X7014006Y-5929020D01*
X7008977Y-5923991D01*
G37*
G36*
X7088987Y-5923991D02*
G01*
X7084009Y-5929020D01*
X7084009Y-5953201D01*
X7122007Y-5953201D01*
X7122007Y-5986221D01*
X7084009Y-5986221D01*
X7084009Y-6008979D01*
X7088987Y-6014008D01*
X7167981Y-6014008D01*
X7173010Y-6008979D01*
X7173010Y-5929020D01*
X7167981Y-5923991D01*
G37*
G36*
X6135522Y-7003491D02*
G01*
X6130493Y-7008520D01*
X6130493Y-7031278D01*
X6167475Y-7031278D01*
X6167475Y-7064298D01*
X6130493Y-7064298D01*
X6130493Y-7088479D01*
X6135522Y-7093508D01*
X6215481Y-7093508D01*
X6220510Y-7088479D01*
X6220510Y-7008520D01*
X6215481Y-7003491D01*
G37*
G36*
X5976518Y-7003491D02*
G01*
X5971489Y-7008520D01*
X5971489Y-7088479D01*
X5976518Y-7093508D01*
X6055512Y-7093508D01*
X6060490Y-7088479D01*
X6060490Y-7064298D01*
X6022492Y-7064298D01*
X6022492Y-7031278D01*
X6060490Y-7031278D01*
X6060490Y-7008520D01*
X6055512Y-7003491D01*
G37*
G36*
X6707022Y-5923991D02*
G01*
X6701993Y-5929020D01*
X6701993Y-5951778D01*
X6738975Y-5951778D01*
X6738975Y-5984798D01*
X6701993Y-5984798D01*
X6701993Y-6008979D01*
X6707022Y-6014008D01*
X6786981Y-6014008D01*
X6792010Y-6008979D01*
X6792010Y-5929020D01*
X6786981Y-5923991D01*
G37*
G36*
X6548018Y-5923991D02*
G01*
X6542989Y-5929020D01*
X6542989Y-6008979D01*
X6548018Y-6014008D01*
X6627012Y-6014008D01*
X6631990Y-6008979D01*
X6631990Y-5984798D01*
X6593992Y-5984798D01*
X6593992Y-5951778D01*
X6631990Y-5951778D01*
X6631990Y-5929020D01*
X6627012Y-5923991D01*
G37*
D10*
G01*
X2723997Y-6731000D03*
G01*
X2864002Y-6731000D03*
G01*
X6025997Y-6540500D03*
G01*
X6166002Y-6540500D03*
D11*
G01*
X7610246Y-2095500D03*
G01*
X7375753Y-2095500D03*
D12*
G01*
X417499Y-5936995D03*
G01*
X417499Y-5747004D03*
G01*
X217500Y-5842000D03*
D13*
G01*
X7525004Y-6767499D03*
G01*
X7714995Y-6767499D03*
G01*
X7620000Y-6567500D03*
D14*
G01*
X2874009Y-8699500D03*
G01*
X2714015Y-8699500D03*
D15*
G01*
X4168089Y-8826500D03*
G01*
X4168089Y-8953500D03*
G01*
X4168089Y-9080500D03*
G01*
X4168089Y-9207500D03*
G01*
X4168089Y-9334500D03*
G01*
X4168089Y-9461500D03*
G01*
X4168089Y-9588500D03*
G01*
X4721910Y-8826500D03*
G01*
X4721910Y-8953500D03*
G01*
X4721910Y-9080500D03*
G01*
X4721910Y-9207500D03*
G01*
X4721910Y-9334500D03*
G01*
X4721910Y-9461500D03*
G01*
X4721910Y-9588500D03*
D16*
G01*
X1270000Y-8533434D03*
G01*
X1270000Y-8865565D03*
G01*
X1270000Y-7453934D03*
G01*
X1270000Y-7786065D03*
D17*
G01*
X2627934Y-7810500D03*
G01*
X2960065Y-7810500D03*
G01*
X4278934Y-7810500D03*
G01*
X4611065Y-7810500D03*
D10*
G01*
X387502Y-508000D03*
G01*
X247497Y-508000D03*
D16*
G01*
X6096000Y-8152434D03*
G01*
X6096000Y-8484565D03*
G01*
X7620000Y-8279434D03*
G01*
X7620000Y-8611565D03*
D18*
G01*
X6540500Y-1199997D03*
G01*
X6540500Y-1340002D03*
D19*
G01*
X7937500Y-1260500D03*
G01*
X7937500Y-1660499D03*
D10*
G01*
X5009997Y-3238500D03*
G01*
X5150002Y-3238500D03*
D18*
G01*
X3683000Y-3181502D03*
G01*
X3683000Y-3041497D03*
D20*
G01*
X7928000Y-4254500D03*
G01*
X8327999Y-4254500D03*
D16*
G01*
X8509000Y-1250492D03*
G01*
X8509000Y-1670507D03*
D20*
G01*
X7311999Y-1651000D03*
G01*
X6912000Y-1651000D03*
D10*
G01*
X8642502Y-5334000D03*
G01*
X8502497Y-5334000D03*
G01*
X4374997Y-6286500D03*
G01*
X4515002Y-6286500D03*
G01*
X6597497Y-5651500D03*
G01*
X6737502Y-5651500D03*
D21*
G01*
X6523507Y-1778000D03*
G01*
X6176518Y-1778000D03*
D22*
G01*
X8699500Y-4308246D03*
G01*
X8699500Y-4073753D03*
D14*
G01*
X1350010Y-8191500D03*
G01*
X1190015Y-8191500D03*
G01*
X1350010Y-7112000D03*
G01*
X1190015Y-7112000D03*
D21*
G01*
X127000Y-8652510D03*
G01*
X127000Y-8492515D03*
D14*
G01*
X1350010Y-9144000D03*
G01*
X1190015Y-9144000D03*
D21*
G01*
X190500Y-6366510D03*
G01*
X190500Y-6206515D03*
G01*
X698500Y-6206489D03*
G01*
X698500Y-6366484D03*
D14*
G01*
X7700009Y-7556500D03*
G01*
X7540015Y-7556500D03*
G01*
X2874009Y-7366000D03*
G01*
X2714015Y-7366000D03*
G01*
X4364990Y-7366000D03*
G01*
X4524984Y-7366000D03*
G01*
X4969509Y-8382000D03*
G01*
X4809515Y-8382000D03*
G01*
X7539990Y-7048500D03*
G01*
X7699984Y-7048500D03*
G01*
X237489Y-1079500D03*
G01*
X397484Y-1079500D03*
G01*
X397510Y-762000D03*
G01*
X237515Y-762000D03*
G01*
X7700009Y-9334500D03*
G01*
X7540015Y-9334500D03*
G01*
X7539990Y-9588500D03*
G01*
X7699984Y-9588500D03*
D21*
G01*
X6286500Y-808989D03*
G01*
X6286500Y-968984D03*
G01*
X6540500Y-969010D03*
G01*
X6540500Y-809015D03*
G01*
X6096000Y-7827010D03*
G01*
X6096000Y-7667015D03*
D14*
G01*
X7700009Y-7874000D03*
G01*
X7540015Y-7874000D03*
D23*
G01*
X5825490Y-9207500D03*
G01*
X5825490Y-9334500D03*
G01*
X5825490Y-9461500D03*
G01*
X5825490Y-9588500D03*
G01*
X6366509Y-9207500D03*
G01*
X6366509Y-9334500D03*
G01*
X6366509Y-9461500D03*
G01*
X6366509Y-9588500D03*
D24*
G01*
X3078911Y-3328492D03*
G01*
X3078911Y-3393490D03*
G01*
X3078911Y-3458489D03*
G01*
X3078911Y-3523513D03*
G01*
X3078911Y-3588512D03*
G01*
X3078911Y-3653510D03*
G01*
X3078911Y-3718509D03*
G01*
X3078911Y-3783507D03*
G01*
X3652062Y-3328492D03*
G01*
X3652062Y-3393490D03*
G01*
X3652062Y-3458489D03*
G01*
X3652062Y-3523513D03*
G01*
X3652062Y-3588512D03*
G01*
X3652062Y-3653510D03*
G01*
X3652062Y-3718509D03*
G01*
X3652062Y-3783507D03*
D25*
G01*
X7707502Y-868502D03*
G01*
X7937500Y-868502D03*
G01*
X8167497Y-868502D03*
D26*
G01*
X7937500Y-274497D03*
D27*
G01*
X8667495Y-5604865D03*
G01*
X8477504Y-5604865D03*
G01*
X8572500Y-5825134D03*
D28*
G01*
X5117490Y-3488004D03*
G01*
X5117490Y-3553002D03*
G01*
X5117490Y-3618001D03*
G01*
X5117490Y-3683000D03*
G01*
X5117490Y-3747998D03*
G01*
X5117490Y-3812997D03*
G01*
X5117490Y-3877995D03*
G01*
X5677509Y-3877995D03*
G01*
X5677509Y-3812997D03*
G01*
X5677509Y-3747998D03*
G01*
X5677509Y-3683000D03*
G01*
X5677509Y-3618001D03*
G01*
X5677509Y-3553002D03*
G01*
X5677509Y-3488004D03*
M02*
