G04 Layer: BottomSolderMaskLayer*
G04 EasyEDA v6.5.14, 2022-08-24 14:40:41*
G04 9da48f2711ed4ad3adc4a7d986b87d78,bf633cf64d8a430dba0ab8f24d4e683d,10*
G04 Gerber Generator version 0.2*
G04 Scale: 100 percent, Rotated: No, Reflected: No *
G04 Dimensions in millimeters *
G04 leading zeros omitted , absolute positions ,4 integer and 5 decimal *
%FSLAX45Y45*%
%MOMM*%

%AMMACRO1*1,1,$1,$2,$3*1,1,$1,$4,$5*1,1,$1,0-$2,0-$3*1,1,$1,0-$4,0-$5*20,1,$1,$2,$3,$4,$5,0*20,1,$1,$4,$5,0-$2,0-$3,0*20,1,$1,0-$2,0-$3,0-$4,0-$5,0*20,1,$1,0-$4,0-$5,$2,$3,0*4,1,4,$2,$3,$4,$5,0-$2,0-$3,0-$4,0-$5,$2,$3,0*%
%ADD10O,1.7999964X0.8999982*%
%ADD11O,1.5999968X0.8999982*%
%ADD12C,1.6256*%
%ADD13C,1.7272*%
%ADD14O,1.651X3.175*%
%ADD15C,2.1016*%
%ADD16MACRO1,0.1016X-1X-1X-1X1*%
%ADD17MACRO1,0.1X-0.85X0.85X0.85X0.85*%
%ADD18C,1.8000*%
%ADD19MACRO1,0.1016X-0.762X-0.762X-0.762X0.762*%
%ADD20MACRO1,0.1X0.85X-0.85X-0.85X-0.85*%
%ADD21MACRO1,0.1016X0.762X0.762X0.762X-0.762*%

%LPD*%
D10*
G01*
X508000Y-8644001D03*
G01*
X508000Y-9493986D03*
D11*
G01*
X508000Y-9794011D03*
D10*
G01*
X2032000Y-8644001D03*
G01*
X2032000Y-9493986D03*
D11*
G01*
X2032000Y-9794011D03*
D10*
G01*
X3556000Y-8644001D03*
G01*
X3556000Y-9493986D03*
D11*
G01*
X3556000Y-9794011D03*
D10*
G01*
X5334000Y-8644001D03*
G01*
X5334000Y-9493986D03*
D11*
G01*
X5334000Y-9794011D03*
D12*
G01*
X635000Y-8128000D03*
G01*
X381000Y-8128000D03*
G01*
X2159000Y-8128000D03*
G01*
X1905000Y-8128000D03*
G01*
X3683000Y-8128000D03*
G01*
X3429000Y-8128000D03*
G01*
X5461000Y-8128000D03*
G01*
X5207000Y-8128000D03*
G01*
X6985000Y-8128000D03*
G01*
X6731000Y-8128000D03*
G01*
X8509000Y-8128000D03*
G01*
X8255000Y-8128000D03*
D13*
G01*
X1524000Y-5842000D03*
D12*
G01*
X1270000Y-5842000D03*
G01*
X1016000Y-5842000D03*
D14*
G01*
X762000Y-5080000D03*
G01*
X1778000Y-5080000D03*
D13*
G01*
X3556000Y-5842000D03*
D12*
G01*
X3302000Y-5842000D03*
G01*
X3048000Y-5842000D03*
D14*
G01*
X2794000Y-5080000D03*
G01*
X3810000Y-5080000D03*
D13*
G01*
X5842000Y-5842000D03*
D12*
G01*
X5588000Y-5842000D03*
G01*
X5334000Y-5842000D03*
D14*
G01*
X5080000Y-5080000D03*
G01*
X6096000Y-5080000D03*
D13*
G01*
X7874000Y-5842000D03*
D12*
G01*
X7620000Y-5842000D03*
G01*
X7366000Y-5842000D03*
D14*
G01*
X7112000Y-5080000D03*
G01*
X8128000Y-5080000D03*
D15*
G01*
X2102993Y-1240993D03*
G01*
X1453006Y-1240993D03*
G01*
X1453006Y-791006D03*
G01*
X2102993Y-791006D03*
G01*
X7436993Y-1240993D03*
G01*
X6787006Y-1240993D03*
G01*
X6787006Y-791006D03*
G01*
X7436993Y-791006D03*
D10*
G01*
X508000Y-6612001D03*
G01*
X508000Y-7461986D03*
D11*
G01*
X508000Y-7762011D03*
D10*
G01*
X8382000Y-6612001D03*
G01*
X8382000Y-7461986D03*
D11*
G01*
X8382000Y-7762011D03*
D10*
G01*
X2032000Y-6612001D03*
G01*
X2032000Y-7461986D03*
D11*
G01*
X2032000Y-7762011D03*
D10*
G01*
X3556000Y-6612001D03*
G01*
X3556000Y-7461986D03*
D11*
G01*
X3556000Y-7762011D03*
D10*
G01*
X5334000Y-6612001D03*
G01*
X5334000Y-7461986D03*
D11*
G01*
X5334000Y-7762011D03*
D10*
G01*
X6858000Y-6612001D03*
G01*
X6858000Y-7461986D03*
D11*
G01*
X6858000Y-7762011D03*
D10*
G01*
X8382000Y-8644001D03*
G01*
X8382000Y-9493986D03*
D11*
G01*
X8382000Y-9794011D03*
D10*
G01*
X6858000Y-8644001D03*
G01*
X6858000Y-9493986D03*
D11*
G01*
X6858000Y-9794011D03*
D13*
G01*
X2032000Y-3556000D03*
D12*
G01*
X1778000Y-3556000D03*
G01*
X1524000Y-3556000D03*
D14*
G01*
X1270000Y-2794000D03*
G01*
X2286000Y-2794000D03*
D13*
G01*
X7366000Y-3556000D03*
D12*
G01*
X7112000Y-3556000D03*
G01*
X6858000Y-3556000D03*
D14*
G01*
X6604000Y-2794000D03*
G01*
X7620000Y-2794000D03*
D12*
G01*
X4826000Y-762000D03*
G01*
X4572000Y-762000D03*
G01*
X4318000Y-762000D03*
G01*
X4064000Y-762000D03*
D15*
G01*
X635000Y-2476500D03*
G01*
X381000Y-2476500D03*
G01*
X635000Y-2730500D03*
G01*
X381000Y-2730500D03*
G01*
X635000Y-2984500D03*
G01*
X381000Y-2984500D03*
G01*
X635000Y-3238500D03*
G01*
X381000Y-3238500D03*
G01*
X635000Y-3492500D03*
G01*
X381000Y-3492500D03*
G01*
X635000Y-3746500D03*
G01*
X381000Y-3746500D03*
G01*
X635000Y-4000500D03*
G01*
X381000Y-4000500D03*
G01*
X635000Y-4254500D03*
D16*
G01*
X381000Y-4254500D03*
D17*
G01*
X6604000Y-6223000D03*
D18*
G01*
X6858000Y-6223000D03*
G01*
X7112000Y-6223000D03*
D19*
G01*
X8318627Y-3428847D03*
D12*
G01*
X8064372Y-3429101D03*
G01*
X8318525Y-3174898D03*
G01*
X8064372Y-3175101D03*
G01*
X8318525Y-2920898D03*
G01*
X8064372Y-2921101D03*
G01*
X8318525Y-2666898D03*
G01*
X8064372Y-2667101D03*
G01*
X8318525Y-2412898D03*
G01*
X8064372Y-2413101D03*
D17*
G01*
X1778000Y-6223000D03*
D18*
G01*
X2032000Y-6223000D03*
G01*
X2286000Y-6223000D03*
D20*
G01*
X3810000Y-6223000D03*
D18*
G01*
X3556000Y-6223000D03*
G01*
X3302000Y-6223000D03*
D17*
G01*
X5080000Y-6223000D03*
D18*
G01*
X5334000Y-6223000D03*
G01*
X5588000Y-6223000D03*
D12*
G01*
X5588000Y-254000D03*
G01*
X5334000Y-254000D03*
D21*
G01*
X5080000Y-254000D03*
G01*
X1270000Y-254000D03*
D12*
G01*
X1016000Y-254000D03*
G01*
X762000Y-254000D03*
G01*
X762000Y-2032000D03*
G01*
X1016000Y-2032000D03*
D21*
G01*
X1270000Y-2032000D03*
D12*
G01*
X1524000Y-2032000D03*
G01*
X1778000Y-2032000D03*
G01*
X2032000Y-2032000D03*
G01*
X2286000Y-2032000D03*
D21*
G01*
X2540000Y-2032000D03*
D12*
G01*
X2794000Y-2032000D03*
G01*
X3048000Y-2032000D03*
G01*
X3302000Y-2032000D03*
G01*
X3556000Y-2032000D03*
D21*
G01*
X3810000Y-2032000D03*
D12*
G01*
X4064000Y-2032000D03*
G01*
X4318000Y-2032000D03*
G01*
X4572000Y-2032000D03*
G01*
X4826000Y-2032000D03*
D21*
G01*
X5080000Y-2032000D03*
D12*
G01*
X5334000Y-2032000D03*
G01*
X5588000Y-2032000D03*
D13*
G01*
X784987Y-889000D03*
D21*
G01*
X784999Y-1143000D03*
D13*
G01*
X784987Y-1397000D03*
D12*
G01*
X4826000Y-254000D03*
G01*
X4572000Y-254000D03*
G01*
X4318000Y-254000D03*
G01*
X4064000Y-254000D03*
D21*
G01*
X3810000Y-254000D03*
D12*
G01*
X3556000Y-254000D03*
G01*
X3302000Y-254000D03*
G01*
X3048000Y-254000D03*
G01*
X2794000Y-254000D03*
D21*
G01*
X2540000Y-254000D03*
D12*
G01*
X2286000Y-254000D03*
G01*
X2032000Y-254000D03*
G01*
X1778000Y-254000D03*
G01*
X1524000Y-254000D03*
M02*
